<?xml version="1.0" encoding="us-ascii" standalone="no"?><svg xmlns="http://www.w3.org/2000/svg" xmlns:xlink="http://www.w3.org/1999/xlink" contentStyleType="text/css" height="851px" preserveAspectRatio="none" style="width:1622px;height:851px;background:#FFFFFF;" version="1.1" viewBox="0 0 1622 851" width="1622px" zoomAndPan="magnify"><defs/><g><text fill="#000000" font-family="sans-serif" font-size="14" font-weight="bold" lengthAdjust="spacing" textLength="528" x="540" y="23.5352">Saleor Architecture Diagram for Multi-Region/Multi-Language Migration</text><!--cluster Client Layer--><g id="cluster_Client Layer"><path d="M71.5,144.4783 L158.5,144.4783 A3.75,3.75 0 0 1 161,146.9783 L168,166.9666 L415.5,166.9666 A2.5,2.5 0 0 1 418,169.4666 L418,272.4483 A2.5,2.5 0 0 1 415.5,274.9483 L71.5,274.9483 A2.5,2.5 0 0 1 69,272.4483 L69,146.9783 A2.5,2.5 0 0 1 71.5,144.4783 " fill="none" style="stroke:#000000;stroke-width:1.5;"/><line style="stroke:#000000;stroke-width:1.5;" x1="69" x2="168" y1="166.9666" y2="166.9666"/><text fill="#000000" font-family="sans-serif" font-size="14" font-weight="bold" lengthAdjust="spacing" textLength="86" x="73" y="160.0134">Client Layer</text></g><!--cluster API Layer (GraphQL)--><g id="cluster_API Layer (GraphQL)"><path d="M85.5,298.9483 L230.5,298.9483 A3.75,3.75 0 0 1 233,301.4483 L240,321.4366 L296.5,321.4366 A2.5,2.5 0 0 1 299,323.9366 L299,549.8883 A2.5,2.5 0 0 1 296.5,552.3883 L85.5,552.3883 A2.5,2.5 0 0 1 83,549.8883 L83,301.4483 A2.5,2.5 0 0 1 85.5,298.9483 " fill="none" style="stroke:#000000;stroke-width:1.5;"/><line style="stroke:#000000;stroke-width:1.5;" x1="83" x2="240" y1="321.4366" y2="321.4366"/><text fill="#000000" font-family="sans-serif" font-size="14" font-weight="bold" lengthAdjust="spacing" textLength="144" x="87" y="314.4834">API Layer (GraphQL)</text></g><!--cluster Workflow Layer--><g id="cluster_Workflow Layer"><path d="M325.5,430.1683 L438.5,430.1683 A3.75,3.75 0 0 1 441,432.6683 L448,452.6566 L1136.5,452.6566 A2.5,2.5 0 0 1 1139,455.1566 L1139,541.6383 A2.5,2.5 0 0 1 1136.5,544.1383 L325.5,544.1383 A2.5,2.5 0 0 1 323,541.6383 L323,432.6683 A2.5,2.5 0 0 1 325.5,430.1683 " fill="none" style="stroke:#000000;stroke-width:1.5;"/><line style="stroke:#000000;stroke-width:1.5;" x1="323" x2="448" y1="452.6566" y2="452.6566"/><text fill="#000000" font-family="sans-serif" font-size="14" font-weight="bold" lengthAdjust="spacing" textLength="112" x="327" y="445.7034">Workflow Layer</text></g><!--cluster Module Layer--><g id="cluster_Module Layer"><path d="M206.5,576.3883 L303.5,576.3883 A3.75,3.75 0 0 1 306,578.8883 L313,598.8766 L1131.5,598.8766 A2.5,2.5 0 0 1 1134,601.3766 L1134,841.8283 A2.5,2.5 0 0 1 1131.5,844.3283 L206.5,844.3283 A2.5,2.5 0 0 1 204,841.8283 L204,578.8883 A2.5,2.5 0 0 1 206.5,576.3883 " fill="none" style="stroke:#000000;stroke-width:1.5;"/><line style="stroke:#000000;stroke-width:1.5;" x1="204" x2="313" y1="598.8766" y2="598.8766"/><text fill="#000000" font-family="sans-serif" font-size="14" font-weight="bold" lengthAdjust="spacing" textLength="96" x="208" y="591.9234">Module Layer</text></g><!--cluster Data Store Layer--><g id="cluster_Data Store Layer"><path d="M1160.5,714.3683 L1279.5,714.3683 A3.75,3.75 0 0 1 1282,716.8683 L1289,736.8566 L1425.5,736.8566 A2.5,2.5 0 0 1 1428,739.3566 L1428,841.3283 A2.5,2.5 0 0 1 1425.5,843.8283 L1160.5,843.8283 A2.5,2.5 0 0 1 1158,841.3283 L1158,716.8683 A2.5,2.5 0 0 1 1160.5,714.3683 " fill="none" style="stroke:#000000;stroke-width:1.5;"/><line style="stroke:#000000;stroke-width:1.5;" x1="1158" x2="1289" y1="736.8566" y2="736.8566"/><text fill="#000000" font-family="sans-serif" font-size="14" font-weight="bold" lengthAdjust="spacing" textLength="118" x="1162" y="729.9034">Data Store Layer</text></g><!--cluster Content Management--><g id="cluster_Content Management"><path d="M8.5,576.3883 L163.5,576.3883 A3.75,3.75 0 0 1 166,578.8883 L173,598.8766 L177.5,598.8766 A2.5,2.5 0 0 1 180,601.3766 L180,687.8683 A2.5,2.5 0 0 1 177.5,690.3683 L8.5,690.3683 A2.5,2.5 0 0 1 6,687.8683 L6,578.8883 A2.5,2.5 0 0 1 8.5,576.3883 " fill="none" style="stroke:#000000;stroke-width:1.5;"/><line style="stroke:#000000;stroke-width:1.5;" x1="6" x2="173" y1="598.8766" y2="598.8766"/><text fill="#000000" font-family="sans-serif" font-size="14" font-weight="bold" lengthAdjust="spacing" textLength="154" x="10" y="591.9234">Content Management</text></g><!--cluster Data Migration--><g id="cluster_Data Migration"><path d="M1165.5,298.9483 L1274.5,298.9483 A3.75,3.75 0 0 1 1277,301.4483 L1284,321.4366 L1612.5,321.4366 A2.5,2.5 0 0 1 1615,323.9366 L1615,687.8683 A2.5,2.5 0 0 1 1612.5,690.3683 L1165.5,690.3683 A2.5,2.5 0 0 1 1163,687.8683 L1163,301.4483 A2.5,2.5 0 0 1 1165.5,298.9483 " fill="none" style="stroke:#000000;stroke-width:1.5;"/><line style="stroke:#000000;stroke-width:1.5;" x1="1163" x2="1284" y1="321.4366" y2="321.4366"/><text fill="#000000" font-family="sans-serif" font-size="14" font-weight="bold" lengthAdjust="spacing" textLength="108" x="1167" y="314.4834">Data Migration</text></g><!--entity Storefront--><g id="elem_Storefront"><rect fill="#F8F9FA" height="79.4648" rx="2.5" ry="2.5" style="stroke:#6C757D;stroke-width:0.5;" width="110" x="85" y="179.4783"/><rect fill="#F8F9FA" height="10" style="stroke:#6C757D;stroke-width:0.5;" width="15" x="175" y="184.4783"/><rect fill="#F8F9FA" height="2" style="stroke:#6C757D;stroke-width:0.5;" width="4" x="173" y="186.4783"/><rect fill="#F8F9FA" height="2" style="stroke:#6C757D;stroke-width:0.5;" width="4" x="173" y="190.4783"/><text fill="#000000" font-family="sans-serif" font-size="14" font-style="italic" lengthAdjust="spacing" textLength="54" x="108" y="213.0134">&#171;Client&#187;</text><text fill="#000000" font-family="sans-serif" font-size="14" lengthAdjust="spacing" textLength="70" x="100" y="229.5017">Storefront</text><text fill="#000000" font-family="sans-serif" font-size="14" lengthAdjust="spacing" textLength="57" x="100" y="245.99">(Next.js)</text></g><!--entity AdminDashboard--><g id="elem_AdminDashboard"><rect fill="#F8F9FA" height="79.4648" rx="2.5" ry="2.5" style="stroke:#6C757D;stroke-width:0.5;" width="172" x="230" y="179.4783"/><rect fill="#F8F9FA" height="10" style="stroke:#6C757D;stroke-width:0.5;" width="15" x="382" y="184.4783"/><rect fill="#F8F9FA" height="2" style="stroke:#6C757D;stroke-width:0.5;" width="4" x="380" y="186.4783"/><rect fill="#F8F9FA" height="2" style="stroke:#6C757D;stroke-width:0.5;" width="4" x="380" y="190.4783"/><text fill="#000000" font-family="sans-serif" font-size="14" font-style="italic" lengthAdjust="spacing" textLength="54" x="284" y="213.0134">&#171;Client&#187;</text><text fill="#000000" font-family="sans-serif" font-size="14" lengthAdjust="spacing" textLength="124" x="245" y="229.5017">Admin Dashboard</text><text fill="#000000" font-family="sans-serif" font-size="14" lengthAdjust="spacing" textLength="132" x="245" y="245.99">(Saleor Dashboard)</text></g><!--entity API--><g id="elem_API"><rect fill="#E6F3FF" height="62.9766" rx="2.5" ry="2.5" style="stroke:#0D6EFD;stroke-width:0.5;" width="126" x="157" y="333.9483"/><rect fill="#E6F3FF" height="10" style="stroke:#0D6EFD;stroke-width:0.5;" width="15" x="263" y="338.9483"/><rect fill="#E6F3FF" height="2" style="stroke:#0D6EFD;stroke-width:0.5;" width="4" x="261" y="340.9483"/><rect fill="#E6F3FF" height="2" style="stroke:#0D6EFD;stroke-width:0.5;" width="4" x="261" y="344.9483"/><text fill="#000000" font-family="sans-serif" font-size="14" font-style="italic" lengthAdjust="spacing" textLength="36" x="197" y="367.4834">&#171;API&#187;</text><text fill="#000000" font-family="sans-serif" font-size="14" lengthAdjust="spacing" textLength="86" x="172" y="383.9717">GraphQL API</text></g><!--entity Session--><g id="elem_Session"><rect fill="#E6F3FF" height="79.4648" rx="2.5" ry="2.5" style="stroke:#0D6EFD;stroke-width:0.5;" width="185" x="98.5" y="456.9183"/><rect fill="#E6F3FF" height="10" style="stroke:#0D6EFD;stroke-width:0.5;" width="15" x="263.5" y="461.9183"/><rect fill="#E6F3FF" height="2" style="stroke:#0D6EFD;stroke-width:0.5;" width="4" x="261.5" y="463.9183"/><rect fill="#E6F3FF" height="2" style="stroke:#0D6EFD;stroke-width:0.5;" width="4" x="261.5" y="467.9183"/><text fill="#000000" font-family="sans-serif" font-size="14" font-style="italic" lengthAdjust="spacing" textLength="36" x="168" y="490.4534">&#171;API&#187;</text><text fill="#000000" font-family="sans-serif" font-size="14" lengthAdjust="spacing" textLength="145" x="113.5" y="506.9417">Session Management</text><text fill="#000000" font-family="sans-serif" font-size="14" lengthAdjust="spacing" textLength="111" x="113.5" y="523.43">JWT-based Auth</text></g><!--entity ProductWorkflow--><g id="elem_ProductWorkflow"><rect fill="#FFF0E6" height="62.9766" rx="2.5" ry="2.5" style="stroke:#FF7F41;stroke-width:0.5;" width="168" x="339" y="465.1683"/><rect fill="#FFF0E6" height="10" style="stroke:#FF7F41;stroke-width:0.5;" width="15" x="487" y="470.1683"/><rect fill="#FFF0E6" height="2" style="stroke:#FF7F41;stroke-width:0.5;" width="4" x="485" y="472.1683"/><rect fill="#FFF0E6" height="2" style="stroke:#FF7F41;stroke-width:0.5;" width="4" x="485" y="476.1683"/><text fill="#000000" font-family="sans-serif" font-size="14" font-style="italic" lengthAdjust="spacing" textLength="78" x="379" y="498.7034">&#171;Workflow&#187;</text><text fill="#000000" font-family="sans-serif" font-size="14" lengthAdjust="spacing" textLength="128" x="354" y="515.1917">Product Workflows</text></g><!--entity OrderWorkflow--><g id="elem_OrderWorkflow"><rect fill="#FFF0E6" height="62.9766" rx="2.5" ry="2.5" style="stroke:#FF7F41;stroke-width:0.5;" width="155" x="541.5" y="465.1683"/><rect fill="#FFF0E6" height="10" style="stroke:#FF7F41;stroke-width:0.5;" width="15" x="676.5" y="470.1683"/><rect fill="#FFF0E6" height="2" style="stroke:#FF7F41;stroke-width:0.5;" width="4" x="674.5" y="472.1683"/><rect fill="#FFF0E6" height="2" style="stroke:#FF7F41;stroke-width:0.5;" width="4" x="674.5" y="476.1683"/><text fill="#000000" font-family="sans-serif" font-size="14" font-style="italic" lengthAdjust="spacing" textLength="78" x="575" y="498.7034">&#171;Workflow&#187;</text><text fill="#000000" font-family="sans-serif" font-size="14" lengthAdjust="spacing" textLength="115" x="556.5" y="515.1917">Order Workflows</text></g><!--entity CustomerWorkflow--><g id="elem_CustomerWorkflow"><rect fill="#FFF0E6" height="62.9766" rx="2.5" ry="2.5" style="stroke:#FF7F41;stroke-width:0.5;" width="182" x="732" y="465.1683"/><rect fill="#FFF0E6" height="10" style="stroke:#FF7F41;stroke-width:0.5;" width="15" x="894" y="470.1683"/><rect fill="#FFF0E6" height="2" style="stroke:#FF7F41;stroke-width:0.5;" width="4" x="892" y="472.1683"/><rect fill="#FFF0E6" height="2" style="stroke:#FF7F41;stroke-width:0.5;" width="4" x="892" y="476.1683"/><text fill="#000000" font-family="sans-serif" font-size="14" font-style="italic" lengthAdjust="spacing" textLength="78" x="779" y="498.7034">&#171;Workflow&#187;</text><text fill="#000000" font-family="sans-serif" font-size="14" lengthAdjust="spacing" textLength="142" x="747" y="515.1917">Customer Workflows</text></g><!--entity PaymentWorkflow--><g id="elem_PaymentWorkflow"><rect fill="#FFF0E6" height="62.9766" rx="2.5" ry="2.5" style="stroke:#FF7F41;stroke-width:0.5;" width="173" x="949.5" y="465.1683"/><rect fill="#FFF0E6" height="10" style="stroke:#FF7F41;stroke-width:0.5;" width="15" x="1102.5" y="470.1683"/><rect fill="#FFF0E6" height="2" style="stroke:#FF7F41;stroke-width:0.5;" width="4" x="1100.5" y="472.1683"/><rect fill="#FFF0E6" height="2" style="stroke:#FF7F41;stroke-width:0.5;" width="4" x="1100.5" y="476.1683"/><text fill="#000000" font-family="sans-serif" font-size="14" font-style="italic" lengthAdjust="spacing" textLength="78" x="992" y="498.7034">&#171;Workflow&#187;</text><text fill="#000000" font-family="sans-serif" font-size="14" lengthAdjust="spacing" textLength="133" x="964.5" y="515.1917">Payment Workflows</text></g><!--entity ProductModule--><g id="elem_ProductModule"><rect fill="#E6F9F7" height="62.9766" rx="2.5" ry="2.5" style="stroke:#20C997;stroke-width:0.5;" width="148" x="220" y="611.3883"/><rect fill="#E6F9F7" height="10" style="stroke:#20C997;stroke-width:0.5;" width="15" x="348" y="616.3883"/><rect fill="#E6F9F7" height="2" style="stroke:#20C997;stroke-width:0.5;" width="4" x="346" y="618.3883"/><rect fill="#E6F9F7" height="2" style="stroke:#20C997;stroke-width:0.5;" width="4" x="346" y="622.3883"/><text fill="#000000" font-family="sans-serif" font-size="14" font-style="italic" lengthAdjust="spacing" textLength="65" x="256.5" y="644.9234">&#171;Module&#187;</text><text fill="#000000" font-family="sans-serif" font-size="14" lengthAdjust="spacing" textLength="108" x="235" y="661.4117">Product Module</text></g><!--entity OrderModule--><g id="elem_OrderModule"><rect fill="#E6F9F7" height="62.9766" rx="2.5" ry="2.5" style="stroke:#20C997;stroke-width:0.5;" width="135" x="403.5" y="611.3883"/><rect fill="#E6F9F7" height="10" style="stroke:#20C997;stroke-width:0.5;" width="15" x="518.5" y="616.3883"/><rect fill="#E6F9F7" height="2" style="stroke:#20C997;stroke-width:0.5;" width="4" x="516.5" y="618.3883"/><rect fill="#E6F9F7" height="2" style="stroke:#20C997;stroke-width:0.5;" width="4" x="516.5" y="622.3883"/><text fill="#000000" font-family="sans-serif" font-size="14" font-style="italic" lengthAdjust="spacing" textLength="65" x="433.5" y="644.9234">&#171;Module&#187;</text><text fill="#000000" font-family="sans-serif" font-size="14" lengthAdjust="spacing" textLength="95" x="418.5" y="661.4117">Order Module</text></g><!--entity CustomerModule--><g id="elem_CustomerModule"><rect fill="#E6F9F7" height="62.9766" rx="2.5" ry="2.5" style="stroke:#20C997;stroke-width:0.5;" width="162" x="767" y="611.3883"/><rect fill="#E6F9F7" height="10" style="stroke:#20C997;stroke-width:0.5;" width="15" x="909" y="616.3883"/><rect fill="#E6F9F7" height="2" style="stroke:#20C997;stroke-width:0.5;" width="4" x="907" y="618.3883"/><rect fill="#E6F9F7" height="2" style="stroke:#20C997;stroke-width:0.5;" width="4" x="907" y="622.3883"/><text fill="#000000" font-family="sans-serif" font-size="14" font-style="italic" lengthAdjust="spacing" textLength="65" x="810.5" y="644.9234">&#171;Module&#187;</text><text fill="#000000" font-family="sans-serif" font-size="14" lengthAdjust="spacing" textLength="122" x="782" y="661.4117">Customer Module</text></g><!--entity PaymentModule--><g id="elem_PaymentModule"><rect fill="#E6F9F7" height="62.9766" rx="2.5" ry="2.5" style="stroke:#20C997;stroke-width:0.5;" width="153" x="964.5" y="611.3883"/><rect fill="#E6F9F7" height="10" style="stroke:#20C997;stroke-width:0.5;" width="15" x="1097.5" y="616.3883"/><rect fill="#E6F9F7" height="2" style="stroke:#20C997;stroke-width:0.5;" width="4" x="1095.5" y="618.3883"/><rect fill="#E6F9F7" height="2" style="stroke:#20C997;stroke-width:0.5;" width="4" x="1095.5" y="622.3883"/><text fill="#000000" font-family="sans-serif" font-size="14" font-style="italic" lengthAdjust="spacing" textLength="65" x="1003.5" y="644.9234">&#171;Module&#187;</text><text fill="#000000" font-family="sans-serif" font-size="14" lengthAdjust="spacing" textLength="113" x="979.5" y="661.4117">Payment Module</text></g><!--entity InventoryModule--><g id="elem_InventoryModule"><rect fill="#E6F9F7" height="62.9766" rx="2.5" ry="2.5" style="stroke:#20C997;stroke-width:0.5;" width="159" x="573.5" y="611.3883"/><rect fill="#E6F9F7" height="10" style="stroke:#20C997;stroke-width:0.5;" width="15" x="712.5" y="616.3883"/><rect fill="#E6F9F7" height="2" style="stroke:#20C997;stroke-width:0.5;" width="4" x="710.5" y="618.3883"/><rect fill="#E6F9F7" height="2" style="stroke:#20C997;stroke-width:0.5;" width="4" x="710.5" y="622.3883"/><text fill="#000000" font-family="sans-serif" font-size="14" font-style="italic" lengthAdjust="spacing" textLength="65" x="615.5" y="644.9234">&#171;Module&#187;</text><text fill="#000000" font-family="sans-serif" font-size="14" lengthAdjust="spacing" textLength="119" x="588.5" y="661.4117">Inventory Module</text></g><!--entity ChannelModule--><g id="elem_ChannelModule"><rect fill="#E6F9F7" height="79.4648" rx="2.5" ry="2.5" style="stroke:#20C997;stroke-width:0.5;" width="190" x="431" y="748.8683"/><rect fill="#E6F9F7" height="10" style="stroke:#20C997;stroke-width:0.5;" width="15" x="601" y="753.8683"/><rect fill="#E6F9F7" height="2" style="stroke:#20C997;stroke-width:0.5;" width="4" x="599" y="755.8683"/><rect fill="#E6F9F7" height="2" style="stroke:#20C997;stroke-width:0.5;" width="4" x="599" y="759.8683"/><text fill="#000000" font-family="sans-serif" font-size="14" font-style="italic" lengthAdjust="spacing" textLength="65" x="488.5" y="782.4034">&#171;Module&#187;</text><text fill="#000000" font-family="sans-serif" font-size="14" lengthAdjust="spacing" textLength="150" x="446" y="798.8917">Channel Management</text><text fill="#000000" font-family="sans-serif" font-size="14" lengthAdjust="spacing" textLength="100" x="446" y="815.38">(Multi-Region)</text></g><!--entity TranslationModule--><g id="elem_TranslationModule"><rect fill="#E6F9F7" height="79.4648" rx="2.5" ry="2.5" style="stroke:#20C997;stroke-width:0.5;" width="177" x="219.5" y="748.8683"/><rect fill="#E6F9F7" height="10" style="stroke:#20C997;stroke-width:0.5;" width="15" x="376.5" y="753.8683"/><rect fill="#E6F9F7" height="2" style="stroke:#20C997;stroke-width:0.5;" width="4" x="374.5" y="755.8683"/><rect fill="#E6F9F7" height="2" style="stroke:#20C997;stroke-width:0.5;" width="4" x="374.5" y="759.8683"/><text fill="#000000" font-family="sans-serif" font-size="14" font-style="italic" lengthAdjust="spacing" textLength="65" x="270.5" y="782.4034">&#171;Module&#187;</text><text fill="#000000" font-family="sans-serif" font-size="14" lengthAdjust="spacing" textLength="137" x="234.5" y="798.8917">Translation Support</text><text fill="#000000" font-family="sans-serif" font-size="14" lengthAdjust="spacing" textLength="119" x="234.5" y="815.38">(Multi-Language)</text></g><!--entity PostgreSQL--><g id="elem_PostgreSQL"><path d="M1310.5,767.6083 C1310.5,757.6083 1361,757.6083 1361,757.6083 C1361,757.6083 1411.5,757.6083 1411.5,767.6083 L1411.5,809.5848 C1411.5,819.5848 1361,819.5848 1361,819.5848 C1361,819.5848 1310.5,819.5848 1310.5,809.5848 L1310.5,767.6083 " fill="#F1F1F1" style="stroke:#181818;stroke-width:0.5;"/><path d="M1310.5,767.6083 C1310.5,777.6083 1361,777.6083 1361,777.6083 C1361,777.6083 1411.5,777.6083 1411.5,767.6083 " fill="none" style="stroke:#181818;stroke-width:0.5;"/><text fill="#000000" font-family="sans-serif" font-size="14" font-style="italic" lengthAdjust="spacing" textLength="81" x="1320.5" y="795.1434">&#171;DataStore&#187;</text><text fill="#000000" font-family="sans-serif" font-size="14" lengthAdjust="spacing" textLength="78" x="1322" y="811.6317">PostgreSQL</text></g><!--entity Redis--><g id="elem_Redis"><path d="M1174.5,759.3683 C1174.5,749.3683 1225,749.3683 1225,749.3683 C1225,749.3683 1275.5,749.3683 1275.5,759.3683 L1275.5,817.8331 C1275.5,827.8331 1225,827.8331 1225,827.8331 C1225,827.8331 1174.5,827.8331 1174.5,817.8331 L1174.5,759.3683 " fill="#F1F1F1" style="stroke:#181818;stroke-width:0.5;"/><path d="M1174.5,759.3683 C1174.5,769.3683 1225,769.3683 1225,769.3683 C1225,769.3683 1275.5,769.3683 1275.5,759.3683 " fill="none" style="stroke:#181818;stroke-width:0.5;"/><text fill="#000000" font-family="sans-serif" font-size="14" font-style="italic" lengthAdjust="spacing" textLength="81" x="1184.5" y="786.9034">&#171;DataStore&#187;</text><text fill="#000000" font-family="sans-serif" font-size="14" lengthAdjust="spacing" textLength="37" x="1199" y="803.3917">Redis</text><text fill="#000000" font-family="sans-serif" font-size="14" lengthAdjust="spacing" textLength="52" x="1199" y="819.88">(Cache)</text></g><!--entity Content--><g id="elem_Content"><rect fill="#F0F7DF" height="62.9766" rx="2.5" ry="2.5" style="stroke:#7CB518;stroke-width:0.5;" width="142" x="22" y="611.3883"/><rect fill="#F0F7DF" height="10" style="stroke:#7CB518;stroke-width:0.5;" width="15" x="144" y="616.3883"/><rect fill="#F0F7DF" height="2" style="stroke:#7CB518;stroke-width:0.5;" width="4" x="142" y="618.3883"/><rect fill="#F0F7DF" height="2" style="stroke:#7CB518;stroke-width:0.5;" width="4" x="142" y="622.3883"/><text fill="#000000" font-family="sans-serif" font-size="14" font-style="italic" lengthAdjust="spacing" textLength="69" x="53.5" y="644.9234">&#171;Content&#187;</text><text fill="#000000" font-family="sans-serif" font-size="14" lengthAdjust="spacing" textLength="102" x="37" y="661.4117">Saleor Content</text></g><!--entity MigrationTools--><g id="elem_MigrationTools"><rect fill="#FFE6ED" height="62.9766" rx="2.5" ry="2.5" style="stroke:#E83E8C;stroke-width:0.5;" width="148" x="1397" y="333.9483"/><rect fill="#FFE6ED" height="10" style="stroke:#E83E8C;stroke-width:0.5;" width="15" x="1525" y="338.9483"/><rect fill="#FFE6ED" height="2" style="stroke:#E83E8C;stroke-width:0.5;" width="4" x="1523" y="340.9483"/><rect fill="#FFE6ED" height="2" style="stroke:#E83E8C;stroke-width:0.5;" width="4" x="1523" y="344.9483"/><text fill="#000000" font-family="sans-serif" font-size="14" font-style="italic" lengthAdjust="spacing" textLength="80" x="1426" y="367.4834">&#171;Migration&#187;</text><text fill="#000000" font-family="sans-serif" font-size="14" lengthAdjust="spacing" textLength="108" x="1412" y="383.9717">Migration Tools</text></g><!--entity StatamicExtractor--><g id="elem_StatamicExtractor"><rect fill="#FFE6ED" height="62.9766" rx="2.5" ry="2.5" style="stroke:#E83E8C;stroke-width:0.5;" width="165" x="1179.5" y="465.1683"/><rect fill="#FFE6ED" height="10" style="stroke:#E83E8C;stroke-width:0.5;" width="15" x="1324.5" y="470.1683"/><rect fill="#FFE6ED" height="2" style="stroke:#E83E8C;stroke-width:0.5;" width="4" x="1322.5" y="472.1683"/><rect fill="#FFE6ED" height="2" style="stroke:#E83E8C;stroke-width:0.5;" width="4" x="1322.5" y="476.1683"/><text fill="#000000" font-family="sans-serif" font-size="14" font-style="italic" lengthAdjust="spacing" textLength="80" x="1217" y="498.7034">&#171;Migration&#187;</text><text fill="#000000" font-family="sans-serif" font-size="14" lengthAdjust="spacing" textLength="125" x="1194.5" y="515.1917">Statamic Extractor</text></g><!--entity DataTransform--><g id="elem_DataTransform"><rect fill="#FFE6ED" height="62.9766" rx="2.5" ry="2.5" style="stroke:#E83E8C;stroke-width:0.5;" width="182" x="1380" y="465.1683"/><rect fill="#FFE6ED" height="10" style="stroke:#E83E8C;stroke-width:0.5;" width="15" x="1542" y="470.1683"/><rect fill="#FFE6ED" height="2" style="stroke:#E83E8C;stroke-width:0.5;" width="4" x="1540" y="472.1683"/><rect fill="#FFE6ED" height="2" style="stroke:#E83E8C;stroke-width:0.5;" width="4" x="1540" y="476.1683"/><text fill="#000000" font-family="sans-serif" font-size="14" font-style="italic" lengthAdjust="spacing" textLength="80" x="1426" y="498.7034">&#171;Migration&#187;</text><text fill="#000000" font-family="sans-serif" font-size="14" lengthAdjust="spacing" textLength="142" x="1395" y="515.1917">Data Transformation</text></g><!--entity SaleorImporter--><g id="elem_SaleorImporter"><rect fill="#FFE6ED" height="62.9766" rx="2.5" ry="2.5" style="stroke:#E83E8C;stroke-width:0.5;" width="147" x="1397.5" y="611.3883"/><rect fill="#FFE6ED" height="10" style="stroke:#E83E8C;stroke-width:0.5;" width="15" x="1524.5" y="616.3883"/><rect fill="#FFE6ED" height="2" style="stroke:#E83E8C;stroke-width:0.5;" width="4" x="1522.5" y="618.3883"/><rect fill="#FFE6ED" height="2" style="stroke:#E83E8C;stroke-width:0.5;" width="4" x="1522.5" y="622.3883"/><text fill="#000000" font-family="sans-serif" font-size="14" font-style="italic" lengthAdjust="spacing" textLength="80" x="1426" y="644.9234">&#171;Migration&#187;</text><text fill="#000000" font-family="sans-serif" font-size="14" lengthAdjust="spacing" textLength="107" x="1412.5" y="661.4117">Saleor Importer</text></g><!--entity StoreUser--><g id="elem_StoreUser"><ellipse cx="140" cy="51.4883" fill="#F1F1F1" rx="8" ry="8" style="stroke:#181818;stroke-width:0.5;"/><path d="M140,59.4883 L140,86.4883 M127,67.4883 L153,67.4883 M140,86.4883 L127,101.4883 M140,86.4883 L153,101.4883 " fill="none" style="stroke:#181818;stroke-width:0.5;"/><text fill="#000000" font-family="sans-serif" font-size="14" lengthAdjust="spacing" textLength="105" x="87.5" y="116.5234">Storefront User</text></g><!--entity AdminUser--><g id="elem_AdminUser"><ellipse cx="316" cy="51.4883" fill="#F1F1F1" rx="8" ry="8" style="stroke:#181818;stroke-width:0.5;"/><path d="M316,59.4883 L316,86.4883 M303,67.4883 L329,67.4883 M316,86.4883 L303,101.4883 M316,86.4883 L329,101.4883 " fill="none" style="stroke:#181818;stroke-width:0.5;"/><text fill="#000000" font-family="sans-serif" font-size="14" lengthAdjust="spacing" textLength="80" x="276" y="116.5234">Admin User</text></g><!--link StoreUser to Storefront--><g id="link_StoreUser_Storefront"><path d="M140,119.7483 C140,136.2783 140,155.8283 140,173.1383 " fill="none" id="StoreUser-to-Storefront" style="stroke:#181818;stroke-width:1.0;"/><polygon fill="#181818" points="140,177.8883,144,168.8883,140,172.8883,136,168.8883,140,177.8883" style="stroke:#181818;stroke-width:1.0;"/></g><!--link AdminUser to AdminDashboard--><g id="link_AdminUser_AdminDashboard"><path d="M316,119.7483 C316,136.2783 316,155.8283 316,173.1383 " fill="none" id="AdminUser-to-AdminDashboard" style="stroke:#181818;stroke-width:1.0;"/><polygon fill="#181818" points="316,177.8883,320,168.8883,316,172.8883,312,168.8883,316,177.8883" style="stroke:#181818;stroke-width:1.0;"/></g><!--link Storefront to API--><g id="link_Storefront_API"><path d="M161.65,259.2383 C173.54,280.6783 188.2,307.1083 199.85,328.1083 " fill="none" id="Storefront-to-API" style="stroke:#181818;stroke-width:1.0;"/><polygon fill="#181818" points="202.16,332.2783,201.3104,322.4661,199.7427,327.9014,194.3074,326.3338,202.16,332.2783" style="stroke:#181818;stroke-width:1.0;"/></g><!--link AdminDashboard to API--><g id="link_AdminDashboard_API"><path d="M290.02,259.2383 C275.69,280.7783 258.01,307.3283 244,328.3783 " fill="none" id="AdminDashboard-to-API" style="stroke:#181818;stroke-width:1.0;"/><polygon fill="#181818" points="241.36,332.3383,249.6805,327.0686,244.1335,328.178,243.0241,322.631,241.36,332.3383" style="stroke:#181818;stroke-width:1.0;"/></g><!--link API to Session--><g id="link_API_Session"><path d="M213.05,397.3883 C209.5,413.2083 205.11,432.7783 201.18,450.2683 " fill="none" id="API-to-Session" style="stroke:#181818;stroke-width:1.0;"/><polygon fill="#181818" points="200.09,455.1383,205.9471,447.2203,201.1747,450.2573,198.1376,445.4849,200.09,455.1383" style="stroke:#181818;stroke-width:1.0;"/></g><!--link API to ProductWorkflow--><g id="link_API_ProductWorkflow"><path d="M268.62,397.3883 C298.89,416.6583 337.87,441.4683 369.09,461.3383 " fill="none" id="API-to-ProductWorkflow" style="stroke:#181818;stroke-width:1.0;"/><polygon fill="#181818" points="373.15,463.9183,367.7099,455.7082,368.9335,461.2311,363.4105,462.4546,373.15,463.9183" style="stroke:#181818;stroke-width:1.0;"/></g><!--link API to OrderWorkflow--><g id="link_API_OrderWorkflow"><path d="M283.41,369.3283 C346.76,374.1883 445.73,387.2283 524,422.1683 C545.23,431.6483 565.99,446.8083 582.67,460.9083 " fill="none" id="API-to-OrderWorkflow" style="stroke:#181818;stroke-width:1.0;"/><polygon fill="#181818" points="586.11,463.8683,581.8991,454.965,582.3208,460.6061,576.6796,461.0278,586.11,463.8683" style="stroke:#181818;stroke-width:1.0;"/></g><!--link API to CustomerWorkflow--><g id="link_API_CustomerWorkflow"><path d="M283.06,369.7983 C397.87,376.5483 636.35,393.5783 714,422.1683 C738.48,431.1783 762.83,446.7983 782.29,461.3183 " fill="none" id="API-to-CustomerWorkflow" style="stroke:#181818;stroke-width:1.0;"/><polygon fill="#181818" points="785.92,464.0783,781.1545,455.4591,781.932,461.0623,776.3289,461.8399,785.92,464.0783" style="stroke:#181818;stroke-width:1.0;"/></g><!--link API to PaymentWorkflow--><g id="link_API_PaymentWorkflow"><path d="M283.42,367.1083 C434.82,369.4083 813.56,379.3883 932,422.1683 C955.96,430.8183 979.42,446.5783 997.98,461.2783 " fill="none" id="API-to-PaymentWorkflow" style="stroke:#181818;stroke-width:1.0;"/><polygon fill="#181818" points="1001.41,464.0483,996.9084,455.2884,997.5155,460.9126,991.8913,461.5197,1001.41,464.0483" style="stroke:#181818;stroke-width:1.0;"/></g><!--link ProductWorkflow to ProductModule--><g id="link_ProductWorkflow_ProductModule"><path d="M395.33,528.5983 C374.92,551.4083 347.12,582.4883 325.8,606.3183 " fill="none" id="ProductWorkflow-to-ProductModule" style="stroke:#181818;stroke-width:1.0;"/><polygon fill="#181818" points="322.64,609.8583,331.6253,605.8254,325.9769,606.1347,325.6676,600.4863,322.64,609.8583" style="stroke:#181818;stroke-width:1.0;"/></g><!--link OrderWorkflow to OrderModule--><g id="link_OrderWorkflow_OrderModule"><path d="M587.25,528.5983 C563.74,551.4983 531.68,582.7483 507.18,606.6183 " fill="none" id="OrderWorkflow-to-OrderModule" style="stroke:#181818;stroke-width:1.0;"/><polygon fill="#181818" points="503.78,609.9283,513.0215,606.5231,507.3652,606.4431,507.4452,600.7868,503.78,609.9283" style="stroke:#181818;stroke-width:1.0;"/></g><!--link CustomerWorkflow to CustomerModule--><g id="link_CustomerWorkflow_CustomerModule"><path d="M828.36,528.5983 C832.24,550.9283 837.48,581.1983 841.58,604.8183 " fill="none" id="CustomerWorkflow-to-CustomerModule" style="stroke:#181818;stroke-width:1.0;"/><polygon fill="#181818" points="842.39,609.4983,844.7888,599.946,841.5333,604.5722,836.9071,601.3167,842.39,609.4983" style="stroke:#181818;stroke-width:1.0;"/></g><!--link PaymentWorkflow to PaymentModule--><g id="link_PaymentWorkflow_PaymentModule"><path d="M1037.07,528.5983 C1037.84,550.8383 1038.89,580.9383 1039.7,604.5183 " fill="none" id="PaymentWorkflow-to-PaymentModule" style="stroke:#181818;stroke-width:1.0;"/><polygon fill="#181818" points="1039.88,609.4783,1043.5693,600.3465,1039.7087,604.4812,1035.574,600.6206,1039.88,609.4783" style="stroke:#181818;stroke-width:1.0;"/></g><!--link OrderWorkflow to InventoryModule--><g id="link_OrderWorkflow_InventoryModule"><path d="M626.29,528.5983 C631.56,550.9283 638.69,581.1983 644.26,604.8183 " fill="none" id="OrderWorkflow-to-InventoryModule" style="stroke:#181818;stroke-width:1.0;"/><polygon fill="#181818" points="645.37,609.5183,647.2086,599.8426,644.228,604.6504,639.4201,601.6698,645.37,609.5183" style="stroke:#181818;stroke-width:1.0;"/></g><!--link ProductModule to PostgreSQL--><g id="link_ProductModule_PostgreSQL"><path d="M335.39,674.6583 C350.53,684.1683 368.3,693.4283 386,698.3683 C410.27,705.1283 1270.22,695.5983 1293,706.3683 C1313.35,715.9783 1329.78,734.9483 1341.39,752.1483 " fill="none" id="ProductModule-to-PostgreSQL" style="stroke:#181818;stroke-width:1.0;"/><polygon fill="#181818" points="1344,756.1483,1342.4128,746.4282,1341.2595,751.9662,1335.7215,750.8129,1344,756.1483" style="stroke:#181818;stroke-width:1.0;"/></g><!--link OrderModule to PostgreSQL--><g id="link_OrderModule_PostgreSQL"><path d="M508.94,674.6083 C522.89,684.1183 539.37,693.3983 556,698.3683 C595.23,710.0883 1255.99,688.8383 1293,706.3683 C1313.34,715.9983 1329.76,734.9783 1341.38,752.1683 " fill="none" id="OrderModule-to-PostgreSQL" style="stroke:#181818;stroke-width:1.0;"/><polygon fill="#181818" points="1344,756.1683,1342.4361,746.4444,1341.2695,751.9797,1335.7343,750.8131,1344,756.1683" style="stroke:#181818;stroke-width:1.0;"/></g><!--link CustomerModule to PostgreSQL--><g id="link_CustomerModule_PostgreSQL"><path d="M893.37,674.8083 C909.58,684.2083 928.44,693.3583 947,698.3683 C984.13,708.3683 1258.35,689.6883 1293,706.3683 C1313.13,716.0483 1329.46,734.8183 1341.07,751.8883 " fill="none" id="CustomerModule-to-PostgreSQL" style="stroke:#181818;stroke-width:1.0;"/><polygon fill="#181818" points="1343.69,755.8483,1342.0876,746.1307,1340.943,751.6705,1335.4031,750.5259,1343.69,755.8483" style="stroke:#181818;stroke-width:1.0;"/></g><!--link PaymentModule to PostgreSQL--><g id="link_PaymentModule_PostgreSQL"><path d="M1098.75,674.7583 C1118.58,683.9683 1141.26,693.0283 1163,698.3683 C1191.11,705.2683 1267.16,693.3183 1293,706.3683 C1312.94,716.4283 1329.26,735.2283 1340.91,752.2083 " fill="none" id="PaymentModule-to-PostgreSQL" style="stroke:#181818;stroke-width:1.0;"/><polygon fill="#181818" points="1343.54,756.1483,1341.8528,746.445,1340.7566,751.9946,1335.207,750.8984,1343.54,756.1483" style="stroke:#181818;stroke-width:1.0;"/></g><!--link InventoryModule to PostgreSQL--><g id="link_InventoryModule_PostgreSQL"><path d="M696.87,674.6083 C712.85,684.1083 731.54,693.3883 750,698.3683 C779.13,706.2183 1265.76,693.3983 1293,706.3683 C1313.32,716.0383 1329.75,735.0183 1341.36,752.1983 " fill="none" id="InventoryModule-to-PostgreSQL" style="stroke:#181818;stroke-width:1.0;"/><polygon fill="#181818" points="1343.98,756.1983,1342.4008,746.4768,1341.243,752.0139,1335.7059,750.8561,1343.98,756.1983" style="stroke:#181818;stroke-width:1.0;"/></g><!--link ProductModule to Redis--><g id="link_ProductModule_Redis"><path d="M335.4,674.6383 C350.53,684.1483 368.3,693.4183 386,698.3683 C426.02,709.5583 1095.25,691.3483 1134,706.3683 C1154.94,714.4783 1174.14,729.8083 1189.46,744.9783 " fill="none" id="ProductModule-to-Redis" style="stroke:#181818;stroke-width:1.0;"/><polygon fill="#181818" points="1192.61,748.1683,1189.149,738.9476,1189.1032,744.6042,1183.4465,744.5584,1192.61,748.1683" style="stroke:#181818;stroke-width:1.0;"/></g><!--link OrderModule to Redis--><g id="link_OrderModule_Redis"><path d="M508.94,674.5883 C522.9,684.0883 539.38,693.3683 556,698.3683 C586.76,707.6083 1104.07,694.7083 1134,706.3683 C1154.92,714.5083 1174.13,729.8483 1189.44,745.0183 " fill="none" id="OrderModule-to-Redis" style="stroke:#181818;stroke-width:1.0;"/><polygon fill="#181818" points="1192.6,748.2083,1189.1202,738.9946,1189.086,744.6514,1183.4292,744.6171,1192.6,748.2083" style="stroke:#181818;stroke-width:1.0;"/></g><!--link ProductModule to ChannelModule--><g id="link_ProductModule_ChannelModule"><path d="M341,674.8483 C355.08,683.2583 370.82,691.8283 386,698.3683 C397.89,703.4783 402.36,700.6983 414,706.3683 C435.12,716.6483 456.46,730.9283 474.75,744.6483 " fill="none" id="ProductModule-to-ChannelModule" style="stroke:#181818;stroke-width:1.0;"/><polygon fill="#181818" points="478.62,747.5883,473.8741,738.9583,474.6389,744.5632,469.034,745.3281,478.62,747.5883" style="stroke:#181818;stroke-width:1.0;"/></g><!--link ProductModule to TranslationModule--><g id="link_ProductModule_TranslationModule"><path d="M297,674.7083 C298.92,694.3783 301.44,720.2083 303.58,742.1983 " fill="none" id="ProductModule-to-TranslationModule" style="stroke:#181818;stroke-width:1.0;"/><polygon fill="#181818" points="304.05,747.0883,307.1559,737.742,303.5638,742.112,299.1938,738.5199,304.05,747.0883" style="stroke:#181818;stroke-width:1.0;"/></g><!--link Content to TranslationModule--><g id="link_Content_TranslationModule"><path d="M139.12,674.7083 C169.81,695.2183 210.53,722.4383 244.29,745.0083 " fill="none" id="Content-to-TranslationModule" style="stroke:#181818;stroke-width:1.0;"/><polygon fill="#181818" points="248.39,747.7483,243.1401,739.4153,244.2363,744.9649,238.6867,746.0611,248.39,747.7483" style="stroke:#181818;stroke-width:1.0;"/></g><!--link MigrationTools to StatamicExtractor--><g id="link_MigrationTools_StatamicExtractor"><path d="M1406.36,397.3083 C1391.53,404.9883 1376.01,413.5083 1362,422.1683 C1343.06,433.8583 1323.12,448.0883 1306.07,460.8883 " fill="none" id="MigrationTools-to-StatamicExtractor" style="stroke:#181818;stroke-width:1.0;"/><polygon fill="#181818" points="1302.09,463.9083,1311.6811,461.6699,1306.078,460.8923,1306.8555,455.2891,1302.09,463.9083" style="stroke:#181818;stroke-width:1.0;"/></g><!--link MigrationTools to DataTransform--><g id="link_MigrationTools_DataTransform"><path d="M1471,397.3883 C1471,415.7683 1471,439.1883 1471,458.5583 " fill="none" id="MigrationTools-to-DataTransform" style="stroke:#181818;stroke-width:1.0;"/><polygon fill="#181818" points="1471,463.4383,1475,454.4383,1471,458.4383,1467,454.4383,1471,463.4383" style="stroke:#181818;stroke-width:1.0;"/></g><!--link MigrationTools to SaleorImporter--><g id="link_MigrationTools_SaleorImporter"><path d="M1545.5,390.5483 C1559.22,398.4383 1571.79,408.7483 1580,422.1683 C1612.06,474.5683 1607.52,505.4583 1580,560.3883 C1570.55,579.2483 1554.44,594.8583 1537.46,607.1983 " fill="none" id="MigrationTools-to-SaleorImporter" style="stroke:#181818;stroke-width:1.0;"/><polygon fill="#181818" points="1533.41,610.0483,1543.0765,608.1618,1537.5055,607.18,1538.4873,601.609,1533.41,610.0483" style="stroke:#181818;stroke-width:1.0;"/></g><!--link DataTransform to SaleorImporter--><g id="link_DataTransform_SaleorImporter"><path d="M1471,528.5983 C1471,550.8383 1471,580.9383 1471,604.5183 " fill="none" id="DataTransform-to-SaleorImporter" style="stroke:#181818;stroke-width:1.0;"/><polygon fill="#181818" points="1471,609.4783,1475,600.4783,1471,604.4783,1467,600.4783,1471,609.4783" style="stroke:#181818;stroke-width:1.0;"/></g><!--link SaleorImporter to PostgreSQL--><g id="link_SaleorImporter_PostgreSQL"><path d="M1447.4,674.7083 C1429.96,697.4983 1406.17,728.5783 1387.98,752.3483 " fill="none" id="SaleorImporter-to-PostgreSQL" style="stroke:#181818;stroke-width:1.0;"/><polygon fill="#181818" points="1385.1,756.1083,1393.7489,751.3969,1388.141,752.1393,1387.3986,746.5314,1385.1,756.1083" style="stroke:#181818;stroke-width:1.0;"/></g><!--SRC=[ZLLBSzem4BxhLsZe8Sc1bhnup6GoGmnkwP2M13evj3qejW0tnc8aqORfzBzNBykIx8HSOFpjxgVLQlVR8pZ2owp0aF5zZXbS4WenIjOmHtjC0NlAYYsYQ0CJijcI0XSS_WKGtg3aQKN9haWZaXDwTHNbcR1TNyDtSJyUn4FfGsYAQStUZNgNlL4Jnt0saGxZRdmUno61CNP6tN7S6Fr0wDCo9tzK3d7S6NT32j-Z5r-SDl7SadINOvF88Ew5B9Nzh1CD1hqcZX7YQCu9nQOWdVfzF9TkV74MDMOJaOANXUt4lL6Dnt7eHJUNf_t6EsKhYdX62dtrSNSygbtBTHdtpyVz2Fm3u0WkCfvZmEKldACSYmOPqcITSPpm7SLmbA6LR13PERUxd6VjUxmIF1_qnnGLgnrQOMWFaAJ3H5oT0IJ_O4lLOKd5JU0tXcaB8WOL9hzAfs6woOhAhZwLNT3fxe9JrRDRSNjvOCj5MwfjgoR-NftvepZ-Wf_v-r_ivASzMMTJzQqVh7CP8RP-98YcWi5KnaAQIlbPpALJfVsqMCp2f4MVQmWUVwHekxwRdjHoDmOeVFKn8iPCI719p9YeEBn5XI3VO7dPpm-BzYDYE8N37L_h6nktaaCbLqvBcA2FrtARKJ4V2RVXJ9rWK1lh3gCV_rNsP12ji3V4HZl6oQOMNi9lO9YXlQnIcBr6c-DLiRGeXALoqHSBfPtSAfcmIcgQAkI4AU10a2sD4rTY1qBBchY9QkX0uAJuBVu9tRkX5cmA3d9UewB0kTUznwx4w24pRWUIML1Ki5m949pljbj2AxPIepIVurddLAyjjLlBHFZYeKM_UYfGENAmDIEChoYUtqsLY5MVqDi8NimzJZCcSet4MiOdAav1GOZAp6m3fsIE7DPiTL7KAcOyTNLDbBDfd29KekwNmEAr8wm5BWZ9zNnPJ47GMqQXQWlsJPR0yJEdQZ4OoTQmHL_ZK0cgHnOhQwDS58d4BVng4hfAauri8cmoK5W91T7bqnHYPGg40RlSOBjzxImSOBUQClZh0m1dCodpR0A23LF2GAu4nQsbtNu7GcnnJs8j6YfdHUCh8W2Xm3jdwTa1leZRCusrfj7kySOdb64daHVF2EJ69cecMr7O8GIkaWQcG2m3go-8WJ6KlC3Sa9AQxres6crmznImmLvJD51ETRCL10EfcpGOiIOdRuGQMRmn0Vx8DJW4OnLKxZy0]--></g></svg>