<?xml version="1.0" encoding="us-ascii" standalone="no"?><svg xmlns="http://www.w3.org/2000/svg" xmlns:xlink="http://www.w3.org/1999/xlink" contentStyleType="text/css" height="1722px" preserveAspectRatio="none" style="width:1392px;height:1722px;background:#FFFFFF;" version="1.1" viewBox="0 0 1392 1722" width="1392px" zoomAndPan="magnify"><defs/><g><text fill="#000000" font-family="sans-serif" font-size="14" font-weight="bold" lengthAdjust="spacing" textLength="374" x="508" y="28.5352">Saleor Multi-Region and Multi-Language Data Flow</text><rect fill="#F8F9FA" height="530.5215" style="stroke:#6C757D;stroke-width:1.0;" width="10" x="284.5" y="150.2871"/><rect fill="#F8F9FA" height="426.9688" style="stroke:#6C757D;stroke-width:1.0;" width="10" x="284.5" y="710.1191"/><rect fill="#F8F9FA" height="457.5898" style="stroke:#6C757D;stroke-width:1.0;" width="10" x="284.5" y="1166.3984"/><rect fill="#F8F9FA" height="383.6582" style="stroke:#6C757D;stroke-width:1.0;" width="10" x="519.5" y="252.5293"/><rect fill="#F8F9FA" height="353.0371" style="stroke:#6C757D;stroke-width:1.0;" width="10" x="519.5" y="754.7402"/><rect fill="#F8F9FA" height="368.3477" style="stroke:#6C757D;stroke-width:1.0;" width="10" x="519.5" y="1211.0195"/><rect fill="#F8F9FA" height="309.7266" style="stroke:#6C757D;stroke-width:1.0;" width="10" x="751.5" y="297.1504"/><rect fill="#F8F9FA" height="294.416" style="stroke:#6C757D;stroke-width:1.0;" width="10" x="751.5" y="784.0508"/><rect fill="#F8F9FA" height="309.7266" style="stroke:#6C757D;stroke-width:1.0;" width="10" x="751.5" y="1240.3301"/><rect fill="#F8F9FA" height="87.9316" style="stroke:#6C757D;stroke-width:1.0;" width="10" x="1011.5" y="341.7715"/><rect fill="#F8F9FA" height="87.9316" style="stroke:#6C757D;stroke-width:1.0;" width="10" x="1011.5" y="813.3613"/><rect fill="#F8F9FA" height="87.9316" style="stroke:#6C757D;stroke-width:1.0;" width="10" x="1011.5" y="1284.9512"/><rect fill="#F8F9FA" height="87.9316" style="stroke:#6C757D;stroke-width:1.0;" width="10" x="1103" y="474.3242"/><rect fill="#F8F9FA" height="87.9316" style="stroke:#6C757D;stroke-width:1.0;" width="10" x="1103" y="945.9141"/><rect fill="#F8F9FA" height="29.3105" style="stroke:#6C757D;stroke-width:1.0;" width="10" x="1257" y="371.082"/><rect fill="#F8F9FA" height="29.3105" style="stroke:#6C757D;stroke-width:1.0;" width="10" x="1257" y="503.6348"/><rect fill="#F8F9FA" height="29.3105" style="stroke:#6C757D;stroke-width:1.0;" width="10" x="1257" y="842.6719"/><rect fill="#F8F9FA" height="29.3105" style="stroke:#6C757D;stroke-width:1.0;" width="10" x="1257" y="975.2246"/><rect fill="#F8F9FA" height="29.3105" style="stroke:#6C757D;stroke-width:1.0;" width="10" x="1257" y="1314.2617"/><rect fill="#F8F9FA" height="29.3105" style="stroke:#6C757D;stroke-width:1.0;" width="10" x="1257" y="1491.4355"/><rect fill="#F8F9FA" height="29.3105" style="stroke:#6C757D;stroke-width:1.0;" width="10" x="1345" y="1417.5039"/><line style="stroke:#6C757D;stroke-width:0.5;stroke-dasharray:5.0,5.0;" x1="41" x2="41" y1="118.9766" y2="1641.9883"/><line style="stroke:#6C757D;stroke-width:0.5;stroke-dasharray:5.0,5.0;" x1="289.5" x2="289.5" y1="118.9766" y2="1641.9883"/><line style="stroke:#6C757D;stroke-width:0.5;stroke-dasharray:5.0,5.0;" x1="524" x2="524" y1="118.9766" y2="1641.9883"/><line style="stroke:#6C757D;stroke-width:0.5;stroke-dasharray:5.0,5.0;" x1="756.5" x2="756.5" y1="118.9766" y2="1641.9883"/><line style="stroke:#6C757D;stroke-width:0.5;stroke-dasharray:5.0,5.0;" x1="1016" x2="1016" y1="118.9766" y2="1641.9883"/><line style="stroke:#6C757D;stroke-width:0.5;stroke-dasharray:5.0,5.0;" x1="1108" x2="1108" y1="118.9766" y2="1641.9883"/><line style="stroke:#6C757D;stroke-width:0.5;stroke-dasharray:5.0,5.0;" x1="1262" x2="1262" y1="118.9766" y2="1641.9883"/><line style="stroke:#6C757D;stroke-width:0.5;stroke-dasharray:5.0,5.0;" x1="1350" x2="1350" y1="118.9766" y2="1641.9883"/><text fill="#000000" font-family="sans-serif" font-size="14" lengthAdjust="spacing" textLength="67" x="5" y="116.0234">Customer</text><ellipse cx="41.5" cy="50.9883" fill="#F8F9FA" rx="8" ry="8" style="stroke:#6C757D;stroke-width:0.5;"/><path d="M41.5,58.9883 L41.5,85.9883 M28.5,66.9883 L54.5,66.9883 M41.5,85.9883 L28.5,100.9883 M41.5,85.9883 L54.5,100.9883 " fill="none" style="stroke:#6C757D;stroke-width:0.5;"/><text fill="#000000" font-family="sans-serif" font-size="14" lengthAdjust="spacing" textLength="67" x="5" y="1654.5234">Customer</text><ellipse cx="41.5" cy="1665.9766" fill="#F8F9FA" rx="8" ry="8" style="stroke:#6C757D;stroke-width:0.5;"/><path d="M41.5,1673.9766 L41.5,1700.9766 M28.5,1681.9766 L54.5,1681.9766 M41.5,1700.9766 L28.5,1715.9766 M41.5,1700.9766 L54.5,1715.9766 " fill="none" style="stroke:#6C757D;stroke-width:0.5;"/><rect fill="#F8F9FA" height="46.9766" rx="2.5" ry="2.5" style="stroke:#6C757D;stroke-width:0.5;" width="84" x="247.5" y="71"/><text fill="#000000" font-family="sans-serif" font-size="14" lengthAdjust="spacing" textLength="47" x="266" y="91.5352">Next.js</text><text fill="#000000" font-family="sans-serif" font-size="14" lengthAdjust="spacing" textLength="70" x="254.5" y="108.0234">Storefront</text><rect fill="#F8F9FA" height="46.9766" rx="2.5" ry="2.5" style="stroke:#6C757D;stroke-width:0.5;" width="84" x="247.5" y="1640.9883"/><text fill="#000000" font-family="sans-serif" font-size="14" lengthAdjust="spacing" textLength="47" x="266" y="1661.5234">Next.js</text><text fill="#000000" font-family="sans-serif" font-size="14" lengthAdjust="spacing" textLength="70" x="254.5" y="1678.0117">Storefront</text><rect fill="#F8F9FA" height="46.9766" rx="2.5" ry="2.5" style="stroke:#6C757D;stroke-width:0.5;" width="59" x="495" y="71"/><text fill="#000000" font-family="sans-serif" font-size="14" lengthAdjust="spacing" textLength="45" x="502" y="91.5352">Apollo</text><text fill="#000000" font-family="sans-serif" font-size="14" lengthAdjust="spacing" textLength="40" x="504.5" y="108.0234">Client</text><rect fill="#F8F9FA" height="46.9766" rx="2.5" ry="2.5" style="stroke:#6C757D;stroke-width:0.5;" width="59" x="495" y="1640.9883"/><text fill="#000000" font-family="sans-serif" font-size="14" lengthAdjust="spacing" textLength="45" x="502" y="1661.5234">Apollo</text><text fill="#000000" font-family="sans-serif" font-size="14" lengthAdjust="spacing" textLength="40" x="504.5" y="1678.0117">Client</text><rect fill="#F8F9FA" height="46.9766" rx="2.5" ry="2.5" style="stroke:#6C757D;stroke-width:0.5;" width="100" x="706.5" y="71"/><text fill="#000000" font-family="sans-serif" font-size="14" lengthAdjust="spacing" textLength="43" x="735" y="91.5352">Saleor</text><text fill="#000000" font-family="sans-serif" font-size="14" lengthAdjust="spacing" textLength="86" x="713.5" y="108.0234">GraphQL API</text><rect fill="#F8F9FA" height="46.9766" rx="2.5" ry="2.5" style="stroke:#6C757D;stroke-width:0.5;" width="100" x="706.5" y="1640.9883"/><text fill="#000000" font-family="sans-serif" font-size="14" lengthAdjust="spacing" textLength="43" x="735" y="1661.5234">Saleor</text><text fill="#000000" font-family="sans-serif" font-size="14" lengthAdjust="spacing" textLength="86" x="713.5" y="1678.0117">GraphQL API</text><rect fill="#F8F9FA" height="46.9766" rx="2.5" ry="2.5" style="stroke:#6C757D;stroke-width:0.5;" width="71" x="981" y="71"/><text fill="#000000" font-family="sans-serif" font-size="14" lengthAdjust="spacing" textLength="57" x="988" y="91.5352">Channel</text><text fill="#000000" font-family="sans-serif" font-size="14" lengthAdjust="spacing" textLength="48" x="992.5" y="108.0234">System</text><rect fill="#F8F9FA" height="46.9766" rx="2.5" ry="2.5" style="stroke:#6C757D;stroke-width:0.5;" width="71" x="981" y="1640.9883"/><text fill="#000000" font-family="sans-serif" font-size="14" lengthAdjust="spacing" textLength="57" x="988" y="1661.5234">Channel</text><text fill="#000000" font-family="sans-serif" font-size="14" lengthAdjust="spacing" textLength="48" x="992.5" y="1678.0117">System</text><rect fill="#F8F9FA" height="46.9766" rx="2.5" ry="2.5" style="stroke:#6C757D;stroke-width:0.5;" width="92" x="1062" y="71"/><text fill="#000000" font-family="sans-serif" font-size="14" lengthAdjust="spacing" textLength="78" x="1069" y="91.5352">Translation</text><text fill="#000000" font-family="sans-serif" font-size="14" lengthAdjust="spacing" textLength="48" x="1084" y="108.0234">System</text><rect fill="#F8F9FA" height="46.9766" rx="2.5" ry="2.5" style="stroke:#6C757D;stroke-width:0.5;" width="92" x="1062" y="1640.9883"/><text fill="#000000" font-family="sans-serif" font-size="14" lengthAdjust="spacing" textLength="78" x="1069" y="1661.5234">Translation</text><text fill="#000000" font-family="sans-serif" font-size="14" lengthAdjust="spacing" textLength="48" x="1084" y="1678.0117">System</text><text fill="#000000" font-family="sans-serif" font-size="14" lengthAdjust="spacing" textLength="78" x="1220" y="116.0234">PostgreSQL</text><path d="M1244,66.4883 C1244,56.4883 1262,56.4883 1262,56.4883 C1262,56.4883 1280,56.4883 1280,66.4883 L1280,92.4883 C1280,102.4883 1262,102.4883 1262,102.4883 C1262,102.4883 1244,102.4883 1244,92.4883 L1244,66.4883 " fill="#E2E2F0" style="stroke:#181818;stroke-width:1.5;"/><path d="M1244,66.4883 C1244,76.4883 1262,76.4883 1262,76.4883 C1262,76.4883 1280,76.4883 1280,66.4883 " fill="none" style="stroke:#181818;stroke-width:1.5;"/><text fill="#000000" font-family="sans-serif" font-size="14" lengthAdjust="spacing" textLength="78" x="1220" y="1654.5234">PostgreSQL</text><path d="M1244,1667.4766 C1244,1657.4766 1262,1657.4766 1262,1657.4766 C1262,1657.4766 1280,1657.4766 1280,1667.4766 L1280,1693.4766 C1280,1703.4766 1262,1703.4766 1262,1703.4766 C1262,1703.4766 1244,1703.4766 1244,1693.4766 L1244,1667.4766 " fill="#E2E2F0" style="stroke:#181818;stroke-width:1.5;"/><path d="M1244,1667.4766 C1244,1677.4766 1262,1677.4766 1262,1677.4766 C1262,1677.4766 1280,1677.4766 1280,1667.4766 " fill="none" style="stroke:#181818;stroke-width:1.5;"/><rect fill="#F8F9FA" height="46.9766" rx="2.5" ry="2.5" style="stroke:#6C757D;stroke-width:0.5;" width="72" x="1314" y="71"/><text fill="#000000" font-family="sans-serif" font-size="14" lengthAdjust="spacing" textLength="58" x="1321" y="91.5352">Payment</text><text fill="#000000" font-family="sans-serif" font-size="14" lengthAdjust="spacing" textLength="57" x="1321.5" y="108.0234">Provider</text><rect fill="#F8F9FA" height="46.9766" rx="2.5" ry="2.5" style="stroke:#6C757D;stroke-width:0.5;" width="72" x="1314" y="1640.9883"/><text fill="#000000" font-family="sans-serif" font-size="14" lengthAdjust="spacing" textLength="58" x="1321" y="1661.5234">Payment</text><text fill="#000000" font-family="sans-serif" font-size="14" lengthAdjust="spacing" textLength="57" x="1321.5" y="1678.0117">Provider</text><rect fill="#F8F9FA" height="530.5215" style="stroke:#6C757D;stroke-width:1.0;" width="10" x="284.5" y="150.2871"/><rect fill="#F8F9FA" height="426.9688" style="stroke:#6C757D;stroke-width:1.0;" width="10" x="284.5" y="710.1191"/><rect fill="#F8F9FA" height="457.5898" style="stroke:#6C757D;stroke-width:1.0;" width="10" x="284.5" y="1166.3984"/><rect fill="#F8F9FA" height="383.6582" style="stroke:#6C757D;stroke-width:1.0;" width="10" x="519.5" y="252.5293"/><rect fill="#F8F9FA" height="353.0371" style="stroke:#6C757D;stroke-width:1.0;" width="10" x="519.5" y="754.7402"/><rect fill="#F8F9FA" height="368.3477" style="stroke:#6C757D;stroke-width:1.0;" width="10" x="519.5" y="1211.0195"/><rect fill="#F8F9FA" height="309.7266" style="stroke:#6C757D;stroke-width:1.0;" width="10" x="751.5" y="297.1504"/><rect fill="#F8F9FA" height="294.416" style="stroke:#6C757D;stroke-width:1.0;" width="10" x="751.5" y="784.0508"/><rect fill="#F8F9FA" height="309.7266" style="stroke:#6C757D;stroke-width:1.0;" width="10" x="751.5" y="1240.3301"/><rect fill="#F8F9FA" height="87.9316" style="stroke:#6C757D;stroke-width:1.0;" width="10" x="1011.5" y="341.7715"/><rect fill="#F8F9FA" height="87.9316" style="stroke:#6C757D;stroke-width:1.0;" width="10" x="1011.5" y="813.3613"/><rect fill="#F8F9FA" height="87.9316" style="stroke:#6C757D;stroke-width:1.0;" width="10" x="1011.5" y="1284.9512"/><rect fill="#F8F9FA" height="87.9316" style="stroke:#6C757D;stroke-width:1.0;" width="10" x="1103" y="474.3242"/><rect fill="#F8F9FA" height="87.9316" style="stroke:#6C757D;stroke-width:1.0;" width="10" x="1103" y="945.9141"/><rect fill="#F8F9FA" height="29.3105" style="stroke:#6C757D;stroke-width:1.0;" width="10" x="1257" y="371.082"/><rect fill="#F8F9FA" height="29.3105" style="stroke:#6C757D;stroke-width:1.0;" width="10" x="1257" y="503.6348"/><rect fill="#F8F9FA" height="29.3105" style="stroke:#6C757D;stroke-width:1.0;" width="10" x="1257" y="842.6719"/><rect fill="#F8F9FA" height="29.3105" style="stroke:#6C757D;stroke-width:1.0;" width="10" x="1257" y="975.2246"/><rect fill="#F8F9FA" height="29.3105" style="stroke:#6C757D;stroke-width:1.0;" width="10" x="1257" y="1314.2617"/><rect fill="#F8F9FA" height="29.3105" style="stroke:#6C757D;stroke-width:1.0;" width="10" x="1257" y="1491.4355"/><rect fill="#F8F9FA" height="29.3105" style="stroke:#6C757D;stroke-width:1.0;" width="10" x="1345" y="1417.5039"/><polygon fill="#0D6EFD" points="272.5,146.2871,282.5,150.2871,272.5,154.2871,276.5,150.2871" style="stroke:#0D6EFD;stroke-width:1.0;"/><line style="stroke:#0D6EFD;stroke-width:1.0;" x1="41.5" x2="278.5" y1="150.2871" y2="150.2871"/><text fill="#000000" font-family="sans-serif" font-size="13" lengthAdjust="spacing" textLength="224" x="48.5" y="145.5449">Visit website (domain-specific URL)</text><line style="stroke:#0D6EFD;stroke-width:1.0;" x1="294.5" x2="336.5" y1="194.9082" y2="194.9082"/><line style="stroke:#0D6EFD;stroke-width:1.0;" x1="336.5" x2="336.5" y1="194.9082" y2="207.9082"/><line style="stroke:#0D6EFD;stroke-width:1.0;" x1="295.5" x2="336.5" y1="207.9082" y2="207.9082"/><polygon fill="#0D6EFD" points="305.5,203.9082,295.5,207.9082,305.5,211.9082,301.5,207.9082" style="stroke:#0D6EFD;stroke-width:1.0;"/><text fill="#000000" font-family="sans-serif" font-size="13" lengthAdjust="spacing" textLength="159" x="301.5" y="174.8555">Detect region &amp; language</text><text fill="#000000" font-family="sans-serif" font-size="13" lengthAdjust="spacing" textLength="137" x="301.5" y="190.166">from domain/cookies</text><polygon fill="#0D6EFD" points="507.5,248.5293,517.5,252.5293,507.5,256.5293,511.5,252.5293" style="stroke:#0D6EFD;stroke-width:1.0;"/><line style="stroke:#0D6EFD;stroke-width:1.0;" x1="294.5" x2="513.5" y1="252.5293" y2="252.5293"/><text fill="#000000" font-family="sans-serif" font-size="13" lengthAdjust="spacing" textLength="110" x="301.5" y="232.4766">Request products</text><text fill="#000000" font-family="sans-serif" font-size="13" lengthAdjust="spacing" textLength="206" x="301.5" y="247.7871">with channel &amp; language context</text><polygon fill="#0D6EFD" points="739.5,293.1504,749.5,297.1504,739.5,301.1504,743.5,297.1504" style="stroke:#0D6EFD;stroke-width:1.0;"/><line style="stroke:#0D6EFD;stroke-width:1.0;" x1="529.5" x2="745.5" y1="297.1504" y2="297.1504"/><text fill="#000000" font-family="sans-serif" font-size="13" lengthAdjust="spacing" textLength="126" x="536.5" y="277.0977">GraphQL Query with</text><text fill="#000000" font-family="sans-serif" font-size="13" lengthAdjust="spacing" textLength="197" x="536.5" y="292.4082">channel &amp; language parameters</text><polygon fill="#0D6EFD" points="999.5,337.7715,1009.5,341.7715,999.5,345.7715,1003.5,341.7715" style="stroke:#0D6EFD;stroke-width:1.0;"/><line style="stroke:#0D6EFD;stroke-width:1.0;" x1="761.5" x2="1005.5" y1="341.7715" y2="341.7715"/><text fill="#000000" font-family="sans-serif" font-size="13" lengthAdjust="spacing" textLength="162" x="768.5" y="321.7188">Get channel-specific data</text><text fill="#000000" font-family="sans-serif" font-size="13" lengthAdjust="spacing" textLength="128" x="768.5" y="337.0293">(pricing, availability)</text><polygon fill="#0D6EFD" points="1245,367.082,1255,371.082,1245,375.082,1249,371.082" style="stroke:#0D6EFD;stroke-width:1.0;"/><line style="stroke:#0D6EFD;stroke-width:1.0;" x1="1021.5" x2="1251" y1="371.082" y2="371.082"/><text fill="#000000" font-family="sans-serif" font-size="13" lengthAdjust="spacing" textLength="155" x="1028.5" y="366.3398">Query with channel filter</text><polygon fill="#0D6EFD" points="1032.5,396.3926,1022.5,400.3926,1032.5,404.3926,1028.5,400.3926" style="stroke:#0D6EFD;stroke-width:1.0;"/><line style="stroke:#0D6EFD;stroke-width:1.0;stroke-dasharray:2.0,2.0;" x1="1026.5" x2="1261" y1="400.3926" y2="400.3926"/><text fill="#000000" font-family="sans-serif" font-size="13" lengthAdjust="spacing" textLength="72" x="1038.5" y="395.6504">Return data</text><polygon fill="#0D6EFD" points="772.5,425.7031,762.5,429.7031,772.5,433.7031,768.5,429.7031" style="stroke:#0D6EFD;stroke-width:1.0;"/><line style="stroke:#0D6EFD;stroke-width:1.0;stroke-dasharray:2.0,2.0;" x1="766.5" x2="1015.5" y1="429.7031" y2="429.7031"/><text fill="#000000" font-family="sans-serif" font-size="13" lengthAdjust="spacing" textLength="168" x="778.5" y="424.9609">Channel-specific products</text><polygon fill="#0D6EFD" points="1091,470.3242,1101,474.3242,1091,478.3242,1095,474.3242" style="stroke:#0D6EFD;stroke-width:1.0;"/><line style="stroke:#0D6EFD;stroke-width:1.0;" x1="761.5" x2="1097" y1="474.3242" y2="474.3242"/><text fill="#000000" font-family="sans-serif" font-size="13" lengthAdjust="spacing" textLength="122" x="768.5" y="454.2715">Get translations for</text><text fill="#000000" font-family="sans-serif" font-size="13" lengthAdjust="spacing" textLength="113" x="768.5" y="469.582">selected language</text><polygon fill="#0D6EFD" points="1245,499.6348,1255,503.6348,1245,507.6348,1249,503.6348" style="stroke:#0D6EFD;stroke-width:1.0;"/><line style="stroke:#0D6EFD;stroke-width:1.0;" x1="1113" x2="1251" y1="503.6348" y2="503.6348"/><text fill="#000000" font-family="sans-serif" font-size="13" lengthAdjust="spacing" textLength="116" x="1120" y="498.8926">Query translations</text><polygon fill="#0D6EFD" points="1124,528.9453,1114,532.9453,1124,536.9453,1120,532.9453" style="stroke:#0D6EFD;stroke-width:1.0;"/><line style="stroke:#0D6EFD;stroke-width:1.0;stroke-dasharray:2.0,2.0;" x1="1118" x2="1261" y1="532.9453" y2="532.9453"/><text fill="#000000" font-family="sans-serif" font-size="13" lengthAdjust="spacing" textLength="120" x="1130" y="528.2031">Return translations</text><polygon fill="#0D6EFD" points="772.5,558.2559,762.5,562.2559,772.5,566.2559,768.5,562.2559" style="stroke:#0D6EFD;stroke-width:1.0;"/><line style="stroke:#0D6EFD;stroke-width:1.0;stroke-dasharray:2.0,2.0;" x1="766.5" x2="1107" y1="562.2559" y2="562.2559"/><text fill="#000000" font-family="sans-serif" font-size="13" lengthAdjust="spacing" textLength="118" x="778.5" y="557.5137">Translated content</text><polygon fill="#0D6EFD" points="540.5,602.877,530.5,606.877,540.5,610.877,536.5,606.877" style="stroke:#0D6EFD;stroke-width:1.0;"/><line style="stroke:#0D6EFD;stroke-width:1.0;stroke-dasharray:2.0,2.0;" x1="534.5" x2="755.5" y1="606.877" y2="606.877"/><text fill="#000000" font-family="sans-serif" font-size="13" lengthAdjust="spacing" textLength="149" x="546.5" y="586.8242">GraphQL Response with</text><text fill="#000000" font-family="sans-serif" font-size="13" lengthAdjust="spacing" textLength="198" x="546.5" y="602.1348">region &amp; language specific data</text><polygon fill="#0D6EFD" points="305.5,632.1875,295.5,636.1875,305.5,640.1875,301.5,636.1875" style="stroke:#0D6EFD;stroke-width:1.0;"/><line style="stroke:#0D6EFD;stroke-width:1.0;stroke-dasharray:2.0,2.0;" x1="299.5" x2="523.5" y1="636.1875" y2="636.1875"/><text fill="#000000" font-family="sans-serif" font-size="13" lengthAdjust="spacing" textLength="72" x="311.5" y="631.4453">Return data</text><polygon fill="#0D6EFD" points="52.5,676.8086,42.5,680.8086,52.5,684.8086,48.5,680.8086" style="stroke:#0D6EFD;stroke-width:1.0;"/><line style="stroke:#0D6EFD;stroke-width:1.0;stroke-dasharray:2.0,2.0;" x1="46.5" x2="288.5" y1="680.8086" y2="680.8086"/><text fill="#000000" font-family="sans-serif" font-size="13" lengthAdjust="spacing" textLength="137" x="58.5" y="660.7559">Render localized page</text><text fill="#000000" font-family="sans-serif" font-size="13" lengthAdjust="spacing" textLength="176" x="58.5" y="676.0664">with region-specific pricing</text><polygon fill="#0D6EFD" points="272.5,706.1191,282.5,710.1191,272.5,714.1191,276.5,710.1191" style="stroke:#0D6EFD;stroke-width:1.0;"/><line style="stroke:#0D6EFD;stroke-width:1.0;" x1="41.5" x2="278.5" y1="710.1191" y2="710.1191"/><text fill="#000000" font-family="sans-serif" font-size="13" lengthAdjust="spacing" textLength="123" x="48.5" y="705.377">Add product to cart</text><polygon fill="#0D6EFD" points="507.5,750.7402,517.5,754.7402,507.5,758.7402,511.5,754.7402" style="stroke:#0D6EFD;stroke-width:1.0;"/><line style="stroke:#0D6EFD;stroke-width:1.0;" x1="294.5" x2="513.5" y1="754.7402" y2="754.7402"/><text fill="#000000" font-family="sans-serif" font-size="13" lengthAdjust="spacing" textLength="119" x="301.5" y="734.6875">Create/Update cart</text><text fill="#000000" font-family="sans-serif" font-size="13" lengthAdjust="spacing" textLength="132" x="301.5" y="749.998">with channel context</text><polygon fill="#0D6EFD" points="739.5,780.0508,749.5,784.0508,739.5,788.0508,743.5,784.0508" style="stroke:#0D6EFD;stroke-width:1.0;"/><line style="stroke:#0D6EFD;stroke-width:1.0;" x1="529.5" x2="745.5" y1="784.0508" y2="784.0508"/><text fill="#000000" font-family="sans-serif" font-size="13" lengthAdjust="spacing" textLength="114" x="536.5" y="779.3086">GraphQL Mutation</text><polygon fill="#0D6EFD" points="999.5,809.3613,1009.5,813.3613,999.5,817.3613,1003.5,813.3613" style="stroke:#0D6EFD;stroke-width:1.0;"/><line style="stroke:#0D6EFD;stroke-width:1.0;" x1="761.5" x2="1005.5" y1="813.3613" y2="813.3613"/><text fill="#000000" font-family="sans-serif" font-size="13" lengthAdjust="spacing" textLength="189" x="768.5" y="808.6191">Create cart in channel context</text><polygon fill="#0D6EFD" points="1245,838.6719,1255,842.6719,1245,846.6719,1249,842.6719" style="stroke:#0D6EFD;stroke-width:1.0;"/><line style="stroke:#0D6EFD;stroke-width:1.0;" x1="1021.5" x2="1251" y1="842.6719" y2="842.6719"/><text fill="#000000" font-family="sans-serif" font-size="13" lengthAdjust="spacing" textLength="162" x="1028.5" y="837.9297">Store cart with channel ID</text><polygon fill="#0D6EFD" points="1032.5,867.9824,1022.5,871.9824,1032.5,875.9824,1028.5,871.9824" style="stroke:#0D6EFD;stroke-width:1.0;"/><line style="stroke:#0D6EFD;stroke-width:1.0;stroke-dasharray:2.0,2.0;" x1="1026.5" x2="1261" y1="871.9824" y2="871.9824"/><text fill="#000000" font-family="sans-serif" font-size="13" lengthAdjust="spacing" textLength="102" x="1038.5" y="867.2402">Confirm storage</text><polygon fill="#0D6EFD" points="772.5,897.293,762.5,901.293,772.5,905.293,768.5,901.293" style="stroke:#0D6EFD;stroke-width:1.0;"/><line style="stroke:#0D6EFD;stroke-width:1.0;stroke-dasharray:2.0,2.0;" x1="766.5" x2="1015.5" y1="901.293" y2="901.293"/><text fill="#000000" font-family="sans-serif" font-size="13" lengthAdjust="spacing" textLength="57" x="778.5" y="896.5508">Cart data</text><polygon fill="#0D6EFD" points="1091,941.9141,1101,945.9141,1091,949.9141,1095,945.9141" style="stroke:#0D6EFD;stroke-width:1.0;"/><line style="stroke:#0D6EFD;stroke-width:1.0;" x1="761.5" x2="1097" y1="945.9141" y2="945.9141"/><text fill="#000000" font-family="sans-serif" font-size="13" lengthAdjust="spacing" textLength="100" x="768.5" y="925.8613">Get translations</text><text fill="#000000" font-family="sans-serif" font-size="13" lengthAdjust="spacing" textLength="98" x="768.5" y="941.1719">for cart content</text><polygon fill="#0D6EFD" points="1245,971.2246,1255,975.2246,1245,979.2246,1249,975.2246" style="stroke:#0D6EFD;stroke-width:1.0;"/><line style="stroke:#0D6EFD;stroke-width:1.0;" x1="1113" x2="1251" y1="975.2246" y2="975.2246"/><text fill="#000000" font-family="sans-serif" font-size="13" lengthAdjust="spacing" textLength="116" x="1120" y="970.4824">Query translations</text><polygon fill="#0D6EFD" points="1124,1000.5352,1114,1004.5352,1124,1008.5352,1120,1004.5352" style="stroke:#0D6EFD;stroke-width:1.0;"/><line style="stroke:#0D6EFD;stroke-width:1.0;stroke-dasharray:2.0,2.0;" x1="1118" x2="1261" y1="1004.5352" y2="1004.5352"/><text fill="#000000" font-family="sans-serif" font-size="13" lengthAdjust="spacing" textLength="120" x="1130" y="999.793">Return translations</text><polygon fill="#0D6EFD" points="772.5,1029.8457,762.5,1033.8457,772.5,1037.8457,768.5,1033.8457" style="stroke:#0D6EFD;stroke-width:1.0;"/><line style="stroke:#0D6EFD;stroke-width:1.0;stroke-dasharray:2.0,2.0;" x1="766.5" x2="1107" y1="1033.8457" y2="1033.8457"/><text fill="#000000" font-family="sans-serif" font-size="13" lengthAdjust="spacing" textLength="146" x="778.5" y="1029.1035">Translated cart content</text><polygon fill="#0D6EFD" points="540.5,1074.4668,530.5,1078.4668,540.5,1082.4668,536.5,1078.4668" style="stroke:#0D6EFD;stroke-width:1.0;"/><line style="stroke:#0D6EFD;stroke-width:1.0;stroke-dasharray:2.0,2.0;" x1="534.5" x2="755.5" y1="1078.4668" y2="1078.4668"/><text fill="#000000" font-family="sans-serif" font-size="13" lengthAdjust="spacing" textLength="176" x="546.5" y="1058.4141">Cart with translated content</text><text fill="#000000" font-family="sans-serif" font-size="13" lengthAdjust="spacing" textLength="166" x="546.5" y="1073.7246">and region-specific prices</text><polygon fill="#0D6EFD" points="305.5,1103.7773,295.5,1107.7773,305.5,1111.7773,301.5,1107.7773" style="stroke:#0D6EFD;stroke-width:1.0;"/><line style="stroke:#0D6EFD;stroke-width:1.0;stroke-dasharray:2.0,2.0;" x1="299.5" x2="523.5" y1="1107.7773" y2="1107.7773"/><text fill="#000000" font-family="sans-serif" font-size="13" lengthAdjust="spacing" textLength="111" x="311.5" y="1103.0352">Updated cart data</text><polygon fill="#0D6EFD" points="52.5,1133.0879,42.5,1137.0879,52.5,1141.0879,48.5,1137.0879" style="stroke:#0D6EFD;stroke-width:1.0;"/><line style="stroke:#0D6EFD;stroke-width:1.0;stroke-dasharray:2.0,2.0;" x1="46.5" x2="288.5" y1="1137.0879" y2="1137.0879"/><text fill="#000000" font-family="sans-serif" font-size="13" lengthAdjust="spacing" textLength="130" x="58.5" y="1132.3457">Display updated cart</text><polygon fill="#0D6EFD" points="272.5,1162.3984,282.5,1166.3984,272.5,1170.3984,276.5,1166.3984" style="stroke:#0D6EFD;stroke-width:1.0;"/><line style="stroke:#0D6EFD;stroke-width:1.0;" x1="41.5" x2="278.5" y1="1166.3984" y2="1166.3984"/><text fill="#000000" font-family="sans-serif" font-size="13" lengthAdjust="spacing" textLength="128" x="48.5" y="1161.6563">Proceed to checkout</text><polygon fill="#0D6EFD" points="507.5,1207.0195,517.5,1211.0195,507.5,1215.0195,511.5,1211.0195" style="stroke:#0D6EFD;stroke-width:1.0;"/><line style="stroke:#0D6EFD;stroke-width:1.0;" x1="294.5" x2="513.5" y1="1211.0195" y2="1211.0195"/><text fill="#000000" font-family="sans-serif" font-size="13" lengthAdjust="spacing" textLength="102" x="301.5" y="1190.9668">Create checkout</text><text fill="#000000" font-family="sans-serif" font-size="13" lengthAdjust="spacing" textLength="132" x="301.5" y="1206.2773">with channel context</text><polygon fill="#0D6EFD" points="739.5,1236.3301,749.5,1240.3301,739.5,1244.3301,743.5,1240.3301" style="stroke:#0D6EFD;stroke-width:1.0;"/><line style="stroke:#0D6EFD;stroke-width:1.0;" x1="529.5" x2="745.5" y1="1240.3301" y2="1240.3301"/><text fill="#000000" font-family="sans-serif" font-size="13" lengthAdjust="spacing" textLength="114" x="536.5" y="1235.5879">GraphQL Mutation</text><polygon fill="#0D6EFD" points="999.5,1280.9512,1009.5,1284.9512,999.5,1288.9512,1003.5,1284.9512" style="stroke:#0D6EFD;stroke-width:1.0;"/><line style="stroke:#0D6EFD;stroke-width:1.0;" x1="761.5" x2="1005.5" y1="1284.9512" y2="1284.9512"/><text fill="#000000" font-family="sans-serif" font-size="13" lengthAdjust="spacing" textLength="231" x="768.5" y="1264.8984">Process checkout in channel context</text><text fill="#000000" font-family="sans-serif" font-size="13" lengthAdjust="spacing" textLength="206" x="768.5" y="1280.209">(region-specific shipping, taxes)</text><polygon fill="#0D6EFD" points="1245,1310.2617,1255,1314.2617,1245,1318.2617,1249,1314.2617" style="stroke:#0D6EFD;stroke-width:1.0;"/><line style="stroke:#0D6EFD;stroke-width:1.0;" x1="1021.5" x2="1251" y1="1314.2617" y2="1314.2617"/><text fill="#000000" font-family="sans-serif" font-size="13" lengthAdjust="spacing" textLength="209" x="1028.5" y="1309.5195">Store checkout with channel data</text><polygon fill="#0D6EFD" points="1032.5,1339.5723,1022.5,1343.5723,1032.5,1347.5723,1028.5,1343.5723" style="stroke:#0D6EFD;stroke-width:1.0;"/><line style="stroke:#0D6EFD;stroke-width:1.0;stroke-dasharray:2.0,2.0;" x1="1026.5" x2="1261" y1="1343.5723" y2="1343.5723"/><text fill="#000000" font-family="sans-serif" font-size="13" lengthAdjust="spacing" textLength="102" x="1038.5" y="1338.8301">Confirm storage</text><polygon fill="#0D6EFD" points="772.5,1368.8828,762.5,1372.8828,772.5,1376.8828,768.5,1372.8828" style="stroke:#0D6EFD;stroke-width:1.0;"/><line style="stroke:#0D6EFD;stroke-width:1.0;stroke-dasharray:2.0,2.0;" x1="766.5" x2="1015.5" y1="1372.8828" y2="1372.8828"/><text fill="#000000" font-family="sans-serif" font-size="13" lengthAdjust="spacing" textLength="91" x="778.5" y="1368.1406">Checkout data</text><polygon fill="#0D6EFD" points="1333,1413.5039,1343,1417.5039,1333,1421.5039,1337,1417.5039" style="stroke:#0D6EFD;stroke-width:1.0;"/><line style="stroke:#0D6EFD;stroke-width:1.0;" x1="761.5" x2="1339" y1="1417.5039" y2="1417.5039"/><text fill="#000000" font-family="sans-serif" font-size="13" lengthAdjust="spacing" textLength="106" x="768.5" y="1397.4512">Process payment</text><text fill="#000000" font-family="sans-serif" font-size="13" lengthAdjust="spacing" textLength="219" x="768.5" y="1412.7617">(region-specific payment provider)</text><polygon fill="#0D6EFD" points="772.5,1442.8145,762.5,1446.8145,772.5,1450.8145,768.5,1446.8145" style="stroke:#0D6EFD;stroke-width:1.0;"/><line style="stroke:#0D6EFD;stroke-width:1.0;stroke-dasharray:2.0,2.0;" x1="766.5" x2="1349" y1="1446.8145" y2="1446.8145"/><text fill="#000000" font-family="sans-serif" font-size="13" lengthAdjust="spacing" textLength="138" x="778.5" y="1442.0723">Payment confirmation</text><polygon fill="#0D6EFD" points="1245,1487.4355,1255,1491.4355,1245,1495.4355,1249,1491.4355" style="stroke:#0D6EFD;stroke-width:1.0;"/><line style="stroke:#0D6EFD;stroke-width:1.0;" x1="761.5" x2="1251" y1="1491.4355" y2="1491.4355"/><text fill="#000000" font-family="sans-serif" font-size="13" lengthAdjust="spacing" textLength="108" x="768.5" y="1471.3828">Create order with</text><text fill="#000000" font-family="sans-serif" font-size="13" lengthAdjust="spacing" textLength="101" x="768.5" y="1486.6934">channel context</text><polygon fill="#0D6EFD" points="772.5,1516.7461,762.5,1520.7461,772.5,1524.7461,768.5,1520.7461" style="stroke:#0D6EFD;stroke-width:1.0;"/><line style="stroke:#0D6EFD;stroke-width:1.0;stroke-dasharray:2.0,2.0;" x1="766.5" x2="1261" y1="1520.7461" y2="1520.7461"/><text fill="#000000" font-family="sans-serif" font-size="13" lengthAdjust="spacing" textLength="120" x="778.5" y="1516.0039">Order confirmation</text><polygon fill="#0D6EFD" points="540.5,1546.0566,530.5,1550.0566,540.5,1554.0566,536.5,1550.0566" style="stroke:#0D6EFD;stroke-width:1.0;"/><line style="stroke:#0D6EFD;stroke-width:1.0;stroke-dasharray:2.0,2.0;" x1="534.5" x2="755.5" y1="1550.0566" y2="1550.0566"/><text fill="#000000" font-family="sans-serif" font-size="13" lengthAdjust="spacing" textLength="66" x="546.5" y="1545.3145">Order data</text><polygon fill="#0D6EFD" points="305.5,1575.3672,295.5,1579.3672,305.5,1583.3672,301.5,1579.3672" style="stroke:#0D6EFD;stroke-width:1.0;"/><line style="stroke:#0D6EFD;stroke-width:1.0;stroke-dasharray:2.0,2.0;" x1="299.5" x2="523.5" y1="1579.3672" y2="1579.3672"/><text fill="#000000" font-family="sans-serif" font-size="13" lengthAdjust="spacing" textLength="120" x="311.5" y="1574.625">Order confirmation</text><polygon fill="#0D6EFD" points="52.5,1619.9883,42.5,1623.9883,52.5,1627.9883,48.5,1623.9883" style="stroke:#0D6EFD;stroke-width:1.0;"/><line style="stroke:#0D6EFD;stroke-width:1.0;stroke-dasharray:2.0,2.0;" x1="46.5" x2="288.5" y1="1623.9883" y2="1623.9883"/><text fill="#000000" font-family="sans-serif" font-size="13" lengthAdjust="spacing" textLength="169" x="58.5" y="1603.9355">Display order confirmation</text><text fill="#000000" font-family="sans-serif" font-size="13" lengthAdjust="spacing" textLength="146" x="58.5" y="1619.2461">in customer's language</text><!--SRC=[pLRRRXit47tVhnYuG9q0TTEN9eqV2iYxLM50QMKvwPDUwDsHn9eYjoJNZbhqtpkyQRcwE19G50K4hSITovcPSqXUGeKBBX6CtGWqXNdaicMQhS7W7ntA6k6l0c2ajNekbL0QllgkUllJkAB52L_WX7nlb6vGnxTlotVVlnkyPVNZKgjEDj5Y_CFu_NX45lIPCcrvpLicxU4ekS5BWKQrLVfmYF3gYFFVHM6v5GZtJ22jV-Y4vLSpN78bWSacBaoON7PiYL0nos0ir7DHC1SNBihEMBL6VG7CGFfJj3rkkFW5FzjlVpTpUKyUkD1AMc_T_ntQZrebX9hBKd2Cfc5fQ1OWp-NFchMhkmcCfhV1TdexD2nNJ4eKb7zZBAu3qh0sDFoecJI2MIf-O9oj5mrru84PX8kfCdQfyVvkuesgcs6mATki2VvSJhLwuatiK5mjYakubTno9g1rZHMADKLg7rpzc3Nd6dxZXbjunWTw8Bngr9fnUMLQhFc2r_1fDddjni6V6BtEkbhqltT3LcYnjg33fBy64ISybsImXf3YJQtK8oTP3EE4OLp3p4d4M6YrQhhQqe2VkLr17LgR1OMQF8a4FSWupo8yVT3fxJMaKTvrg3VWeitbWN1UeLI0Dbb4cdf1NovM72x5GvlWzEro4vpBLwscKSdbDy2U61ViWGjkDraV4qFYqyMjRgupQDj25rmGbjwJc53Tm5KEP8QsqzAdBXhCBRVXKm_ANRoflRbZ0fSgpXWQghRzWe65aub1GHF7Pjl67d3Ex-ptiEGyug5Q1n1YlGEVOTs3FAdsj4WeFMM8mvbN3ZCKdf4nKMU6fgLi6DcpHt0Oy20F7nWK2RaZboFpIpJEzU767dNi_2GfdzHTCy7_fB9Qhp5Fdm0jdxCdP1u_r_8bZ9e6h8AQTfcZMuMpYOJPsfwmDQGkbXh9yCsdjd7spdj7rESg-KDdmy1U5ch8wnC2byUp7H6bBoPu3z3ULY-gibHomJMTzUJk1F4bPRhuknGuIucqkzAPwN4cVl-_HPWZFLM9vNOCTa_ES-ak5OUOZ-PKBGPoHd1dAxBYfXLi0rqMvRZaoXNMZwexhZSwt6l4eCjaUxRUjgx_ZTWyPcEsMGyeZix7tI6P5MzRVs1QzXdDwrD5cP8CAlDZ-pUbcR9yIPxn_jKteKtNjBs2unktdVhxMrPnkiN5PuyZBTG1VhmoufvZWkFw53dWB-yxTvuz0lITykb-zJx7af7ndZY3npb7tyivJjQRsWipbuvtqV3IzFUImshy1m00]--></g></svg>