<?xml version="1.0" encoding="us-ascii" standalone="no"?><svg xmlns="http://www.w3.org/2000/svg" xmlns:xlink="http://www.w3.org/1999/xlink" contentStyleType="text/css" height="1409px" preserveAspectRatio="none" style="width:706px;height:1409px;background:#FFFFFF;" version="1.1" viewBox="0 0 706 1409" width="706px" zoomAndPan="magnify"><defs/><g><text fill="#000000" font-family="sans-serif" font-size="14" font-weight="bold" lengthAdjust="spacing" textLength="304" x="194" y="23.5352">Statamic to Saleor Data Migration Process</text><!--cluster Source: Statamic--><g id="cluster_Source: Statamic"><path d="M209,43.4883 L327,43.4883 A3.75,3.75 0 0 1 329.5,45.9883 L336.5,65.9766 L567,65.9766 A2.5,2.5 0 0 1 569.5,68.4766 L569.5,244.9583 A2.5,2.5 0 0 1 567,247.4583 L209,247.4583 A2.5,2.5 0 0 1 206.5,244.9583 L206.5,45.9883 A2.5,2.5 0 0 1 209,43.4883 " fill="none" style="stroke:#000000;stroke-width:1.5;"/><line style="stroke:#000000;stroke-width:1.5;" x1="206.5" x2="336.5" y1="65.9766" y2="65.9766"/><text fill="#000000" font-family="sans-serif" font-size="14" font-weight="bold" lengthAdjust="spacing" textLength="117" x="210.5" y="59.0234">Source: Statamic</text></g><!--cluster Migration Tools--><g id="cluster_Migration Tools"><path d="M234,296.4583 L351,296.4583 A3.75,3.75 0 0 1 353.5,298.9583 L360.5,318.9466 L443,318.9466 A2.5,2.5 0 0 1 445.5,321.4466 L445.5,1037.2183 A2.5,2.5 0 0 1 443,1039.7183 L234,1039.7183 A2.5,2.5 0 0 1 231.5,1037.2183 L231.5,298.9583 A2.5,2.5 0 0 1 234,296.4583 " fill="none" style="stroke:#000000;stroke-width:1.5;"/><line style="stroke:#000000;stroke-width:1.5;" x1="231.5" x2="360.5" y1="318.9466" y2="318.9466"/><text fill="#000000" font-family="sans-serif" font-size="14" font-weight="bold" lengthAdjust="spacing" textLength="116" x="235.5" y="311.9934">Migration Tools</text></g><!--cluster Target: Saleor--><g id="cluster_Target: Saleor"><path d="M183,1091.4483 L283,1091.4483 A3.75,3.75 0 0 1 285.5,1093.9483 L292.5,1113.9366 L605,1113.9366 A2.5,2.5 0 0 1 607.5,1116.4366 L607.5,1400.4083 A2.5,2.5 0 0 1 605,1402.9083 L183,1402.9083 A2.5,2.5 0 0 1 180.5,1400.4083 L180.5,1093.9483 A2.5,2.5 0 0 1 183,1091.4483 " fill="none" style="stroke:#000000;stroke-width:1.5;"/><line style="stroke:#000000;stroke-width:1.5;" x1="180.5" x2="292.5" y1="1113.9366" y2="1113.9366"/><text fill="#000000" font-family="sans-serif" font-size="14" font-weight="bold" lengthAdjust="spacing" textLength="99" x="184.5" y="1106.9834">Target: Saleor</text></g><!--entity StatamicCMS--><g id="elem_StatamicCMS"><rect fill="#F8F9FA" height="46.4883" rx="2.5" ry="2.5" style="stroke:#6C757D;stroke-width:0.5;" width="132" x="222.5" y="78.4883"/><rect fill="#F8F9FA" height="10" style="stroke:#6C757D;stroke-width:0.5;" width="15" x="334.5" y="83.4883"/><rect fill="#F8F9FA" height="2" style="stroke:#6C757D;stroke-width:0.5;" width="4" x="332.5" y="85.4883"/><rect fill="#F8F9FA" height="2" style="stroke:#6C757D;stroke-width:0.5;" width="4" x="332.5" y="89.4883"/><text fill="#000000" font-family="sans-serif" font-size="14" lengthAdjust="spacing" textLength="92" x="237.5" y="112.0234">Statamic CMS</text></g><!--entity SimpleCommerce--><g id="elem_SimpleCommerce"><rect fill="#F8F9FA" height="46.4883" rx="2.5" ry="2.5" style="stroke:#6C757D;stroke-width:0.5;" width="164" x="389.5" y="78.4883"/><rect fill="#F8F9FA" height="10" style="stroke:#6C757D;stroke-width:0.5;" width="15" x="533.5" y="83.4883"/><rect fill="#F8F9FA" height="2" style="stroke:#6C757D;stroke-width:0.5;" width="4" x="531.5" y="85.4883"/><rect fill="#F8F9FA" height="2" style="stroke:#6C757D;stroke-width:0.5;" width="4" x="531.5" y="89.4883"/><text fill="#000000" font-family="sans-serif" font-size="14" lengthAdjust="spacing" textLength="124" x="404.5" y="112.0234">Simple Commerce</text></g><!--entity StatamicFiles--><g id="elem_StatamicFiles"><path d="M266,195.9783 C266,185.9783 322.5,185.9783 322.5,185.9783 C322.5,185.9783 379,185.9783 379,195.9783 L379,221.4666 C379,231.4666 322.5,231.4666 322.5,231.4666 C322.5,231.4666 266,231.4666 266,221.4666 L266,195.9783 " fill="#F8F0FF" style="stroke:#6F42C1;stroke-width:0.5;"/><path d="M266,195.9783 C266,205.9783 322.5,205.9783 322.5,205.9783 C322.5,205.9783 379,205.9783 379,195.9783 " fill="none" style="stroke:#6F42C1;stroke-width:0.5;"/><text fill="#000000" font-family="sans-serif" font-size="14" lengthAdjust="spacing" textLength="93" x="276" y="223.5134">Statamic Files</text></g><!--entity Extractor--><g id="elem_Extractor"><rect fill="#F8F9FA" height="46.4883" rx="2.5" ry="2.5" style="stroke:#6C757D;stroke-width:0.5;" width="138" x="253.5" y="331.4583"/><rect fill="#F8F9FA" height="10" style="stroke:#6C757D;stroke-width:0.5;" width="15" x="371.5" y="336.4583"/><rect fill="#F8F9FA" height="2" style="stroke:#6C757D;stroke-width:0.5;" width="4" x="369.5" y="338.4583"/><rect fill="#F8F9FA" height="2" style="stroke:#6C757D;stroke-width:0.5;" width="4" x="369.5" y="342.4583"/><text fill="#000000" font-family="sans-serif" font-size="14" lengthAdjust="spacing" textLength="98" x="268.5" y="364.9934">Data Extractor</text></g><!--entity SchemaMapper--><g id="elem_SchemaMapper"><rect fill="#F8F9FA" height="46.4883" rx="2.5" ry="2.5" style="stroke:#6C757D;stroke-width:0.5;" width="149" x="252" y="459.6683"/><rect fill="#F8F9FA" height="10" style="stroke:#6C757D;stroke-width:0.5;" width="15" x="381" y="464.6683"/><rect fill="#F8F9FA" height="2" style="stroke:#6C757D;stroke-width:0.5;" width="4" x="379" y="466.6683"/><rect fill="#F8F9FA" height="2" style="stroke:#6C757D;stroke-width:0.5;" width="4" x="379" y="470.6683"/><text fill="#000000" font-family="sans-serif" font-size="14" lengthAdjust="spacing" textLength="109" x="267" y="493.2034">Schema Mapper</text></g><!--entity LanguageProcessor--><g id="elem_LanguageProcessor"><rect fill="#F8F9FA" height="46.4883" rx="2.5" ry="2.5" style="stroke:#6C757D;stroke-width:0.5;" width="178" x="247.5" y="587.8783"/><rect fill="#F8F9FA" height="10" style="stroke:#6C757D;stroke-width:0.5;" width="15" x="405.5" y="592.8783"/><rect fill="#F8F9FA" height="2" style="stroke:#6C757D;stroke-width:0.5;" width="4" x="403.5" y="594.8783"/><rect fill="#F8F9FA" height="2" style="stroke:#6C757D;stroke-width:0.5;" width="4" x="403.5" y="598.8783"/><text fill="#000000" font-family="sans-serif" font-size="14" lengthAdjust="spacing" textLength="138" x="262.5" y="621.4134">Language Processor</text></g><!--entity Transformer--><g id="elem_Transformer"><rect fill="#F8F9FA" height="46.4883" rx="2.5" ry="2.5" style="stroke:#6C757D;stroke-width:0.5;" width="161" x="247" y="716.0883"/><rect fill="#F8F9FA" height="10" style="stroke:#6C757D;stroke-width:0.5;" width="15" x="388" y="721.0883"/><rect fill="#F8F9FA" height="2" style="stroke:#6C757D;stroke-width:0.5;" width="4" x="386" y="723.0883"/><rect fill="#F8F9FA" height="2" style="stroke:#6C757D;stroke-width:0.5;" width="4" x="386" y="727.0883"/><text fill="#000000" font-family="sans-serif" font-size="14" lengthAdjust="spacing" textLength="121" x="262" y="749.6234">Data Transformer</text></g><!--entity RegionConfig--><g id="elem_RegionConfig"><rect fill="#F8F9FA" height="46.4883" rx="2.5" ry="2.5" style="stroke:#6C757D;stroke-width:0.5;" width="181" x="248" y="844.2983"/><rect fill="#F8F9FA" height="10" style="stroke:#6C757D;stroke-width:0.5;" width="15" x="409" y="849.2983"/><rect fill="#F8F9FA" height="2" style="stroke:#6C757D;stroke-width:0.5;" width="4" x="407" y="851.2983"/><rect fill="#F8F9FA" height="2" style="stroke:#6C757D;stroke-width:0.5;" width="4" x="407" y="855.2983"/><text fill="#000000" font-family="sans-serif" font-size="14" lengthAdjust="spacing" textLength="141" x="263" y="877.8334">Region Configurator</text></g><!--entity Importer--><g id="elem_Importer"><rect fill="#F8F9FA" height="46.4883" rx="2.5" ry="2.5" style="stroke:#6C757D;stroke-width:0.5;" width="147" x="254" y="977.2383"/><rect fill="#F8F9FA" height="10" style="stroke:#6C757D;stroke-width:0.5;" width="15" x="381" y="982.2383"/><rect fill="#F8F9FA" height="2" style="stroke:#6C757D;stroke-width:0.5;" width="4" x="379" y="984.2383"/><rect fill="#F8F9FA" height="2" style="stroke:#6C757D;stroke-width:0.5;" width="4" x="379" y="988.2383"/><text fill="#000000" font-family="sans-serif" font-size="14" lengthAdjust="spacing" textLength="107" x="269" y="1010.7734">Saleor Importer</text></g><!--entity SaleorAPI--><g id="elem_SaleorAPI"><rect fill="#F8F9FA" height="46.4883" rx="2.5" ry="2.5" style="stroke:#6C757D;stroke-width:0.5;" width="173" x="241" y="1126.4483"/><rect fill="#F8F9FA" height="10" style="stroke:#6C757D;stroke-width:0.5;" width="15" x="394" y="1131.4483"/><rect fill="#F8F9FA" height="2" style="stroke:#6C757D;stroke-width:0.5;" width="4" x="392" y="1133.4483"/><rect fill="#F8F9FA" height="2" style="stroke:#6C757D;stroke-width:0.5;" width="4" x="392" y="1137.4483"/><text fill="#000000" font-family="sans-serif" font-size="14" lengthAdjust="spacing" textLength="133" x="256" y="1159.9834">Saleor GraphQL API</text></g><!--entity ChannelMgmt--><g id="elem_ChannelMgmt"><rect fill="#F8F9FA" height="46.4883" rx="2.5" ry="2.5" style="stroke:#6C757D;stroke-width:0.5;" width="190" x="196.5" y="1233.9283"/><rect fill="#F8F9FA" height="10" style="stroke:#6C757D;stroke-width:0.5;" width="15" x="366.5" y="1238.9283"/><rect fill="#F8F9FA" height="2" style="stroke:#6C757D;stroke-width:0.5;" width="4" x="364.5" y="1240.9283"/><rect fill="#F8F9FA" height="2" style="stroke:#6C757D;stroke-width:0.5;" width="4" x="364.5" y="1244.9283"/><text fill="#000000" font-family="sans-serif" font-size="14" lengthAdjust="spacing" textLength="150" x="211.5" y="1267.4634">Channel Management</text></g><!--entity TranslationSystem--><g id="elem_TranslationSystem"><rect fill="#F8F9FA" height="46.4883" rx="2.5" ry="2.5" style="stroke:#6C757D;stroke-width:0.5;" width="170" x="421.5" y="1233.9283"/><rect fill="#F8F9FA" height="10" style="stroke:#6C757D;stroke-width:0.5;" width="15" x="571.5" y="1238.9283"/><rect fill="#F8F9FA" height="2" style="stroke:#6C757D;stroke-width:0.5;" width="4" x="569.5" y="1240.9283"/><rect fill="#F8F9FA" height="2" style="stroke:#6C757D;stroke-width:0.5;" width="4" x="569.5" y="1244.9283"/><text fill="#000000" font-family="sans-serif" font-size="14" lengthAdjust="spacing" textLength="130" x="436.5" y="1267.4634">Translation System</text></g><!--entity PostgreSQL--><g id="elem_PostgreSQL"><path d="M350.5,1351.4183 C350.5,1341.4183 399.5,1341.4183 399.5,1341.4183 C399.5,1341.4183 448.5,1341.4183 448.5,1351.4183 L448.5,1376.9066 C448.5,1386.9066 399.5,1386.9066 399.5,1386.9066 C399.5,1386.9066 350.5,1386.9066 350.5,1376.9066 L350.5,1351.4183 " fill="#F8F0FF" style="stroke:#6F42C1;stroke-width:0.5;"/><path d="M350.5,1351.4183 C350.5,1361.4183 399.5,1361.4183 399.5,1361.4183 C399.5,1361.4183 448.5,1361.4183 448.5,1351.4183 " fill="none" style="stroke:#6F42C1;stroke-width:0.5;"/><text fill="#000000" font-family="sans-serif" font-size="14" lengthAdjust="spacing" textLength="78" x="360.5" y="1378.9534">PostgreSQL</text></g><g id="elem_GMN31"><path d="M6,326.7383 L6,382.6699 A0,0 0 0 0 6,382.6699 L215,382.6699 A0,0 0 0 0 215,382.6699 L215,358.7083 L253.38,354.7083 L215,350.7083 L215,336.7383 L205,326.7383 L6,326.7383 A0,0 0 0 0 6,326.7383 " fill="#FEFFDD" style="stroke:#181818;stroke-width:0.5;"/><path d="M205,326.7383 L205,336.7383 L215,336.7383 L205,326.7383 " fill="#FEFFDD" style="stroke:#181818;stroke-width:0.5;"/><text fill="#000000" font-family="sans-serif" font-size="13" lengthAdjust="spacing" textLength="188" x="12" y="344.3066">Extracts products, categories,</text><text fill="#000000" font-family="sans-serif" font-size="13" lengthAdjust="spacing" textLength="175" x="12" y="359.6172">customers, and orders from</text><text fill="#000000" font-family="sans-serif" font-size="13" lengthAdjust="spacing" textLength="137" x="12" y="374.9277">Statamic content files</text></g><g id="elem_GMN34"><path d="M462,462.6083 L462,478.9183 L401.34,482.9183 L462,486.9183 L462,503.2294 A0,0 0 0 0 462,503.2294 L673,503.2294 A0,0 0 0 0 673,503.2294 L673,472.6083 L663,462.6083 L462,462.6083 A0,0 0 0 0 462,462.6083 " fill="#FEFFDD" style="stroke:#181818;stroke-width:0.5;"/><path d="M663,462.6083 L663,472.6083 L673,472.6083 L663,462.6083 " fill="#FEFFDD" style="stroke:#181818;stroke-width:0.5;"/><text fill="#000000" font-family="sans-serif" font-size="13" lengthAdjust="spacing" textLength="190" x="468" y="480.1766">Maps Statamic data structures</text><text fill="#000000" font-family="sans-serif" font-size="13" lengthAdjust="spacing" textLength="136" x="468" y="495.4872">to Saleor data models</text></g><g id="elem_GMN37"><path d="M462,583.1583 L462,607.1283 L425.62,611.1283 L462,615.1283 L462,639.0899 A0,0 0 0 0 462,639.0899 L699,639.0899 A0,0 0 0 0 699,639.0899 L699,593.1583 L689,583.1583 L462,583.1583 A0,0 0 0 0 462,583.1583 " fill="#FEFFDD" style="stroke:#181818;stroke-width:0.5;"/><path d="M689,583.1583 L689,593.1583 L699,593.1583 L689,583.1583 " fill="#FEFFDD" style="stroke:#181818;stroke-width:0.5;"/><text fill="#000000" font-family="sans-serif" font-size="13" lengthAdjust="spacing" textLength="216" x="468" y="600.7266">Processes multi-language content</text><text fill="#000000" font-family="sans-serif" font-size="13" lengthAdjust="spacing" textLength="155" x="468" y="616.0372">and prepares for Saleor's</text><text fill="#000000" font-family="sans-serif" font-size="13" lengthAdjust="spacing" textLength="117" x="468" y="631.3477">translation system</text></g><g id="elem_GMN40"><path d="M464,839.5783 L464,863.5483 L429.47,867.5483 L464,871.5483 L464,895.5099 A0,0 0 0 0 464,895.5099 L663,895.5099 A0,0 0 0 0 663,895.5099 L663,849.5783 L653,839.5783 L464,839.5783 A0,0 0 0 0 464,839.5783 " fill="#FEFFDD" style="stroke:#181818;stroke-width:0.5;"/><path d="M653,839.5783 L653,849.5783 L663,849.5783 L653,839.5783 " fill="#FEFFDD" style="stroke:#181818;stroke-width:0.5;"/><text fill="#000000" font-family="sans-serif" font-size="13" lengthAdjust="spacing" textLength="178" x="470" y="857.1466">Configures data for multiple</text><text fill="#000000" font-family="sans-serif" font-size="13" lengthAdjust="spacing" textLength="138" x="470" y="872.4572">regions using Saleor's</text><text fill="#000000" font-family="sans-serif" font-size="13" lengthAdjust="spacing" textLength="100" x="470" y="887.7677">Channel system</text></g><g id="elem_GMN43"><path d="M462,972.5083 L462,996.4783 L401.4,1000.4783 L462,1004.4783 L462,1028.4399 A0,0 0 0 0 462,1028.4399 L663,1028.4399 A0,0 0 0 0 663,1028.4399 L663,982.5083 L653,972.5083 L462,972.5083 A0,0 0 0 0 462,972.5083 " fill="#FEFFDD" style="stroke:#181818;stroke-width:0.5;"/><path d="M653,972.5083 L653,982.5083 L663,982.5083 L653,972.5083 " fill="#FEFFDD" style="stroke:#181818;stroke-width:0.5;"/><text fill="#000000" font-family="sans-serif" font-size="13" lengthAdjust="spacing" textLength="164" x="468" y="990.0766">Uses Saleor's GraphQL API</text><text fill="#000000" font-family="sans-serif" font-size="13" lengthAdjust="spacing" textLength="166" x="468" y="1005.3872">to import data with proper</text><text fill="#000000" font-family="sans-serif" font-size="13" lengthAdjust="spacing" textLength="180" x="468" y="1020.6977">region and language context</text></g><!--link StatamicCMS to StatamicFiles--><g id="link_StatamicCMS_StatamicFiles"><path d="M295.79,125.2483 C300.94,141.1383 307.86,162.5283 313.37,179.5383 " fill="none" id="StatamicCMS-to-StatamicFiles" style="stroke:#0D6EFD;stroke-width:1.0;"/><polygon fill="#0D6EFD" points="314.87,184.1483,315.8983,174.3533,313.3275,179.3922,308.2886,176.8213,314.87,184.1483" style="stroke:#0D6EFD;stroke-width:1.0;"/></g><!--link SimpleCommerce to StatamicFiles--><g id="link_SimpleCommerce_StatamicFiles"><path d="M439.54,125.2483 C415.91,141.8983 383.69,164.5983 359.04,181.9683 " fill="none" id="SimpleCommerce-to-StatamicFiles" style="stroke:#0D6EFD;stroke-width:1.0;"/><polygon fill="#0D6EFD" points="355.14,184.7183,364.8034,182.8159,359.2308,181.8433,360.2034,176.2707,355.14,184.7183" style="stroke:#0D6EFD;stroke-width:1.0;"/></g><!--link Extractor to SchemaMapper--><g id="link_Extractor_SchemaMapper"><path d="M323.22,378.2683 C323.88,399.1783 324.87,430.3883 325.59,453.0883 " fill="none" id="Extractor-to-SchemaMapper" style="stroke:#0D6EFD;stroke-width:1.0;"/><polygon fill="#0D6EFD" points="325.74,458.0383,329.4545,448.9167,325.5825,453.0408,321.4585,449.1688,325.74,458.0383" style="stroke:#0D6EFD;stroke-width:1.0;"/><text fill="#000000" font-family="sans-serif" font-size="13" lengthAdjust="spacing" textLength="58" x="325.74" y="426.2366">Raw Data</text></g><!--link SchemaMapper to LanguageProcessor--><g id="link_SchemaMapper_LanguageProcessor"><path d="M328.29,506.4783 C329.94,527.3883 332.42,558.5983 334.22,581.2983 " fill="none" id="SchemaMapper-to-LanguageProcessor" style="stroke:#0D6EFD;stroke-width:1.0;"/><polygon fill="#0D6EFD" points="334.61,586.2483,337.9039,576.9666,334.2243,581.2632,329.9277,577.5836,334.61,586.2483" style="stroke:#0D6EFD;stroke-width:1.0;"/><text fill="#000000" font-family="sans-serif" font-size="13" lengthAdjust="spacing" textLength="101" x="332.8" y="549.7266">Mapped Schema</text></g><!--link LanguageProcessor to Transformer--><g id="link_LanguageProcessor_Transformer"><path d="M334.89,634.6883 C333.4,655.5983 331.17,686.8083 329.56,709.5083 " fill="none" id="LanguageProcessor-to-Transformer" style="stroke:#0D6EFD;stroke-width:1.0;"/><polygon fill="#0D6EFD" points="329.2,714.4583,333.8328,705.7671,329.5573,709.4711,325.8533,705.1955,329.2,714.4583" style="stroke:#0D6EFD;stroke-width:1.0;"/><text fill="#000000" font-family="sans-serif" font-size="13" lengthAdjust="spacing" textLength="115" x="333.27" y="682.6566">Language Variants</text></g><!--link Transformer to RegionConfig--><g id="link_Transformer_RegionConfig"><path d="M329.47,762.8983 C331.29,783.8083 334.01,815.0183 335.99,837.7183 " fill="none" id="Transformer-to-RegionConfig" style="stroke:#0D6EFD;stroke-width:1.0;"/><polygon fill="#0D6EFD" points="336.42,842.6683,339.6345,833.3588,335.9918,837.6867,331.6639,834.0439,336.42,842.6683" style="stroke:#0D6EFD;stroke-width:1.0;"/><text fill="#000000" font-family="sans-serif" font-size="13" lengthAdjust="spacing" textLength="113" x="334.33" y="806.1466">Transformed Data</text></g><!--link RegionConfig to Importer--><g id="link_RegionConfig_Importer"><path d="M336.61,891.0583 C334.77,912.9783 331.96,946.3983 329.95,970.3383 " fill="none" id="RegionConfig-to-Importer" style="stroke:#0D6EFD;stroke-width:1.0;"/><polygon fill="#0D6EFD" points="329.53,975.3183,334.2615,966.6804,329.944,970.3355,326.289,966.018,329.53,975.3183" style="stroke:#0D6EFD;stroke-width:1.0;"/><text fill="#000000" font-family="sans-serif" font-size="13" lengthAdjust="spacing" textLength="133" x="334.66" y="939.0766">Region-Specific Data</text></g><!--link SaleorAPI to ChannelMgmt--><g id="link_SaleorAPI_ChannelMgmt"><path d="M319.78,1173.3183 C314.37,1189.1683 307.1,1210.4783 301.28,1227.5183 " fill="none" id="SaleorAPI-to-ChannelMgmt" style="stroke:#0D6EFD;stroke-width:1.0;"/><polygon fill="#0D6EFD" points="299.7,1232.1483,306.3932,1224.9233,301.3154,1227.4164,298.8222,1222.3386,299.7,1232.1483" style="stroke:#0D6EFD;stroke-width:1.0;"/></g><!--link SaleorAPI to TranslationSystem--><g id="link_SaleorAPI_TranslationSystem"><path d="M365.9,1173.3183 C394.33,1190.0683 433.11,1212.9283 462.74,1230.3883 " fill="none" id="SaleorAPI-to-TranslationSystem" style="stroke:#0D6EFD;stroke-width:1.0;"/><polygon fill="#0D6EFD" points="466.86,1232.8183,461.1376,1224.8024,462.5525,1230.2794,457.0755,1231.6943,466.86,1232.8183" style="stroke:#0D6EFD;stroke-width:1.0;"/></g><!--link ChannelMgmt to PostgreSQL--><g id="link_ChannelMgmt_PostgreSQL"><path d="M314.67,1280.6983 C331.58,1297.1383 354.56,1319.4783 372.34,1336.7583 " fill="none" id="ChannelMgmt-to-PostgreSQL" style="stroke:#0D6EFD;stroke-width:1.0;"/><polygon fill="#0D6EFD" points="375.66,1339.9883,371.9948,1330.8468,372.0748,1336.5031,366.4185,1336.5831,375.66,1339.9883" style="stroke:#0D6EFD;stroke-width:1.0;"/></g><!--link TranslationSystem to PostgreSQL--><g id="link_TranslationSystem_PostgreSQL"><path d="M483.55,1280.6983 C466.79,1297.1383 444.02,1319.4783 426.41,1336.7583 " fill="none" id="TranslationSystem-to-PostgreSQL" style="stroke:#0D6EFD;stroke-width:1.0;"/><polygon fill="#0D6EFD" points="423.13,1339.9783,432.3576,1336.5358,426.7011,1336.4786,426.7582,1330.8221,423.13,1339.9783" style="stroke:#0D6EFD;stroke-width:1.0;"/></g><!--link StatamicFiles to Extractor--><g id="link_StatamicFiles_Extractor"><path d="M322.5,231.8983 C322.5,256.8783 322.5,297.5383 322.5,324.9383 " fill="none" id="StatamicFiles-to-Extractor" style="stroke:#0D6EFD;stroke-width:1.0;"/><polygon fill="#0D6EFD" points="322.5,329.7483,326.5,320.7483,322.5,324.7483,318.5,320.7483,322.5,329.7483" style="stroke:#0D6EFD;stroke-width:1.0;"/><text fill="#000000" font-family="sans-serif" font-size="13" lengthAdjust="spacing" textLength="77" x="323.5" y="277.0266">Extract Data</text></g><!--link Importer to SaleorAPI--><g id="link_Importer_SaleorAPI"><path d="M327.5,1024.1583 C327.5,1049.8383 327.5,1091.7583 327.5,1119.7683 " fill="none" id="Importer-to-SaleorAPI" style="stroke:#0D6EFD;stroke-width:1.0;"/><polygon fill="#0D6EFD" points="327.5,1124.7083,331.5,1115.7083,327.5,1119.7083,323.5,1115.7083,327.5,1124.7083" style="stroke:#0D6EFD;stroke-width:1.0;"/><text fill="#000000" font-family="sans-serif" font-size="13" lengthAdjust="spacing" textLength="75" x="328.5" y="1072.0166">Import Data</text></g><!--SRC=[TLNFQzim5Bxxhn3PePS6kh6rMmw3pgb7eHrja-qoTj1isH6r92F9f6NqVz_JasnBSG8XM4_VUz_xhJEoPZMNZ1ZxsZAJcMSkEwgf8AKIdP9CMl8l8-GRBPyRhNfPvQfLchmhFXTVYcjtetJ5T91UvbUVhjRPMnOPggYbVwbX9-rS5CNCJl7nG_u-jKErLdiq4a0NwykR0iaijoqZ6mjCWfV4AhAXBGFC6YJadZUQMguaUT2gPCPasHdPg5wNeFDgB1Ccwy0lsZ2oyFBLQ6o1Z5Co5YDBVhzP46f699mFa5nqu5QkX61WquDHDeW0FsPdCbnmg4HY6YK0Xb_4HfRBhpD8Id04ykQYdrAI3_v6EPXkjqgrPfO2pEhDYzMqj4gZf-Ff80NbZWce0Eqwve5UuWKfzexAfdVyeKh1yY0UfKTysMegJQsq22JHEKK_iSO7BMlUz11a8F5oBpw8m3VIBGYq3UQ7Ww_863fP_Wuz-STbFGgKhCWJtMCtkXB5DudEB5PGH5mLb41xZabCHA63yfZJNrHpwefC4aIY6YS1T2TSDNYU81BT8IKkKWGjDnqhUGtjZBhOTLkg6sR3p4tjviMhCBFpWVCL-Avfjtky8zSFjxwHK0od59tlg9IiXRH9C2v0XkWWlc-4JV4OPUkxtJisTP0N1tVZKNrGnZQQRHxl43mTmumEhk7ufTJftJ6Q28-OnFfCuH22YSQXA5grpvBPJqiszUrg-FQr6ckPzlFe-2fKswE1xeUoi5Wa_9EMrPQeEja7uTkGJgkgXuzpKbBB6gKvC-Uk7Bsn2jeHBgYi23u4XjHQYMZXGT6aTIMhSOqn03h6pFDgtkoG-62_mCUqHh62yD9fSABNk2wdfmBlXAfOUzhuiLqKlY6xecyjNxR3o0L_0UA2wZI3PmnGC561yiouPh5H0nhV0wVe3xRKiCN0A3hlBACFy030jKQq8RtXiXaffmOxmJPKC5foFrrqey_H8Fe4SjyDwCEUsvshiy- -Tm7ZJzFoOYVQ_m00]--></g></svg>