<?xml version="1.0" encoding="us-ascii" standalone="no"?><svg xmlns="http://www.w3.org/2000/svg" xmlns:xlink="http://www.w3.org/1999/xlink" contentStyleType="text/css" height="1299px" preserveAspectRatio="none" style="width:2951px;height:1299px;background:#FFFFFF;" version="1.1" viewBox="0 0 2951 1299" width="2951px" zoomAndPan="magnify"><defs/><g><text fill="#000000" font-family="sans-serif" font-size="14" font-weight="bold" lengthAdjust="spacing" textLength="256" x="1340.5" y="23.5352">Saleor Multi-Language Architecture</text><!--cluster ClientLayer--><g id="cluster_ClientLayer"><path d="M8.5,43.4883 L188.5,43.4883 A3.75,3.75 0 0 1 191,45.9883 L198,65.9766 L436.5,65.9766 A2.5,2.5 0 0 1 439,68.4766 L439,323.2083 A2.5,2.5 0 0 1 436.5,325.7083 L8.5,325.7083 A2.5,2.5 0 0 1 6,323.2083 L6,45.9883 A2.5,2.5 0 0 1 8.5,43.4883 " fill="none" style="stroke:#000000;stroke-width:1.5;"/><line style="stroke:#000000;stroke-width:1.5;" x1="6" x2="198" y1="65.9766" y2="65.9766"/><text fill="#000000" font-family="sans-serif" font-size="14" font-weight="bold" lengthAdjust="spacing" textLength="12" x="10" y="59.0234">1.</text><text fill="#000000" font-family="sans-serif" font-size="14" font-weight="bold" lengthAdjust="spacing" textLength="164" x="25" y="59.0234">E1F5FE-#B3E5FC Layer</text><text fill="#000000" font-family="sans-serif" font-size="14" font-style="italic" lengthAdjust="spacing" textLength="142" x="155.5" y="81.5117">&#171;#E1F5FE-#B3E5FC&#187;</text></g><!--cluster FrontendLayer--><g id="cluster_FrontendLayer"><path d="M465.5,203.9783 L648.5,203.9783 A3.75,3.75 0 0 1 651,206.4783 L658,226.4666 L1256.5,226.4666 A2.5,2.5 0 0 1 1259,228.9666 L1259,668.5583 A2.5,2.5 0 0 1 1256.5,671.0583 L465.5,671.0583 A2.5,2.5 0 0 1 463,668.5583 L463,206.4783 A2.5,2.5 0 0 1 465.5,203.9783 " fill="none" style="stroke:#000000;stroke-width:1.5;"/><line style="stroke:#000000;stroke-width:1.5;" x1="463" x2="658" y1="226.4666" y2="226.4666"/><text fill="#000000" font-family="sans-serif" font-size="14" font-weight="bold" lengthAdjust="spacing" textLength="12" x="467" y="219.5134">1.</text><text fill="#000000" font-family="sans-serif" font-size="14" font-weight="bold" lengthAdjust="spacing" textLength="167" x="482" y="219.5134">E8F5E9-#C8E6C9 Layer</text><text fill="#000000" font-family="sans-serif" font-size="14" font-style="italic" lengthAdjust="spacing" textLength="146" x="792" y="242.0017">&#171;#E8F5E9-#C8E6C9&#187;</text></g><!--cluster APILayer--><g id="cluster_APILayer"><path d="M1285.5,396.9483 L1464.5,396.9483 A3.75,3.75 0 0 1 1467,399.4483 L1474,419.4366 L1744.5,419.4366 A2.5,2.5 0 0 1 1747,421.9366 L1747,671.4983 A2.5,2.5 0 0 1 1744.5,673.9983 L1285.5,673.9983 A2.5,2.5 0 0 1 1283,671.4983 L1283,399.4483 A2.5,2.5 0 0 1 1285.5,396.9483 " fill="none" style="stroke:#000000;stroke-width:1.5;"/><line style="stroke:#000000;stroke-width:1.5;" x1="1283" x2="1474" y1="419.4366" y2="419.4366"/><text fill="#000000" font-family="sans-serif" font-size="14" font-weight="bold" lengthAdjust="spacing" textLength="12" x="1287" y="412.4834">1.</text><text fill="#000000" font-family="sans-serif" font-size="14" font-weight="bold" lengthAdjust="spacing" textLength="163" x="1302" y="412.4834">F3E5F5-#E1BEE7 Layer</text><text fill="#000000" font-family="sans-serif" font-size="14" font-style="italic" lengthAdjust="spacing" textLength="141" x="1448.5" y="434.9717">&#171;#F3E5F5-#E1BEE7&#187;</text></g><!--cluster StoreLayer--><g id="cluster_StoreLayer"><path d="M990.5,747.0283 L1168.5,747.0283 A3.75,3.75 0 0 1 1171,749.5283 L1178,769.5166 L1746.5,769.5166 A2.5,2.5 0 0 1 1749,772.0166 L1749,1206.1883 A2.5,2.5 0 0 1 1746.5,1208.6883 L990.5,1208.6883 A2.5,2.5 0 0 1 988,1206.1883 L988,749.5283 A2.5,2.5 0 0 1 990.5,747.0283 " fill="none" style="stroke:#000000;stroke-width:1.5;"/><line style="stroke:#000000;stroke-width:1.5;" x1="988" x2="1178" y1="769.5166" y2="769.5166"/><text fill="#000000" font-family="sans-serif" font-size="14" font-weight="bold" lengthAdjust="spacing" textLength="12" x="992" y="762.5634">1.</text><text fill="#000000" font-family="sans-serif" font-size="14" font-weight="bold" lengthAdjust="spacing" textLength="162" x="1007" y="762.5634">FFF3E0-#FFE0B2 Layer</text><text fill="#000000" font-family="sans-serif" font-size="14" font-style="italic" lengthAdjust="spacing" textLength="140" x="1302.5" y="785.0517">&#171;#FFF3E0-#FFE0B2&#187;</text></g><!--cluster DatabaseLayer--><g id="cluster_DatabaseLayer"><path d="M1775.5,958.1683 L1957.5,958.1683 A3.75,3.75 0 0 1 1960,960.6683 L1967,980.6566 L2495.5,980.6566 A2.5,2.5 0 0 1 2498,983.1566 L2498,1290.2183 A2.5,2.5 0 0 1 2495.5,1292.7183 L1775.5,1292.7183 A2.5,2.5 0 0 1 1773,1290.2183 L1773,960.6683 A2.5,2.5 0 0 1 1775.5,958.1683 " fill="none" style="stroke:#000000;stroke-width:1.5;"/><line style="stroke:#000000;stroke-width:1.5;" x1="1773" x2="1967" y1="980.6566" y2="980.6566"/><text fill="#000000" font-family="sans-serif" font-size="14" font-weight="bold" lengthAdjust="spacing" textLength="12" x="1777" y="973.7034">1.</text><text fill="#000000" font-family="sans-serif" font-size="14" font-weight="bold" lengthAdjust="spacing" textLength="166" x="1792" y="973.7034">FAFAFA-#F5F5F5 Layer</text><text fill="#000000" font-family="sans-serif" font-size="14" font-style="italic" lengthAdjust="spacing" textLength="145" x="2067" y="996.1917">&#171;#FAFAFA-#F5F5F5&#187;</text></g><!--cluster PostgreSQL--><g id="cluster_PostgreSQL"><path d="M1797,1027.1683 C1797,1017.1683 2135.5,1017.1683 2135.5,1017.1683 C2135.5,1017.1683 2474,1017.1683 2474,1027.1683 L2474,1258.7183 C2474,1268.7183 2135.5,1268.7183 2135.5,1268.7183 C2135.5,1268.7183 1797,1268.7183 1797,1258.7183 L1797,1027.1683 " fill="none" style="stroke:#181818;stroke-width:1.0;"/><path d="M1797,1027.1683 C1797,1037.1683 2135.5,1037.1683 2135.5,1037.1683 C2135.5,1037.1683 2474,1037.1683 2474,1027.1683 " fill="none" style="stroke:#181818;stroke-width:1.0;"/><text fill="#000000" font-family="sans-serif" font-size="14" font-weight="bold" lengthAdjust="spacing" textLength="83" x="2094" y="1052.7034">PostgreSQL</text></g><!--cluster TransEntries--><g id="cluster_TransEntries"><rect fill="#FFFFFF" height="153.55" rx="2.5" ry="2.5" style="stroke:#000000;stroke-width:1.0;" width="218" x="2039" y="1083.1683"/><rect fill="#FFFFFF" height="10" style="stroke:#000000;stroke-width:1.0;" width="15" x="2237" y="1088.1683"/><rect fill="#FFFFFF" height="2" style="stroke:#000000;stroke-width:1.0;" width="4" x="2235" y="1090.1683"/><rect fill="#FFFFFF" height="2" style="stroke:#000000;stroke-width:1.0;" width="4" x="2235" y="1094.1683"/><text fill="#000000" font-family="sans-serif" font-size="14" font-weight="bold" lengthAdjust="spacing" textLength="12" x="2051" y="1109.7034">1.</text><text fill="#000000" font-family="sans-serif" font-size="14" font-weight="bold" lengthAdjust="spacing" textLength="179" x="2066" y="1109.7034">FFEBEE-#FFCDD2 Entries</text></g><!--cluster MigrationLayer--><g id="cluster_MigrationLayer"><path d="M1942.5,388.9483 L2120.5,388.9483 A3.75,3.75 0 0 1 2123,391.4483 L2130,411.4366 L2534.5,411.4366 A2.5,2.5 0 0 1 2537,413.9366 L2537,866.0083 A2.5,2.5 0 0 1 2534.5,868.5083 L1942.5,868.5083 A2.5,2.5 0 0 1 1940,866.0083 L1940,391.4483 A2.5,2.5 0 0 1 1942.5,388.9483 " fill="none" style="stroke:#000000;stroke-width:1.5;"/><line style="stroke:#000000;stroke-width:1.5;" x1="1940" x2="2130" y1="411.4366" y2="411.4366"/><text fill="#000000" font-family="sans-serif" font-size="14" font-weight="bold" lengthAdjust="spacing" textLength="12" x="1944" y="404.4834">1.</text><text fill="#000000" font-family="sans-serif" font-size="14" font-weight="bold" lengthAdjust="spacing" textLength="162" x="1959" y="404.4834">FFF8E1-#FFE082 Layer</text><text fill="#000000" font-family="sans-serif" font-size="14" font-style="italic" lengthAdjust="spacing" textLength="141" x="2172" y="426.9717">&#171;#FFF8E1-#FFE082&#187;</text></g><!--entity Browser--><g id="elem_Browser"><rect fill="#FFFFFF" height="46.4883" rx="2.5" ry="2.5" style="stroke:#000000;stroke-width:0.5;" width="130" x="22" y="94.4883"/><rect fill="#FFFFFF" height="10" style="stroke:#000000;stroke-width:0.5;" width="15" x="132" y="99.4883"/><rect fill="#FFFFFF" height="2" style="stroke:#000000;stroke-width:0.5;" width="4" x="130" y="101.4883"/><rect fill="#FFFFFF" height="2" style="stroke:#000000;stroke-width:0.5;" width="4" x="130" y="105.4883"/><text fill="#000000" font-family="sans-serif" font-size="14" lengthAdjust="spacing" textLength="90" x="37" y="128.0234">User Browser</text></g><!--entity LangCookie--><g id="elem_LangCookie"><rect fill="#FFFFFF" height="46.4883" rx="2.5" ry="2.5" style="stroke:#000000;stroke-width:0.5;" width="236" x="187" y="94.4883"/><rect fill="#FFFFFF" height="10" style="stroke:#000000;stroke-width:0.5;" width="15" x="403" y="99.4883"/><rect fill="#FFFFFF" height="2" style="stroke:#000000;stroke-width:0.5;" width="4" x="401" y="101.4883"/><rect fill="#FFFFFF" height="2" style="stroke:#000000;stroke-width:0.5;" width="4" x="401" y="105.4883"/><text fill="#000000" font-family="sans-serif" font-size="14" lengthAdjust="spacing" textLength="196" x="202" y="128.0234">Language Preference Cookie</text></g><!--entity AcceptHeader--><g id="elem_AcceptHeader"><rect fill="#FFFFFF" height="46.4883" rx="2.5" ry="2.5" style="stroke:#000000;stroke-width:0.5;" width="214" x="22" y="263.2183"/><rect fill="#FFFFFF" height="10" style="stroke:#000000;stroke-width:0.5;" width="15" x="216" y="268.2183"/><rect fill="#FFFFFF" height="2" style="stroke:#000000;stroke-width:0.5;" width="4" x="214" y="270.2183"/><rect fill="#FFFFFF" height="2" style="stroke:#000000;stroke-width:0.5;" width="4" x="214" y="274.2183"/><text fill="#000000" font-family="sans-serif" font-size="14" lengthAdjust="spacing" textLength="174" x="37" y="296.7534">Accept-Language Header</text></g><!--entity LangDetect--><g id="elem_LangDetect"><rect fill="#FFFFFF" height="62.9766" rx="2.5" ry="2.5" style="stroke:#000000;stroke-width:0.5;" width="176" x="857" y="254.9783"/><rect fill="#FFFFFF" height="10" style="stroke:#000000;stroke-width:0.5;" width="15" x="1013" y="259.9783"/><rect fill="#FFFFFF" height="2" style="stroke:#000000;stroke-width:0.5;" width="4" x="1011" y="261.9783"/><rect fill="#FFFFFF" height="2" style="stroke:#000000;stroke-width:0.5;" width="4" x="1011" y="265.9783"/><text fill="#000000" font-family="sans-serif" font-size="14" lengthAdjust="spacing" textLength="136" x="872" y="288.5134">Language Detection</text><text fill="#000000" font-family="sans-serif" font-size="14" lengthAdjust="spacing" textLength="89" x="872" y="305.0017">(Middleware)</text></g><!--entity NextI18n--><g id="elem_NextI18n"><rect fill="#FFFFFF" height="46.4883" rx="2.5" ry="2.5" style="stroke:#000000;stroke-width:0.5;" width="122" x="479" y="263.2183"/><rect fill="#FFFFFF" height="10" style="stroke:#000000;stroke-width:0.5;" width="15" x="581" y="268.2183"/><rect fill="#FFFFFF" height="2" style="stroke:#000000;stroke-width:0.5;" width="4" x="579" y="270.2183"/><rect fill="#FFFFFF" height="2" style="stroke:#000000;stroke-width:0.5;" width="4" x="579" y="274.2183"/><text fill="#000000" font-family="sans-serif" font-size="14" lengthAdjust="spacing" textLength="82" x="494" y="296.7534">Next.js i18n</text></g><!--entity LangSwitcher--><g id="elem_LangSwitcher"><rect fill="#FFFFFF" height="46.4883" rx="2.5" ry="2.5" style="stroke:#000000;stroke-width:0.5;" width="187" x="635.5" y="263.2183"/><rect fill="#FFFFFF" height="10" style="stroke:#000000;stroke-width:0.5;" width="15" x="802.5" y="268.2183"/><rect fill="#FFFFFF" height="2" style="stroke:#000000;stroke-width:0.5;" width="4" x="800.5" y="270.2183"/><rect fill="#FFFFFF" height="2" style="stroke:#000000;stroke-width:0.5;" width="4" x="800.5" y="274.2183"/><text fill="#000000" font-family="sans-serif" font-size="14" lengthAdjust="spacing" textLength="147" x="650.5" y="296.7534">Language Switcher UI</text></g><!--entity TranslatedUI--><g id="elem_TranslatedUI"><rect fill="#FFFFFF" height="46.4883" rx="2.5" ry="2.5" style="stroke:#000000;stroke-width:0.5;" width="223" x="478.5" y="447.9483"/><rect fill="#FFFFFF" height="10" style="stroke:#000000;stroke-width:0.5;" width="15" x="681.5" y="452.9483"/><rect fill="#FFFFFF" height="2" style="stroke:#000000;stroke-width:0.5;" width="4" x="679.5" y="454.9483"/><rect fill="#FFFFFF" height="2" style="stroke:#000000;stroke-width:0.5;" width="4" x="679.5" y="458.9483"/><text fill="#000000" font-family="sans-serif" font-size="14" lengthAdjust="spacing" textLength="183" x="493.5" y="481.4834">Translated UI Components</text></g><!--entity LangURL--><g id="elem_LangURL"><rect fill="#FFFFFF" height="62.9766" rx="2.5" ry="2.5" style="stroke:#000000;stroke-width:0.5;" width="204" x="736" y="439.7083"/><rect fill="#FFFFFF" height="10" style="stroke:#000000;stroke-width:0.5;" width="15" x="920" y="444.7083"/><rect fill="#FFFFFF" height="2" style="stroke:#000000;stroke-width:0.5;" width="4" x="918" y="446.7083"/><rect fill="#FFFFFF" height="2" style="stroke:#000000;stroke-width:0.5;" width="4" x="918" y="450.7083"/><text fill="#000000" font-family="sans-serif" font-size="14" lengthAdjust="spacing" textLength="164" x="751" y="473.2434">Language URL Structure</text><text fill="#000000" font-family="sans-serif" font-size="14" lengthAdjust="spacing" textLength="115" x="751" y="489.7317">(/nl/, /de/, /en/)</text></g><g id="elem_GMN12"><path d="M974.5,435.5783 L974.5,506.8205 L1243.5,506.8205 L1243.5,445.5783 L1233.5,435.5783 L974.5,435.5783 " fill="#FFFDE7" style="stroke:#FBC02D;stroke-width:0.5;"/><path d="M1233.5,435.5783 L1233.5,445.5783 L1243.5,445.5783 L1233.5,435.5783 " fill="#FFFDE7" style="stroke:#FBC02D;stroke-width:1.0;"/><text fill="#000000" font-family="sans-serif" font-size="13" lengthAdjust="spacing" textLength="248" x="980.5" y="453.1466">Detects user language preference from:</text><text fill="#000000" font-family="sans-serif" font-size="13" lengthAdjust="spacing" textLength="178" x="980.5" y="468.4572">1. URL path (/nl/, /de/, etc.)</text><text fill="#000000" font-family="sans-serif" font-size="13" lengthAdjust="spacing" textLength="173" x="980.5" y="483.7677">2. Cookie (if previously set)</text><text fill="#000000" font-family="sans-serif" font-size="13" lengthAdjust="spacing" textLength="173" x="980.5" y="499.0783">3. Accept-Language header</text></g><g id="elem_GMN15"><path d="M717,614.4383 L717,655.0594 A0,0 0 0 0 717,655.0594 L959,655.0594 A0,0 0 0 0 959,655.0594 L959,624.4383 L949,614.4383 L842,614.4383 L838,502.9683 L834,614.4383 L717,614.4383 A0,0 0 0 0 717,614.4383 " fill="#FFFDE7" style="stroke:#FBC02D;stroke-width:0.5;"/><path d="M949,614.4383 L949,624.4383 L959,624.4383 L949,614.4383 " fill="#FFFDE7" style="stroke:#FBC02D;stroke-width:0.5;"/><text fill="#000000" font-family="sans-serif" font-size="13" lengthAdjust="spacing" textLength="200" x="723" y="632.0066">SEO-friendly URL structure with</text><text fill="#000000" font-family="sans-serif" font-size="13" lengthAdjust="spacing" textLength="221" x="723" y="647.3172">language code in path for all pages</text></g><!--entity GraphQL--><g id="elem_GraphQL"><rect fill="#FFFFFF" height="46.4883" rx="2.5" ry="2.5" style="stroke:#000000;stroke-width:0.5;" width="231" x="1298.5" y="447.9483"/><rect fill="#FFFFFF" height="10" style="stroke:#000000;stroke-width:0.5;" width="15" x="1509.5" y="452.9483"/><rect fill="#FFFFFF" height="2" style="stroke:#000000;stroke-width:0.5;" width="4" x="1507.5" y="454.9483"/><rect fill="#FFFFFF" height="2" style="stroke:#000000;stroke-width:0.5;" width="4" x="1507.5" y="458.9483"/><text fill="#000000" font-family="sans-serif" font-size="14" lengthAdjust="spacing" textLength="191" x="1313.5" y="481.4834">GraphQL #F3E5F5-#E1BEE7</text></g><!--entity LangContext--><g id="elem_LangContext"><rect fill="#FFFFFF" height="46.4883" rx="2.5" ry="2.5" style="stroke:#000000;stroke-width:0.5;" width="166" x="1565" y="447.9483"/><rect fill="#FFFFFF" height="10" style="stroke:#000000;stroke-width:0.5;" width="15" x="1711" y="452.9483"/><rect fill="#FFFFFF" height="2" style="stroke:#000000;stroke-width:0.5;" width="4" x="1709" y="454.9483"/><rect fill="#FFFFFF" height="2" style="stroke:#000000;stroke-width:0.5;" width="4" x="1709" y="458.9483"/><text fill="#000000" font-family="sans-serif" font-size="14" lengthAdjust="spacing" textLength="126" x="1580" y="481.4834">Language Context</text></g><!--entity GraphQLLang--><g id="elem_GraphQLLang"><rect fill="#FFFFFF" height="46.4883" rx="2.5" ry="2.5" style="stroke:#000000;stroke-width:0.5;" width="271" x="1423.5" y="611.5083"/><rect fill="#FFFFFF" height="10" style="stroke:#000000;stroke-width:0.5;" width="15" x="1674.5" y="616.5083"/><rect fill="#FFFFFF" height="2" style="stroke:#000000;stroke-width:0.5;" width="4" x="1672.5" y="618.5083"/><rect fill="#FFFFFF" height="2" style="stroke:#000000;stroke-width:0.5;" width="4" x="1672.5" y="622.5083"/><text fill="#000000" font-family="sans-serif" font-size="14" lengthAdjust="spacing" textLength="231" x="1438.5" y="645.0434">GraphQL with Language Variables</text></g><!--entity TransMgmt--><g id="elem_TransMgmt"><rect fill="#FFFFFF" height="46.4883" rx="2.5" ry="2.5" style="stroke:#000000;stroke-width:0.5;" width="270" x="1424" y="798.0283"/><rect fill="#FFFFFF" height="10" style="stroke:#000000;stroke-width:0.5;" width="15" x="1674" y="803.0283"/><rect fill="#FFFFFF" height="2" style="stroke:#000000;stroke-width:0.5;" width="4" x="1672" y="805.0283"/><rect fill="#FFFFFF" height="2" style="stroke:#000000;stroke-width:0.5;" width="4" x="1672" y="809.0283"/><text fill="#000000" font-family="sans-serif" font-size="14" lengthAdjust="spacing" textLength="13" x="1439" y="831.5634">1.</text><text fill="#000000" font-family="sans-serif" font-size="14" lengthAdjust="spacing" textLength="213" x="1456" y="831.5634">FFEBEE-#FFCDD2 Management</text></g><!--entity ProductModule--><g id="elem_ProductModule"><rect fill="#FFFFFF" height="46.4883" rx="2.5" ry="2.5" style="stroke:#000000;stroke-width:0.5;" width="148" x="1004" y="1146.1983"/><rect fill="#FFFFFF" height="10" style="stroke:#000000;stroke-width:0.5;" width="15" x="1132" y="1151.1983"/><rect fill="#FFFFFF" height="2" style="stroke:#000000;stroke-width:0.5;" width="4" x="1130" y="1153.1983"/><rect fill="#FFFFFF" height="2" style="stroke:#000000;stroke-width:0.5;" width="4" x="1130" y="1157.1983"/><text fill="#000000" font-family="sans-serif" font-size="14" lengthAdjust="spacing" textLength="108" x="1019" y="1179.7334">Product Module</text></g><!--entity ContentModule--><g id="elem_ContentModule"><rect fill="#FFFFFF" height="46.4883" rx="2.5" ry="2.5" style="stroke:#000000;stroke-width:0.5;" width="150" x="1209" y="1146.1983"/><rect fill="#FFFFFF" height="10" style="stroke:#000000;stroke-width:0.5;" width="15" x="1339" y="1151.1983"/><rect fill="#FFFFFF" height="2" style="stroke:#000000;stroke-width:0.5;" width="4" x="1337" y="1153.1983"/><rect fill="#FFFFFF" height="2" style="stroke:#000000;stroke-width:0.5;" width="4" x="1337" y="1157.1983"/><text fill="#000000" font-family="sans-serif" font-size="14" lengthAdjust="spacing" textLength="110" x="1224" y="1179.7334">Content Module</text></g><!--entity SEOMgmt--><g id="elem_SEOMgmt"><rect fill="#FFFFFF" height="46.4883" rx="2.5" ry="2.5" style="stroke:#000000;stroke-width:0.5;" width="160" x="1441" y="1146.1983"/><rect fill="#FFFFFF" height="10" style="stroke:#000000;stroke-width:0.5;" width="15" x="1581" y="1151.1983"/><rect fill="#FFFFFF" height="2" style="stroke:#000000;stroke-width:0.5;" width="4" x="1579" y="1153.1983"/><rect fill="#FFFFFF" height="2" style="stroke:#000000;stroke-width:0.5;" width="4" x="1579" y="1157.1983"/><text fill="#000000" font-family="sans-serif" font-size="14" lengthAdjust="spacing" textLength="120" x="1456" y="1179.7334">SEO Management</text></g><!--entity BaseContent--><g id="elem_BaseContent"><rect fill="#FFFFFF" height="46.4883" rx="2.5" ry="2.5" style="stroke:#000000;stroke-width:0.5;" width="201" x="1813.5" y="1146.1983"/><rect fill="#FFFFFF" height="10" style="stroke:#000000;stroke-width:0.5;" width="15" x="1994.5" y="1151.1983"/><rect fill="#FFFFFF" height="2" style="stroke:#000000;stroke-width:0.5;" width="4" x="1992.5" y="1153.1983"/><rect fill="#FFFFFF" height="2" style="stroke:#000000;stroke-width:0.5;" width="4" x="1992.5" y="1157.1983"/><text fill="#000000" font-family="sans-serif" font-size="14" lengthAdjust="spacing" textLength="161" x="1828.5" y="1179.7334">Base Language Content</text></g><!--entity LangMeta--><g id="elem_LangMeta"><rect fill="#FFFFFF" height="46.4883" rx="2.5" ry="2.5" style="stroke:#000000;stroke-width:0.5;" width="174" x="2284" y="1146.1983"/><rect fill="#FFFFFF" height="10" style="stroke:#000000;stroke-width:0.5;" width="15" x="2438" y="1151.1983"/><rect fill="#FFFFFF" height="2" style="stroke:#000000;stroke-width:0.5;" width="4" x="2436" y="1153.1983"/><rect fill="#FFFFFF" height="2" style="stroke:#000000;stroke-width:0.5;" width="4" x="2436" y="1157.1983"/><text fill="#000000" font-family="sans-serif" font-size="14" lengthAdjust="spacing" textLength="134" x="2299" y="1179.7334">Language Metadata</text></g><g id="elem_GMN31"><path d="M2062.5,1126.1683 L2062.5,1165.4383 L2014.62,1169.4383 L2062.5,1173.4383 L2062.5,1212.721 A0,0 0 0 0 2062.5,1212.721 L2213.5,1212.721 A0,0 0 0 0 2213.5,1212.721 L2213.5,1136.1683 L2203.5,1126.1683 L2062.5,1126.1683 A0,0 0 0 0 2062.5,1126.1683 " fill="#FFFDE7" style="stroke:#FBC02D;stroke-width:0.5;"/><path d="M2203.5,1126.1683 L2203.5,1136.1683 L2213.5,1136.1683 L2203.5,1126.1683 " fill="#FFFDE7" style="stroke:#FBC02D;stroke-width:0.5;"/><text fill="#000000" font-family="sans-serif" font-size="13" lengthAdjust="spacing" textLength="60" x="2068.5" y="1143.7366">Contains:</text><text fill="#000000" font-family="sans-serif" font-size="13" lengthAdjust="spacing" textLength="119" x="2068.5" y="1159.0472">- Related object ID</text><text fill="#000000" font-family="sans-serif" font-size="13" lengthAdjust="spacing" textLength="80" x="2068.5" y="1174.3577">- Field name</text><text fill="#000000" font-family="sans-serif" font-size="13" lengthAdjust="spacing" textLength="106" x="2068.5" y="1189.6683">- Language code</text><text fill="#000000" font-family="sans-serif" font-size="13" lengthAdjust="spacing" textLength="130" x="2068.5" y="1204.9788">- Translated content</text></g><!--entity StatamicParser--><g id="elem_StatamicParser"><rect fill="#FFFFFF" height="46.4883" rx="2.5" ry="2.5" style="stroke:#000000;stroke-width:0.5;" width="278" x="2054" y="447.9483"/><rect fill="#FFFFFF" height="10" style="stroke:#000000;stroke-width:0.5;" width="15" x="2312" y="452.9483"/><rect fill="#FFFFFF" height="2" style="stroke:#000000;stroke-width:0.5;" width="4" x="2310" y="454.9483"/><rect fill="#FFFFFF" height="2" style="stroke:#000000;stroke-width:0.5;" width="4" x="2310" y="458.9483"/><text fill="#000000" font-family="sans-serif" font-size="14" lengthAdjust="spacing" textLength="238" x="2069" y="481.4834">Statamic #FFEBEE-#FFCDD2 Parser</text></g><!--entity TransMapper--><g id="elem_TransMapper"><rect fill="#FFFFFF" height="46.4883" rx="2.5" ry="2.5" style="stroke:#000000;stroke-width:0.5;" width="233" x="1963.5" y="611.5083"/><rect fill="#FFFFFF" height="10" style="stroke:#000000;stroke-width:0.5;" width="15" x="2176.5" y="616.5083"/><rect fill="#FFFFFF" height="2" style="stroke:#000000;stroke-width:0.5;" width="4" x="2174.5" y="618.5083"/><rect fill="#FFFFFF" height="2" style="stroke:#000000;stroke-width:0.5;" width="4" x="2174.5" y="622.5083"/><text fill="#000000" font-family="sans-serif" font-size="14" lengthAdjust="spacing" textLength="13" x="1978.5" y="645.0434">1.</text><text fill="#000000" font-family="sans-serif" font-size="14" lengthAdjust="spacing" textLength="176" x="1995.5" y="645.0434">FFEBEE-#FFCDD2 Mapper</text></g><!--entity TransImporter--><g id="elem_TransImporter"><rect fill="#FFFFFF" height="46.4883" rx="2.5" ry="2.5" style="stroke:#000000;stroke-width:0.5;" width="280" x="2057" y="798.0283"/><rect fill="#FFFFFF" height="10" style="stroke:#000000;stroke-width:0.5;" width="15" x="2317" y="803.0283"/><rect fill="#FFFFFF" height="2" style="stroke:#000000;stroke-width:0.5;" width="4" x="2315" y="805.0283"/><rect fill="#FFFFFF" height="2" style="stroke:#000000;stroke-width:0.5;" width="4" x="2315" y="809.0283"/><text fill="#000000" font-family="sans-serif" font-size="14" lengthAdjust="spacing" textLength="240" x="2072" y="831.5634">Saleor #FFEBEE-#FFCDD2 Importer</text></g><g id="elem_GMN39"><path d="M2231.5,599.1283 L2231.5,670.3705 L2504.5,670.3705 L2504.5,609.1283 L2494.5,599.1283 L2231.5,599.1283 " fill="#FFFDE7" style="stroke:#FBC02D;stroke-width:0.5;"/><path d="M2494.5,599.1283 L2494.5,609.1283 L2504.5,609.1283 L2494.5,599.1283 " fill="#FFFDE7" style="stroke:#FBC02D;stroke-width:1.0;"/><text fill="#000000" font-family="sans-serif" font-size="13" lengthAdjust="spacing" textLength="168" x="2237.5" y="616.6966">Extracts translations from:</text><text fill="#000000" font-family="sans-serif" font-size="13" lengthAdjust="spacing" textLength="252" x="2237.5" y="632.0072">- Language-specific content directories</text><text fill="#000000" font-family="sans-serif" font-size="13" lengthAdjust="spacing" textLength="127" x="2237.5" y="647.3177">- YAML front matter</text><text fill="#000000" font-family="sans-serif" font-size="13" lengthAdjust="spacing" textLength="209" x="2237.5" y="662.6283">- Simple Commerce product data</text></g><g id="elem_GMN60"><path d="M2561,747.3683 L2561,895.1632 L2789,895.1632 L2789,757.3683 L2779,747.3683 L2561,747.3683 " fill="#FFFDE7" style="stroke:#FBC02D;stroke-width:0.5;"/><path d="M2779,747.3683 L2779,757.3683 L2789,757.3683 L2779,747.3683 " fill="#FFFDE7" style="stroke:#FBC02D;stroke-width:1.0;"/><text fill="#000000" font-family="sans-serif" font-size="13" lengthAdjust="spacing" textLength="163" x="2567" y="764.9366">Saleor translation system:</text><text fill="#000000" font-family="sans-serif" font-size="13" lengthAdjust="spacing" textLength="187" x="2567" y="780.2472">- Separate translation objects</text><text fill="#000000" font-family="sans-serif" font-size="13" lengthAdjust="spacing" textLength="207" x="2567" y="795.5577">- Language-specific versions of:</text><text fill="#000000" font-family="sans-serif" font-size="13" lengthAdjust="spacing" textLength="189" x="2575" y="810.8683">* Product names, descriptions</text><text fill="#000000" font-family="sans-serif" font-size="13" lengthAdjust="spacing" textLength="197" x="2575" y="826.1788">* Category names, descriptions</text><text fill="#000000" font-family="sans-serif" font-size="13" lengthAdjust="spacing" textLength="105" x="2575" y="841.4894">* Collection data</text><text fill="#000000" font-family="sans-serif" font-size="13" lengthAdjust="spacing" textLength="91" x="2575" y="856.7999">* Page content</text><text fill="#000000" font-family="sans-serif" font-size="13" lengthAdjust="spacing" textLength="110" x="2575" y="872.1105">* Attribute values</text><text fill="#000000" font-family="sans-serif" font-size="13" lengthAdjust="spacing" textLength="162" x="2575" y="887.421">* Shipping method names</text></g><g id="elem_GMN63"><path d="M2564,420.2683 L2564,522.1316 L2944,522.1316 L2944,430.2683 L2934,420.2683 L2564,420.2683 " fill="#FFFDE7" style="stroke:#FBC02D;stroke-width:0.5;"/><path d="M2934,420.2683 L2934,430.2683 L2944,430.2683 L2934,420.2683 " fill="#FFFDE7" style="stroke:#FBC02D;stroke-width:1.0;"/><text fill="#000000" font-family="sans-serif" font-size="13" lengthAdjust="spacing" textLength="12" x="2570" y="437.8366">1.</text><text fill="#000000" font-family="sans-serif" font-size="13" lengthAdjust="spacing" textLength="206" x="2586" y="437.8366">FFF8E1-#FFE082 considerations:</text><text fill="#000000" font-family="sans-serif" font-size="13" lengthAdjust="spacing" textLength="298" x="2570" y="453.1472">- Map Statamic language directories (nl, de, en)</text><text fill="#000000" font-family="sans-serif" font-size="13" lengthAdjust="spacing" textLength="174" x="2578" y="468.4577">to Saleor translation entries</text><text fill="#000000" font-family="sans-serif" font-size="13" lengthAdjust="spacing" textLength="247" x="2570" y="483.7683">- Preserve SEO content in all languages</text><text fill="#000000" font-family="sans-serif" font-size="13" lengthAdjust="spacing" textLength="258" x="2570" y="499.0788">- Convert rich text formats appropriately</text><text fill="#000000" font-family="sans-serif" font-size="13" lengthAdjust="spacing" textLength="359" x="2570" y="514.3894">- Maintain translation relationships with original content</text></g><!--link LangDetect to GMN12--><g id="link_LangDetect_GMN12"><path d="M1033.31,311.9383 C1051.64,320.6683 1069.23,332.3683 1082,347.9483 C1102.04,372.4183 1108.02,408.5583 1109.45,435.2083 " fill="none" id="LangDetect-GMN12" style="stroke:#000000;stroke-width:1.0;stroke-dasharray:7.0,7.0;"/></g><!--link StatamicParser to GMN39--><g id="link_StatamicParser_GMN39"><path d="M2258.6,494.8083 C2287.37,507.6483 2319.43,526.3883 2341,552.1283 C2352.03,565.2883 2358.59,583.0883 2362.48,598.7183 " fill="none" id="StatamicParser-GMN39" style="stroke:#000000;stroke-width:1.0;stroke-dasharray:7.0,7.0;"/></g><!--link Browser to LangDetect--><g id="link_Browser_LangDetect"><path d="M152.1,137.5483 C157.79,138.8383 163.48,140.0083 169,140.9783 C171.3,141.3783 837.84,195.0783 840,195.9783 C868.58,207.8483 895.06,230.5383 914.28,250.0983 " fill="none" id="Browser-to-LangDetect" style="stroke:#000000;stroke-width:1.0;"/><polygon fill="#000000" points="917.46,253.3883,914.0922,244.1331,913.9893,249.7891,908.3334,249.6862,917.46,253.3883" style="stroke:#000000;stroke-width:1.0;"/></g><!--link Browser to LangSwitcher--><g id="link_Browser_LangSwitcher"><path d="M152.18,137.1783 C157.85,138.5483 163.51,139.8383 169,140.9783 C311.91,170.5783 348.84,172.8183 494,187.9783 C521.46,190.8483 592.27,185.9483 618,195.9783 C652.1,209.2583 683.82,237.0383 704.55,258.1483 " fill="none" id="Browser-to-LangSwitcher" style="stroke:#000000;stroke-width:1.0;"/><polygon fill="#000000" points="708.01,261.7183,704.6048,252.4768,704.5248,258.1331,698.8685,258.0531,708.01,261.7183" style="stroke:#000000;stroke-width:1.0;"/></g><!--link Browser to AcceptHeader--><g id="link_Browser_AcceptHeader"><path d="M92.66,141.2183 C100.18,171.0483 113.46,223.7583 121.71,256.5283 " fill="none" id="Browser-to-AcceptHeader" style="stroke:#000000;stroke-width:1.0;"/><polygon fill="#000000" points="122.92,261.3383,124.6177,251.6369,121.7073,256.4876,116.8566,253.5771,122.92,261.3383" style="stroke:#000000;stroke-width:1.0;"/></g><!--link LangDetect to LangCookie--><g id="link_LangDetect_LangCookie"><path d="M917.84,254.6283 C898.28,234.5283 870.12,209.5883 840,195.9783 C768.87,163.8183 564.26,140.8383 429.69,128.6883 " fill="none" id="LangDetect-to-LangCookie" style="stroke:#000000;stroke-width:1.0;"/><polygon fill="#000000" points="424.84,128.2483,433.4508,133.0289,429.8204,128.6907,434.1586,125.0603,424.84,128.2483" style="stroke:#000000;stroke-width:1.0;"/><text fill="#000000" font-family="sans-serif" font-size="13" lengthAdjust="spacing" textLength="70" x="818.04" y="184.5466">Sets/Reads</text></g><!--link LangDetect to LangContext--><g id="link_LangDetect_LangContext"><path d="M1033.29,293.3183 C1177.96,304.0183 1458.29,329.6883 1547,372.9483 C1579.95,389.0183 1609.09,419.8383 1627.49,442.4983 " fill="none" id="LangDetect-to-LangContext" style="stroke:#000000;stroke-width:1.0;"/><polygon fill="#000000" points="1630.54,446.2983,1628.0285,436.775,1627.4113,442.3981,1621.7882,441.781,1630.54,446.2983" style="stroke:#000000;stroke-width:1.0;"/><text fill="#000000" font-family="sans-serif" font-size="13" lengthAdjust="spacing" textLength="148" x="1522.44" y="361.5166">Provides language code</text></g><!--link LangDetect to LangURL--><g id="link_LangDetect_LangURL"><path d="M928.33,318.1683 C920.47,332.4683 910.89,349.6583 902,364.9483 C888.49,388.2083 872.8,414.0083 860.35,434.2483 " fill="none" id="LangDetect-to-LangURL" style="stroke:#000000;stroke-width:1.0;"/><polygon fill="#000000" points="857.88,438.2483,866.0118,432.6919,860.5069,433.9939,859.2048,428.4889,857.88,438.2483" style="stroke:#000000;stroke-width:1.0;"/><text fill="#000000" font-family="sans-serif" font-size="13" lengthAdjust="spacing" textLength="160" x="912.65" y="361.5166">Reads language from URL</text></g><!--link LangSwitcher to LangURL--><g id="link_LangSwitcher_LangURL"><path d="M720.81,310.1183 C716.41,326.1083 713.29,347.6583 721,364.9483 C733.77,393.6083 758.62,417.7383 782.15,435.6283 " fill="none" id="LangSwitcher-to-LangURL" style="stroke:#000000;stroke-width:1.0;"/><polygon fill="#000000" points="785.93,438.4483,781.1103,429.8593,781.9231,435.4574,776.325,436.2703,785.93,438.4483" style="stroke:#000000;stroke-width:1.0;"/><text fill="#000000" font-family="sans-serif" font-size="13" lengthAdjust="spacing" textLength="171" x="722" y="361.5166">Updates URL with language</text></g><!--link NextI18n to TranslatedUI--><g id="link_NextI18n_TranslatedUI"><path d="M541.92,310.0883 C543.56,325.6783 546.4,346.7783 551,364.9483 C557.75,391.5983 568.9,420.8383 577.56,441.7183 " fill="none" id="NextI18n-to-TranslatedUI" style="stroke:#000000;stroke-width:1.0;"/><polygon fill="#000000" points="579.45,446.2583,579.67,436.4119,577.5219,441.645,572.2887,439.4969,579.45,446.2583" style="stroke:#000000;stroke-width:1.0;"/><text fill="#000000" font-family="sans-serif" font-size="13" lengthAdjust="spacing" textLength="132" x="552" y="361.5166">Provides translations</text></g><!--link LangContext to GraphQLLang--><g id="link_LangContext_GraphQLLang"><path d="M1635.62,494.6583 C1619.66,523.6383 1591.89,574.0483 1574.53,605.5583 " fill="none" id="LangContext-to-GraphQLLang" style="stroke:#000000;stroke-width:1.0;"/><polygon fill="#000000" points="1572.14,609.8883,1579.9844,603.933,1574.5512,605.5081,1572.9761,600.075,1572.14,609.8883" style="stroke:#000000;stroke-width:1.0;"/><text fill="#000000" font-family="sans-serif" font-size="13" lengthAdjust="spacing" textLength="170" x="1604.5" y="565.6966">Injects language parameter</text></g><!--link GraphQLLang to TransMgmt--><g id="link_GraphQLLang_TransMgmt"><path d="M1559,658.3783 C1559,691.9483 1559,754.9183 1559,791.6483 " fill="none" id="GraphQLLang-to-TransMgmt" style="stroke:#000000;stroke-width:1.0;"/><polygon fill="#000000" points="1559,796.2283,1563,787.2283,1559,791.2283,1555,787.2283,1559,796.2283" style="stroke:#000000;stroke-width:1.0;"/><text fill="#000000" font-family="sans-serif" font-size="13" lengthAdjust="spacing" textLength="127" x="1560" y="713.9366">Fetches translations</text></g><!--link TransMgmt to ProductModule--><g id="link_TransMgmt_ProductModule"><path d="M1423.78,835.9183 C1306.38,850.7283 1148.83,878.6883 1107,925.1683 C1053.11,985.0483 1063.09,1089.4883 1071.92,1139.7683 " fill="none" id="TransMgmt-to-ProductModule" style="stroke:#000000;stroke-width:1.0;"/><polygon fill="#000000" points="1072.78,1144.4283,1075.0933,1134.8549,1071.8793,1139.5101,1067.2241,1136.2961,1072.78,1144.4283" style="stroke:#000000;stroke-width:1.0;"/><text fill="#000000" font-family="sans-serif" font-size="13" lengthAdjust="spacing" textLength="203" x="1108" y="938.7366">Applies translations to products</text></g><!--link TransMgmt to ContentModule--><g id="link_TransMgmt_ContentModule"><path d="M1458.5,844.9783 C1413.05,860.2783 1362.57,885.2183 1331,925.1683 C1280.84,988.6283 1279.01,1090.1283 1281.57,1139.5383 " fill="none" id="TransMgmt-to-ContentModule" style="stroke:#000000;stroke-width:1.0;"/><polygon fill="#000000" points="1281.85,1144.3583,1285.3285,1135.1442,1281.5639,1139.3665,1277.3416,1135.6019,1281.85,1144.3583" style="stroke:#000000;stroke-width:1.0;"/><text fill="#000000" font-family="sans-serif" font-size="13" lengthAdjust="spacing" textLength="195" x="1332" y="938.7366">Applies translations to content</text></g><!--link TransMgmt to SEOMgmt--><g id="link_TransMgmt_SEOMgmt"><path d="M1553.46,845.0083 C1548.62,865.7583 1541.79,897.3483 1538,925.1683 C1527.5,1002.1383 1523.32,1093.7383 1521.79,1139.4583 " fill="none" id="TransMgmt-to-SEOMgmt" style="stroke:#000000;stroke-width:1.0;"/><polygon fill="#000000" points="1521.63,1144.3583,1525.936,1135.5006,1521.8013,1139.3612,1517.9407,1135.2265,1521.63,1144.3583" style="stroke:#000000;stroke-width:1.0;"/><text fill="#000000" font-family="sans-serif" font-size="13" lengthAdjust="spacing" textLength="210" x="1539" y="938.7366">Applies translations to SEO fields</text></g><!--link TransMgmt to TransEntries--><g id="link_TransMgmt_TransEntries"><path d="M1645.19,844.9983 C1771.61,878.1883 1996.57,936.5983 2035,942.1683 C2045.68,943.7183 2221.18,942.7283 2229,950.1683 C2246.37,966.6883 2251.4875,1019.8233 2252.205,1069.5283 C2252.2498,1072.6348 2252.2775,1075.728 2252.2899,1078.798 C2252.293,1079.5655 2252.2951,1080.3315 2252.2963,1081.096 C2252.297,1081.4782 2252.2973,1081.86 2252.2975,1082.2414 " fill="none" id="TransMgmt-to-TransEntries" style="stroke:#000000;stroke-width:1.0;"/><polygon fill="#000000" points="2252.2975,1082.2414,2256.2975,1073.2414,2252.2975,1077.2414,2248.2975,1073.2414,2252.2975,1082.2414" style="stroke:#000000;stroke-width:1.0;"/><text fill="#000000" font-family="sans-serif" font-size="13" lengthAdjust="spacing" textLength="179" x="2036" y="938.7366">Stores/retrieves translations</text></g><!--link TransMgmt to BaseContent--><g id="link_TransMgmt_BaseContent"><path d="M1619.73,844.8783 C1660.9,862.3283 1714.75,889.5283 1754,925.1683 C1824.66,989.3383 1878.13,1091.1983 1901.33,1140.2383 " fill="none" id="TransMgmt-to-BaseContent" style="stroke:#000000;stroke-width:1.0;"/><polygon fill="#000000" points="1903.36,1144.5783,1903.1771,1134.7311,1901.2448,1140.0477,1895.9282,1138.1155,1903.36,1144.5783" style="stroke:#000000;stroke-width:1.0;"/><text fill="#000000" font-family="sans-serif" font-size="13" lengthAdjust="spacing" textLength="172" x="1771.9" y="938.7366">References original content</text></g><!--link StatamicParser to TransMapper--><g id="link_StatamicParser_TransMapper"><path d="M2177.29,494.6583 C2156.94,523.7583 2121.47,574.4683 2099.44,605.9483 " fill="none" id="StatamicParser-to-TransMapper" style="stroke:#000000;stroke-width:1.0;"/><polygon fill="#000000" points="2096.63,609.9783,2105.0574,604.8813,2099.4887,605.8761,2098.4939,600.3074,2096.63,609.9783" style="stroke:#000000;stroke-width:1.0;"/><text fill="#000000" font-family="sans-serif" font-size="13" lengthAdjust="spacing" textLength="195" x="2137.5" y="565.6966">Provides extracted translations</text></g><!--link TransMapper to TransImporter--><g id="link_TransMapper_TransImporter"><path d="M2094.35,658.3783 C2115.81,692.2183 2156.22,755.9583 2179.43,792.5483 " fill="none" id="TransMapper-to-TransImporter" style="stroke:#000000;stroke-width:1.0;"/><polygon fill="#000000" points="2181.91,796.4683,2180.4848,786.7231,2179.2395,792.2412,2173.7214,790.9959,2181.91,796.4683" style="stroke:#000000;stroke-width:1.0;"/><text fill="#000000" font-family="sans-serif" font-size="13" lengthAdjust="spacing" textLength="138" x="2132.49" y="713.9366">Maps to Saleor format</text></g><!--link TransImporter to TransEntries--><g id="link_TransImporter_TransEntries"><path d="M2203.72,844.6883 C2211.07,870.0483 2222.64,912.7083 2229,950.1683 C2233.015,973.8033 2236.265,999.0245 2238.8834,1023.6198 C2240.1927,1035.9175 2241.344,1048.0587 2242.3541,1059.7668 C2242.8592,1065.6209 2243.3289,1071.3667 2243.7655,1076.9698 C2243.8746,1078.3705 2243.9816,1079.7623 2244.0867,1081.1447 C2244.1129,1081.4903 2244.139,1081.8353 2244.165,1082.1797 " fill="none" id="TransImporter-to-TransEntries" style="stroke:#000000;stroke-width:1.0;"/><polygon fill="#000000" points="2244.165,1082.1797,2247.4762,1072.9041,2243.7887,1077.1939,2239.4989,1073.5063,2244.165,1082.1797" style="stroke:#000000;stroke-width:1.0;"/><text fill="#000000" font-family="sans-serif" font-size="13" lengthAdjust="spacing" textLength="128" x="2228.11" y="938.7366">Imports translations</text></g><!--link TransMgmt to GMN60--><g id="link_TransMgmt_GMN60"><path d="M1624.43,797.6283 C1703.84,770.2983 1842.43,726.9783 1965.5,710.5083 C2084,694.6583 2388.83,676.6983 2503.5,710.5083 C2530.36,718.4283 2556.97,732.0083 2580.93,746.9983 " fill="none" id="TransMgmt-GMN60" style="stroke:#000000;stroke-width:1.0;stroke-dasharray:7.0,7.0;"/></g><!--link MigrationLayer to GMN63--><g id="link_MigrationLayer_GMN63"><path d="M2537.0561,471.1983 C2537.1007,471.1983 2537.1452,471.1983 2537.1897,471.1983 C2537.2788,471.1983 2537.3679,471.1983 2537.457,471.1983 C2537.6352,471.1983 2537.8134,471.1983 2537.9916,471.1983 C2540.8425,471.1983 2543.6938,471.1983 2546.545,471.1983 C2552.2475,471.1983 2557.95,471.1983 2563.65,471.1983 " fill="none" id="MigrationLayer-GMN63" style="stroke:#000000;stroke-width:1.0;stroke-dasharray:7.0,7.0;"/></g><!--SRC=[VHVRRjisz5rVmIKFQOiwQL9aIusYW2zoPy3UqdePC60lZ4JRJ6LI86admT1_tpcaI56C70T8p7E_dvCpCcLhBXZHvhbYcgob8YLVhvbYmf12xcefu9lEVYaTtQJYY3dDBsVNitnmElwONyyc0JrJKXWcIY2ucLtddmQdavlyrycdG32wdPFJ6J9T3q38ECz_2xYLaOe1TWRu3mFuctyONmNib1fwJpKIZF072Axn9n3yfQZG5JLS2XIIWsmKCfbEMo5Blb61OdQJNperDrTPfdzmKLD5TwtRvB-Cm6TCYnyR9VUYdCWA0lIuvOOvZ5GbKmvwNm6PXOwKaeyny6SiNKZ3ZWX6cwOGa5JqwMmy-N0rHJc6cmeYHIi6yEM-Cdome6Apfnk8hIhGiiBi5SkoCv-h1NrcAgj15nATnD0JGdL3Pj_aysVt-lAbCR6DnScT1e8nkAORnkPxIXVikLNC5b81PIFb3yui5wBTCsKS5GMhJUlFxuoMZIg7SW0CmrbRQObxNRXbzY3led_tEHcKJnb64YhbN_5coSkoOezKiRV11OTFsVzWJ-RyGHD-UICiAGBcy3YgP_N8JR45k-xcGRQ7fKo-mba9r11JtvsMiKNUpOzgk_k-W3PJUriZuDc5g2xUaukIuMycBbh_WD9AiRzipTvBO-IEo7NgFtxSKvCz5adbrTLj1QoLt0q3-UMvDQMcPaiwHZ1JdByDP5VdJUMGDtoDqWvSxdNrJ3GpBTN7SvAMpjPL2cAn5j3-Lxtntk9dbVyvM2leWX8KePNQ1un0NhOa40Ot2raomeLp1qSehIfuR9ZkMc0B5oTWKhC1v6hzTkuh5Rxs5UbNHUljjmLIMexcVJJh4wpt9nErdtqV4skz3Cn_KyNfFIo7M1LYdJjkQ2SEHK3BPT_UAVleSoiUu4igGD8Eu6rnBpUx5pRVAbb2SiWI_bHkm3GW1qdfhUkYGz-0-kcX659R06GjiUw7hPH4e0ktV1xau-3V8HIbvpcvbTfi55jzMpYFmhEXJ8mSEqLnjXjR4TEy-nZZYEV2GD57iwG1H2f3yoY-sPeE63-eY7AXXoym0_ATkRabxnzWJf3vj8Tcnba5dK9th0UvY9kj1n_DnY9n-CKKmC_FldW49KjcAAOZj0m2CiTdyzuU4adY4uGL460-zG7GrmOh0uftlEWSDBTKwT1C3kz0hpTHNJTChe7i-uK-Tqp4Z7D0AXEpUiZHATfZ5Nxo9wCeBWRJYjV9CcYJEz0rA_WQV6zo2CUeWdgHM8WH_J-ZvGA50C6E6XFf6v0LtzKLTi5knrI1EyXD24ndppY6eXLkqUkiEMZ8OF0btd4fEApd6D6vK5hcmEJss92icD4Ntu5CzrFPoJp48NRW9NHVPydqiS266X8hiAN5-EBgoc9pknntDGG4vEE2imFVCsV-PB7qyLKHMHLdCuiCjppHZXYIkNYmXq5x4-0Lp31d4Lsh2qVhaCmOcfpe2NXBtHdpGpAgwued7CH8d_wKkpFqZtFxKT9bRZR0SJRS6ckSPgdQUB0EtLhK5uhX-_2wkz4antGtPvKcq1eRBcWLJEqsOXHOs_nH3fbhJHYOFMejSSlist-8CyMvwAO6N3lGWLc7gCTJXqeSn6EeB3a-m7viIPsrwmM7IdVjDoeZ6KG_QyEQKGAjpx2uG41CuZQEpevDcWDJskPDhlr8UkUBoouZ_Pv0k0h5QsUsfvc0ferKpwyJoQfouwKTG5Q1Q-buKRqZ8mFXkj-30mTQxLahPRNbTSsXJQ1njjBjI9s5GPP4hRjkh91sAu5E3UbtB-qZ1raD4xnjrMZuaZUYGXVXGXV-ycwh88utSpbl1CF_W5251sPRmWzrE9NnGlPwF2sKDoJ3W2F5bjXfugfB4wX69MkuGmshdeF9t9uR7UMADSK50TDkhhrea12s_m40]--></g></svg>