<?xml version="1.0" encoding="us-ascii" standalone="no"?><svg xmlns="http://www.w3.org/2000/svg" xmlns:xlink="http://www.w3.org/1999/xlink" contentStyleType="text/css" height="1410px" preserveAspectRatio="none" style="width:1190px;height:1410px;background:#FFFFFF;" version="1.1" viewBox="0 0 1190 1410" width="1190px" zoomAndPan="magnify"><defs/><g><text fill="#000000" font-family="sans-serif" font-size="14" font-weight="bold" lengthAdjust="spacing" textLength="376" x="400.3" y="23.5352">Saleor Multi-Language Implementation Architecture</text><!--cluster Client Layer--><g id="cluster_Client Layer"><path d="M876.5,43.4883 L963.5,43.4883 A3.75,3.75 0 0 1 966,45.9883 L973,65.9766 L1139.5,65.9766 A2.5,2.5 0 0 1 1142,68.4766 L1142,277.9383 A2.5,2.5 0 0 1 1139.5,280.4383 L876.5,280.4383 A2.5,2.5 0 0 1 874,277.9383 L874,45.9883 A2.5,2.5 0 0 1 876.5,43.4883 " fill="none" style="stroke:#000000;stroke-width:1.5;"/><line style="stroke:#000000;stroke-width:1.5;" x1="874" x2="973" y1="65.9766" y2="65.9766"/><text fill="#000000" font-family="sans-serif" font-size="14" font-weight="bold" lengthAdjust="spacing" textLength="86" x="878" y="59.0234">Client Layer</text></g><!--cluster Next.js Frontend Layer--><g id="cluster_Next.js Frontend Layer"><path d="M204.5,166.4683 L366.5,166.4683 A3.75,3.75 0 0 1 369,168.9683 L376,188.9566 L847.5,188.9566 A2.5,2.5 0 0 1 850,191.4566 L850,671.6283 A2.5,2.5 0 0 1 847.5,674.1283 L204.5,674.1283 A2.5,2.5 0 0 1 202,671.6283 L202,168.9683 A2.5,2.5 0 0 1 204.5,166.4683 " fill="none" style="stroke:#000000;stroke-width:1.5;"/><line style="stroke:#000000;stroke-width:1.5;" x1="202" x2="376" y1="188.9566" y2="188.9566"/><text fill="#000000" font-family="sans-serif" font-size="14" font-weight="bold" lengthAdjust="spacing" textLength="161" x="206" y="182.0034">Next.js Frontend Layer</text></g><!--cluster API Layer--><g id="cluster_API Layer"><path d="M68.5,698.1283 L136.5,698.1283 A3.75,3.75 0 0 1 139,700.6283 L146,720.6166 L568.5,720.6166 A2.5,2.5 0 0 1 571,723.1166 L571,936.7083 A2.5,2.5 0 0 1 568.5,939.2083 L68.5,939.2083 A2.5,2.5 0 0 1 66,936.7083 L66,700.6283 A2.5,2.5 0 0 1 68.5,698.1283 " fill="none" style="stroke:#000000;stroke-width:1.5;"/><line style="stroke:#000000;stroke-width:1.5;" x1="66" x2="146" y1="720.6166" y2="720.6166"/><text fill="#000000" font-family="sans-serif" font-size="14" font-weight="bold" lengthAdjust="spacing" textLength="67" x="70" y="713.6634">API Layer</text></g><!--cluster Saleor Core Layer--><g id="cluster_Saleor Core Layer"><path d="M13.5,963.2083 L139.5,963.2083 A3.75,3.75 0 0 1 142,965.7083 L149,985.6966 L815.5,985.6966 A2.5,2.5 0 0 1 818,988.1966 L818,1074.6883 A2.5,2.5 0 0 1 815.5,1077.1883 L13.5,1077.1883 A2.5,2.5 0 0 1 11,1074.6883 L11,965.7083 A2.5,2.5 0 0 1 13.5,963.2083 " fill="none" style="stroke:#000000;stroke-width:1.5;"/><line style="stroke:#000000;stroke-width:1.5;" x1="11" x2="149" y1="985.6966" y2="985.6966"/><text fill="#000000" font-family="sans-serif" font-size="14" font-weight="bold" lengthAdjust="spacing" textLength="125" x="15" y="978.7434">Saleor Core Layer</text></g><!--cluster Database Layer--><g id="cluster_Database Layer"><path d="M8.5,1101.1883 L118.5,1101.1883 A3.75,3.75 0 0 1 121,1103.6883 L128,1123.6766 L698.5,1123.6766 A2.5,2.5 0 0 1 701,1126.1766 L701,1294.1783 A2.5,2.5 0 0 1 698.5,1296.6783 L8.5,1296.6783 A2.5,2.5 0 0 1 6,1294.1783 L6,1103.6883 A2.5,2.5 0 0 1 8.5,1101.1883 " fill="none" style="stroke:#000000;stroke-width:1.5;"/><line style="stroke:#000000;stroke-width:1.5;" x1="6" x2="128" y1="1123.6766" y2="1123.6766"/><text fill="#000000" font-family="sans-serif" font-size="14" font-weight="bold" lengthAdjust="spacing" textLength="109" x="10" y="1116.7234">Database Layer</text></g><!--cluster DB--><g id="cluster_DB"><path d="M30,1154.1883 C30,1144.1883 353.5,1144.1883 353.5,1144.1883 C353.5,1144.1883 677,1144.1883 677,1154.1883 L677,1262.6783 C677,1272.6783 353.5,1272.6783 353.5,1272.6783 C353.5,1272.6783 30,1272.6783 30,1262.6783 L30,1154.1883 " fill="none" style="stroke:#181818;stroke-width:1.0;"/><path d="M30,1154.1883 C30,1164.1883 353.5,1164.1883 353.5,1164.1883 C353.5,1164.1883 677,1164.1883 677,1154.1883 " fill="none" style="stroke:#181818;stroke-width:1.0;"/><text fill="#000000" font-family="sans-serif" font-size="14" font-style="italic" lengthAdjust="spacing" textLength="77" x="315" y="1179.7234">&#171;Database&#187;</text><text fill="#000000" font-family="sans-serif" font-size="14" font-weight="bold" lengthAdjust="spacing" textLength="83" x="312" y="1196.2117">PostgreSQL</text></g><!--entity Browser--><g id="elem_Browser"><rect fill="#F8F9FA" height="62.9766" rx="2.5" ry="2.5" style="stroke:#6C757D;stroke-width:0.5;" width="130" x="969" y="78.4883"/><rect fill="#F8F9FA" height="10" style="stroke:#6C757D;stroke-width:0.5;" width="15" x="1079" y="83.4883"/><rect fill="#F8F9FA" height="2" style="stroke:#6C757D;stroke-width:0.5;" width="4" x="1077" y="85.4883"/><rect fill="#F8F9FA" height="2" style="stroke:#6C757D;stroke-width:0.5;" width="4" x="1077" y="89.4883"/><text fill="#000000" font-family="sans-serif" font-size="14" font-style="italic" lengthAdjust="spacing" textLength="54" x="1002" y="112.0234">&#171;Client&#187;</text><text fill="#000000" font-family="sans-serif" font-size="14" lengthAdjust="spacing" textLength="90" x="984" y="128.5117">User Browser</text></g><!--entity LangCookie--><g id="elem_LangCookie"><rect fill="#F8F9FA" height="62.9766" rx="2.5" ry="2.5" style="stroke:#6C757D;stroke-width:0.5;" width="236" x="890" y="201.4683"/><rect fill="#F8F9FA" height="10" style="stroke:#6C757D;stroke-width:0.5;" width="15" x="1106" y="206.4683"/><rect fill="#F8F9FA" height="2" style="stroke:#6C757D;stroke-width:0.5;" width="4" x="1104" y="208.4683"/><rect fill="#F8F9FA" height="2" style="stroke:#6C757D;stroke-width:0.5;" width="4" x="1104" y="212.4683"/><text fill="#000000" font-family="sans-serif" font-size="14" font-style="italic" lengthAdjust="spacing" textLength="54" x="976" y="235.0034">&#171;Client&#187;</text><text fill="#000000" font-family="sans-serif" font-size="14" lengthAdjust="spacing" textLength="196" x="905" y="251.4917">Language Preference Cookie</text></g><!--entity LangDetection--><g id="elem_LangDetection"><rect fill="#E6CCFF" height="62.9766" rx="2.5" ry="2.5" style="stroke:#7952B3;stroke-width:0.5;" width="176" x="353" y="328.5783"/><rect fill="#E6CCFF" height="10" style="stroke:#7952B3;stroke-width:0.5;" width="15" x="509" y="333.5783"/><rect fill="#E6CCFF" height="2" style="stroke:#7952B3;stroke-width:0.5;" width="4" x="507" y="335.5783"/><rect fill="#E6CCFF" height="2" style="stroke:#7952B3;stroke-width:0.5;" width="4" x="507" y="339.5783"/><text fill="#000000" font-family="sans-serif" font-size="14" font-style="italic" lengthAdjust="spacing" textLength="81" x="395.5" y="362.1134">&#171;Language&#187;</text><text fill="#000000" font-family="sans-serif" font-size="14" lengthAdjust="spacing" textLength="136" x="368" y="378.6017">Language Detection</text></g><!--entity LangMiddleware--><g id="elem_LangMiddleware"><rect fill="#E6CCFF" height="62.9766" rx="2.5" ry="2.5" style="stroke:#7952B3;stroke-width:0.5;" width="190" x="350" y="455.6883"/><rect fill="#E6CCFF" height="10" style="stroke:#7952B3;stroke-width:0.5;" width="15" x="520" y="460.6883"/><rect fill="#E6CCFF" height="2" style="stroke:#7952B3;stroke-width:0.5;" width="4" x="518" y="462.6883"/><rect fill="#E6CCFF" height="2" style="stroke:#7952B3;stroke-width:0.5;" width="4" x="518" y="466.6883"/><text fill="#000000" font-family="sans-serif" font-size="14" font-style="italic" lengthAdjust="spacing" textLength="81" x="399.5" y="489.2234">&#171;Language&#187;</text><text fill="#000000" font-family="sans-serif" font-size="14" lengthAdjust="spacing" textLength="150" x="365" y="505.7117">Language Middleware</text></g><!--entity i18n--><g id="elem_i18n"><rect fill="#E6CCFF" height="62.9766" rx="2.5" ry="2.5" style="stroke:#7952B3;stroke-width:0.5;" width="122" x="712" y="586.9083"/><rect fill="#E6CCFF" height="10" style="stroke:#7952B3;stroke-width:0.5;" width="15" x="814" y="591.9083"/><rect fill="#E6CCFF" height="2" style="stroke:#7952B3;stroke-width:0.5;" width="4" x="812" y="593.9083"/><rect fill="#E6CCFF" height="2" style="stroke:#7952B3;stroke-width:0.5;" width="4" x="812" y="597.9083"/><text fill="#000000" font-family="sans-serif" font-size="14" font-style="italic" lengthAdjust="spacing" textLength="81" x="727.5" y="620.4434">&#171;Language&#187;</text><text fill="#000000" font-family="sans-serif" font-size="14" lengthAdjust="spacing" textLength="82" x="727" y="636.9317">Next.js i18n</text></g><!--entity LangSwitcher--><g id="elem_LangSwitcher"><rect fill="#E6CCFF" height="62.9766" rx="2.5" ry="2.5" style="stroke:#7952B3;stroke-width:0.5;" width="187" x="283.5" y="201.4683"/><rect fill="#E6CCFF" height="10" style="stroke:#7952B3;stroke-width:0.5;" width="15" x="450.5" y="206.4683"/><rect fill="#E6CCFF" height="2" style="stroke:#7952B3;stroke-width:0.5;" width="4" x="448.5" y="208.4683"/><rect fill="#E6CCFF" height="2" style="stroke:#7952B3;stroke-width:0.5;" width="4" x="448.5" y="212.4683"/><text fill="#000000" font-family="sans-serif" font-size="14" font-style="italic" lengthAdjust="spacing" textLength="81" x="331.5" y="235.0034">&#171;Language&#187;</text><text fill="#000000" font-family="sans-serif" font-size="14" lengthAdjust="spacing" textLength="147" x="298.5" y="251.4917">Language Switcher UI</text></g><!--entity TranslatedUI--><g id="elem_TranslatedUI"><rect fill="#E6CCFF" height="62.9766" rx="2.5" ry="2.5" style="stroke:#7952B3;stroke-width:0.5;" width="223" x="611.5" y="455.6883"/><rect fill="#E6CCFF" height="10" style="stroke:#7952B3;stroke-width:0.5;" width="15" x="814.5" y="460.6883"/><rect fill="#E6CCFF" height="2" style="stroke:#7952B3;stroke-width:0.5;" width="4" x="812.5" y="462.6883"/><rect fill="#E6CCFF" height="2" style="stroke:#7952B3;stroke-width:0.5;" width="4" x="812.5" y="466.6883"/><text fill="#000000" font-family="sans-serif" font-size="14" font-style="italic" lengthAdjust="spacing" textLength="81" x="677.5" y="489.2234">&#171;Language&#187;</text><text fill="#000000" font-family="sans-serif" font-size="14" lengthAdjust="spacing" textLength="183" x="626.5" y="505.7117">Translated UI Components</text></g><!--entity LangURL--><g id="elem_LangURL"><rect fill="#E6CCFF" height="79.4648" rx="2.5" ry="2.5" style="stroke:#7952B3;stroke-width:0.5;" width="204" x="218" y="578.6583"/><rect fill="#E6CCFF" height="10" style="stroke:#7952B3;stroke-width:0.5;" width="15" x="402" y="583.6583"/><rect fill="#E6CCFF" height="2" style="stroke:#7952B3;stroke-width:0.5;" width="4" x="400" y="585.6583"/><rect fill="#E6CCFF" height="2" style="stroke:#7952B3;stroke-width:0.5;" width="4" x="400" y="589.6583"/><text fill="#000000" font-family="sans-serif" font-size="14" font-style="italic" lengthAdjust="spacing" textLength="81" x="274.5" y="612.1934">&#171;Language&#187;</text><text fill="#000000" font-family="sans-serif" font-size="14" lengthAdjust="spacing" textLength="164" x="233" y="628.6817">Language URL Structure</text><text fill="#000000" font-family="sans-serif" font-size="14" lengthAdjust="spacing" textLength="108" x="233" y="645.17">(/nl/, /de/, etc.)</text></g><g id="elem_GMN12"><path d="M564,324.4383 L564,356.0583 L529.44,360.0583 L564,364.0583 L564,395.6805 A0,0 0 0 0 564,395.6805 L834,395.6805 A0,0 0 0 0 834,395.6805 L834,334.4383 L824,324.4383 L564,324.4383 A0,0 0 0 0 564,324.4383 " fill="#FEFFDD" style="stroke:#181818;stroke-width:0.5;"/><path d="M824,324.4383 L824,334.4383 L834,334.4383 L824,324.4383 " fill="#FEFFDD" style="stroke:#181818;stroke-width:0.5;"/><text fill="#000000" font-family="sans-serif" font-size="13" lengthAdjust="spacing" textLength="249" x="570" y="342.0066">Detects user's preferred language from:</text><text fill="#000000" font-family="sans-serif" font-size="13" lengthAdjust="spacing" textLength="130" x="570" y="357.3172">1. URL path segment</text><text fill="#000000" font-family="sans-serif" font-size="13" lengthAdjust="spacing" textLength="60" x="570" y="372.6277">2. Cookie</text><text fill="#000000" font-family="sans-serif" font-size="13" lengthAdjust="spacing" textLength="120" x="570" y="387.9383">3. Browser settings</text></g><g id="elem_GMN15"><path d="M456.5,598.0783 L456.5,614.3883 L422.27,618.3883 L456.5,622.3883 L456.5,638.6994 A0,0 0 0 0 456.5,638.6994 L677.5,638.6994 A0,0 0 0 0 677.5,638.6994 L677.5,608.0783 L667.5,598.0783 L456.5,598.0783 A0,0 0 0 0 456.5,598.0783 " fill="#FEFFDD" style="stroke:#181818;stroke-width:0.5;"/><path d="M667.5,598.0783 L667.5,608.0783 L677.5,608.0783 L667.5,598.0783 " fill="#FEFFDD" style="stroke:#181818;stroke-width:0.5;"/><text fill="#000000" font-family="sans-serif" font-size="13" lengthAdjust="spacing" textLength="200" x="462.5" y="615.6466">SEO-friendly URL structure with</text><text fill="#000000" font-family="sans-serif" font-size="13" lengthAdjust="spacing" textLength="176" x="462.5" y="630.9572">language as a path segment</text></g><!--entity API--><g id="elem_API"><rect fill="#E6F3FF" height="62.9766" rx="2.5" ry="2.5" style="stroke:#0D6EFD;stroke-width:0.5;" width="126" x="323" y="860.2383"/><rect fill="#E6F3FF" height="10" style="stroke:#0D6EFD;stroke-width:0.5;" width="15" x="429" y="865.2383"/><rect fill="#E6F3FF" height="2" style="stroke:#0D6EFD;stroke-width:0.5;" width="4" x="427" y="867.2383"/><rect fill="#E6F3FF" height="2" style="stroke:#0D6EFD;stroke-width:0.5;" width="4" x="427" y="871.2383"/><text fill="#000000" font-family="sans-serif" font-size="14" font-style="italic" lengthAdjust="spacing" textLength="36" x="363" y="893.7734">&#171;API&#187;</text><text fill="#000000" font-family="sans-serif" font-size="14" lengthAdjust="spacing" textLength="86" x="338" y="910.2617">GraphQL API</text></g><!--entity LangContext--><g id="elem_LangContext"><rect fill="#E6CCFF" height="62.9766" rx="2.5" ry="2.5" style="stroke:#7952B3;stroke-width:0.5;" width="166" x="82" y="733.1283"/><rect fill="#E6CCFF" height="10" style="stroke:#7952B3;stroke-width:0.5;" width="15" x="228" y="738.1283"/><rect fill="#E6CCFF" height="2" style="stroke:#7952B3;stroke-width:0.5;" width="4" x="226" y="740.1283"/><rect fill="#E6CCFF" height="2" style="stroke:#7952B3;stroke-width:0.5;" width="4" x="226" y="744.1283"/><text fill="#000000" font-family="sans-serif" font-size="14" font-style="italic" lengthAdjust="spacing" textLength="81" x="119.5" y="766.6634">&#171;Language&#187;</text><text fill="#000000" font-family="sans-serif" font-size="14" lengthAdjust="spacing" textLength="126" x="97" y="783.1517">Language Context</text></g><!--entity GraphQLLang--><g id="elem_GraphQLLang"><rect fill="#E6F3FF" height="62.9766" rx="2.5" ry="2.5" style="stroke:#0D6EFD;stroke-width:0.5;" width="271" x="283.5" y="733.1283"/><rect fill="#E6F3FF" height="10" style="stroke:#0D6EFD;stroke-width:0.5;" width="15" x="534.5" y="738.1283"/><rect fill="#E6F3FF" height="2" style="stroke:#0D6EFD;stroke-width:0.5;" width="4" x="532.5" y="740.1283"/><rect fill="#E6F3FF" height="2" style="stroke:#0D6EFD;stroke-width:0.5;" width="4" x="532.5" y="744.1283"/><text fill="#000000" font-family="sans-serif" font-size="14" font-style="italic" lengthAdjust="spacing" textLength="36" x="396" y="766.6634">&#171;API&#187;</text><text fill="#000000" font-family="sans-serif" font-size="14" lengthAdjust="spacing" textLength="231" x="298.5" y="783.1517">GraphQL with Language Variables</text></g><!--entity TranslationMgmt--><g id="elem_TranslationMgmt"><rect fill="#E6CCFF" height="62.9766" rx="2.5" ry="2.5" style="stroke:#7952B3;stroke-width:0.5;" width="211" x="27.5" y="998.2083"/><rect fill="#E6CCFF" height="10" style="stroke:#7952B3;stroke-width:0.5;" width="15" x="218.5" y="1003.2083"/><rect fill="#E6CCFF" height="2" style="stroke:#7952B3;stroke-width:0.5;" width="4" x="216.5" y="1005.2083"/><rect fill="#E6CCFF" height="2" style="stroke:#7952B3;stroke-width:0.5;" width="4" x="216.5" y="1009.2083"/><text fill="#000000" font-family="sans-serif" font-size="14" font-style="italic" lengthAdjust="spacing" textLength="81" x="87.5" y="1031.7434">&#171;Language&#187;</text><text fill="#000000" font-family="sans-serif" font-size="14" lengthAdjust="spacing" textLength="171" x="42.5" y="1048.2317">Translation Management</text></g><!--entity ProductModule--><g id="elem_ProductModule"><rect fill="#E6F9F7" height="62.9766" rx="2.5" ry="2.5" style="stroke:#20C997;stroke-width:0.5;" width="148" x="469" y="998.2083"/><rect fill="#E6F9F7" height="10" style="stroke:#20C997;stroke-width:0.5;" width="15" x="597" y="1003.2083"/><rect fill="#E6F9F7" height="2" style="stroke:#20C997;stroke-width:0.5;" width="4" x="595" y="1005.2083"/><rect fill="#E6F9F7" height="2" style="stroke:#20C997;stroke-width:0.5;" width="4" x="595" y="1009.2083"/><text fill="#000000" font-family="sans-serif" font-size="14" font-style="italic" lengthAdjust="spacing" textLength="50" x="513" y="1031.7434">&#171;Store&#187;</text><text fill="#000000" font-family="sans-serif" font-size="14" lengthAdjust="spacing" textLength="108" x="484" y="1048.2317">Product Module</text></g><!--entity ContentModule--><g id="elem_ContentModule"><rect fill="#E6F9F7" height="62.9766" rx="2.5" ry="2.5" style="stroke:#20C997;stroke-width:0.5;" width="150" x="652" y="998.2083"/><rect fill="#E6F9F7" height="10" style="stroke:#20C997;stroke-width:0.5;" width="15" x="782" y="1003.2083"/><rect fill="#E6F9F7" height="2" style="stroke:#20C997;stroke-width:0.5;" width="4" x="780" y="1005.2083"/><rect fill="#E6F9F7" height="2" style="stroke:#20C997;stroke-width:0.5;" width="4" x="780" y="1009.2083"/><text fill="#000000" font-family="sans-serif" font-size="14" font-style="italic" lengthAdjust="spacing" textLength="50" x="697" y="1031.7434">&#171;Store&#187;</text><text fill="#000000" font-family="sans-serif" font-size="14" lengthAdjust="spacing" textLength="110" x="667" y="1048.2317">Content Module</text></g><!--entity SEOModule--><g id="elem_SEOModule"><rect fill="#E6F9F7" height="62.9766" rx="2.5" ry="2.5" style="stroke:#20C997;stroke-width:0.5;" width="160" x="274" y="998.2083"/><rect fill="#E6F9F7" height="10" style="stroke:#20C997;stroke-width:0.5;" width="15" x="414" y="1003.2083"/><rect fill="#E6F9F7" height="2" style="stroke:#20C997;stroke-width:0.5;" width="4" x="412" y="1005.2083"/><rect fill="#E6F9F7" height="2" style="stroke:#20C997;stroke-width:0.5;" width="4" x="412" y="1009.2083"/><text fill="#000000" font-family="sans-serif" font-size="14" font-style="italic" lengthAdjust="spacing" textLength="50" x="324" y="1031.7434">&#171;Store&#187;</text><text fill="#000000" font-family="sans-serif" font-size="14" lengthAdjust="spacing" textLength="120" x="289" y="1048.2317">SEO Management</text></g><!--entity BaseContent--><g id="elem_BaseContent"><rect fill="#F1F1F1" height="46.4883" rx="2.5" ry="2.5" style="stroke:#181818;stroke-width:0.5;" width="201" x="459.5" y="1210.1883"/><rect fill="#F1F1F1" height="10" style="stroke:#181818;stroke-width:0.5;" width="15" x="640.5" y="1215.1883"/><rect fill="#F1F1F1" height="2" style="stroke:#181818;stroke-width:0.5;" width="4" x="638.5" y="1217.1883"/><rect fill="#F1F1F1" height="2" style="stroke:#181818;stroke-width:0.5;" width="4" x="638.5" y="1221.1883"/><text fill="#000000" font-family="sans-serif" font-size="14" lengthAdjust="spacing" textLength="161" x="474.5" y="1243.7234">Base Language Content</text></g><!--entity Translations--><g id="elem_Translations"><rect fill="#F1F1F1" height="46.4883" rx="2.5" ry="2.5" style="stroke:#181818;stroke-width:0.5;" width="169" x="255.5" y="1210.1883"/><rect fill="#F1F1F1" height="10" style="stroke:#181818;stroke-width:0.5;" width="15" x="404.5" y="1215.1883"/><rect fill="#F1F1F1" height="2" style="stroke:#181818;stroke-width:0.5;" width="4" x="402.5" y="1217.1883"/><rect fill="#F1F1F1" height="2" style="stroke:#181818;stroke-width:0.5;" width="4" x="402.5" y="1221.1883"/><text fill="#000000" font-family="sans-serif" font-size="14" lengthAdjust="spacing" textLength="129" x="270.5" y="1243.7234">Translation Entries</text></g><!--entity LangMeta--><g id="elem_LangMeta"><rect fill="#F1F1F1" height="46.4883" rx="2.5" ry="2.5" style="stroke:#181818;stroke-width:0.5;" width="174" x="46" y="1210.1883"/><rect fill="#F1F1F1" height="10" style="stroke:#181818;stroke-width:0.5;" width="15" x="200" y="1215.1883"/><rect fill="#F1F1F1" height="2" style="stroke:#181818;stroke-width:0.5;" width="4" x="198" y="1217.1883"/><rect fill="#F1F1F1" height="2" style="stroke:#181818;stroke-width:0.5;" width="4" x="198" y="1221.1883"/><text fill="#000000" font-family="sans-serif" font-size="14" lengthAdjust="spacing" textLength="134" x="61" y="1243.7234">Language Metadata</text></g><g id="elem_GMN59"><path d="M250.5,1316.6783 L250.5,1403.231 A0,0 0 0 0 250.5,1403.231 L429.5,1403.231 A0,0 0 0 0 429.5,1403.231 L429.5,1326.6783 L419.5,1316.6783 L344,1316.6783 L340,1256.9783 L336,1316.6783 L250.5,1316.6783 A0,0 0 0 0 250.5,1316.6783 " fill="#FEFFDD" style="stroke:#181818;stroke-width:0.5;"/><path d="M419.5,1316.6783 L419.5,1326.6783 L429.5,1326.6783 L419.5,1316.6783 " fill="#FEFFDD" style="stroke:#181818;stroke-width:0.5;"/><text fill="#000000" font-family="sans-serif" font-size="13" lengthAdjust="spacing" textLength="158" x="256.5" y="1334.2466">Translation entries store:</text><text fill="#000000" font-family="sans-serif" font-size="13" lengthAdjust="spacing" textLength="119" x="256.5" y="1349.5572">- Related object ID</text><text fill="#000000" font-family="sans-serif" font-size="13" lengthAdjust="spacing" textLength="80" x="256.5" y="1364.8677">- Field name</text><text fill="#000000" font-family="sans-serif" font-size="13" lengthAdjust="spacing" textLength="106" x="256.5" y="1380.1783">- Language code</text><text fill="#000000" font-family="sans-serif" font-size="13" lengthAdjust="spacing" textLength="130" x="256.5" y="1395.4888">- Translated content</text></g><g id="elem_GMN62"><path d="M650.5,728.9883 L650.5,800.2305 A0,0 0 0 0 650.5,800.2305 L895.5,800.2305 A0,0 0 0 0 895.5,800.2305 L895.5,738.9883 L885.5,728.9883 L777,728.9883 L773,650.3283 L769,728.9883 L650.5,728.9883 A0,0 0 0 0 650.5,728.9883 " fill="#FEFFDD" style="stroke:#181818;stroke-width:0.5;"/><path d="M885.5,728.9883 L885.5,738.9883 L895.5,738.9883 L885.5,728.9883 " fill="#FEFFDD" style="stroke:#181818;stroke-width:0.5;"/><text fill="#000000" font-family="sans-serif" font-size="13" lengthAdjust="spacing" textLength="57" x="656.5" y="746.5566">Provides:</text><text fill="#000000" font-family="sans-serif" font-size="13" lengthAdjust="spacing" textLength="147" x="656.5" y="761.8672">- Translation functions</text><text fill="#000000" font-family="sans-serif" font-size="13" lengthAdjust="spacing" textLength="224" x="656.5" y="777.1777">- Format handling (dates, numbers)</text><text fill="#000000" font-family="sans-serif" font-size="13" lengthAdjust="spacing" textLength="148" x="656.5" y="792.4883">- Right-to-left support</text></g><g id="elem_GMN65"><path d="M587.5,871.4083 L587.5,912.0294 L816.5,912.0294 L816.5,881.4083 L806.5,871.4083 L587.5,871.4083 " fill="#FEFFDD" style="stroke:#181818;stroke-width:0.5;"/><path d="M806.5,871.4083 L806.5,881.4083 L816.5,881.4083 L806.5,871.4083 " fill="#FEFFDD" style="stroke:#181818;stroke-width:1.0;"/><text fill="#000000" font-family="sans-serif" font-size="13" lengthAdjust="spacing" textLength="208" x="593.5" y="888.9766">GraphQL requests always include</text><text fill="#000000" font-family="sans-serif" font-size="13" lengthAdjust="spacing" textLength="182" x="593.5" y="904.2872">the current language context</text></g><!--link Browser to LangDetection--><g id="link_Browser_LangDetection"><path d="M1099.22,125.0183 C1116.7,132.0783 1133.6,142.6483 1144,158.4683 C1175.74,206.7383 1183.6,246.3783 1144,288.4383 C1098.45,336.8283 612.28,312.0283 547,324.4383 C543.19,325.1683 539.33,325.9883 535.45,326.8883 " fill="none" id="Browser-to-LangDetection" style="stroke:#181818;stroke-width:1.0;"/><polygon fill="#181818" points="530.81,328.0083,540.497,329.7867,535.6706,326.836,538.6213,322.0097,530.81,328.0083" style="stroke:#181818;stroke-width:1.0;"/></g><!--link Browser to LangCookie--><g id="link_Browser_LangCookie"><path d="M1027.37,141.8183 C1023.89,158.0283 1019.59,178.0083 1015.93,195.0383 " fill="none" id="Browser-to-LangCookie" style="stroke:#181818;stroke-width:1.0;"/><polygon fill="#181818" points="1014.93,199.6883,1020.7381,191.7343,1015.9845,194.8007,1012.918,190.0471,1014.93,199.6883" style="stroke:#181818;stroke-width:1.0;"/></g><!--link LangCookie to LangDetection--><g id="link_LangCookie_LangDetection"><path d="M928.99,264.9083 C904.05,273.6683 876.16,282.4483 850,288.4383 C717.81,318.7183 679.43,295.2483 547,324.4383 C543.22,325.2783 539.38,326.1883 535.51,327.1683 " fill="none" id="LangCookie-to-LangDetection" style="stroke:#181818;stroke-width:1.0;"/><polygon fill="#181818" points="530.89,328.3783,540.6107,329.9618,535.7261,327.1086,538.5793,322.224,530.89,328.3783" style="stroke:#181818;stroke-width:1.0;"/></g><!--link LangDetection to LangMiddleware--><g id="link_LangDetection_LangMiddleware"><path d="M441.99,391.9883 C442.55,409.4083 443.24,431.2783 443.83,449.5483 " fill="none" id="LangDetection-to-LangMiddleware" style="stroke:#181818;stroke-width:1.0;"/><polygon fill="#181818" points="443.97,454.0883,447.6845,444.9667,443.8125,449.0908,439.6885,445.2188,443.97,454.0883" style="stroke:#181818;stroke-width:1.0;"/></g><!--link LangMiddleware to i18n--><g id="link_LangMiddleware_i18n"><path d="M538.29,519.1083 C585.71,535.5483 643.96,556.8383 695,578.6583 C698.83,580.2983 702.74,582.0283 706.66,583.8183 " fill="none" id="LangMiddleware-to-i18n" style="stroke:#181818;stroke-width:1.0;"/><polygon fill="#181818" points="711.05,585.8483,704.559,578.441,706.5115,583.7503,701.2022,585.7027,711.05,585.8483" style="stroke:#181818;stroke-width:1.0;"/></g><!--link LangMiddleware to LangURL--><g id="link_LangMiddleware_LangURL"><path d="M415.06,519.1283 C399.21,535.5083 379.49,555.8883 362.13,573.8483 " fill="none" id="LangMiddleware-to-LangURL" style="stroke:#181818;stroke-width:1.0;"/><polygon fill="#181818" points="358.82,577.2683,367.9539,573.5844,362.2978,573.676,362.2062,568.0199,358.82,577.2683" style="stroke:#181818;stroke-width:1.0;"/></g><!--link LangURL to GraphQLLang--><g id="link_LangURL_GraphQLLang"><path d="M346.79,658.4183 C361.57,679.9583 379.8,706.5083 394.25,727.5583 " fill="none" id="LangURL-to-GraphQLLang" style="stroke:#181818;stroke-width:1.0;"/><polygon fill="#181818" points="396.98,731.5283,395.1774,721.8458,394.1474,727.4081,388.5851,726.378,396.98,731.5283" style="stroke:#181818;stroke-width:1.0;"/></g><!--link TranslatedUI to i18n--><g id="link_TranslatedUI_i18n"><path d="M734.98,519.1283 C742.15,537.6683 751.31,561.3383 758.84,580.7983 " fill="none" id="TranslatedUI-to-i18n" style="stroke:#181818;stroke-width:1.0;"/><polygon fill="#181818" points="760.58,585.2783,761.0664,575.4414,758.7774,580.6145,753.6044,578.3255,760.58,585.2783" style="stroke:#181818;stroke-width:1.0;"/></g><!--link LangSwitcher to LangDetection--><g id="link_LangSwitcher_LangDetection"><path d="M392.82,264.8783 C401.81,282.4583 413.11,304.5483 422.51,322.9183 " fill="none" id="LangSwitcher-to-LangDetection" style="stroke:#181818;stroke-width:1.0;"/><polygon fill="#181818" points="424.67,327.1483,424.1346,317.314,422.3939,322.6964,417.0116,320.9557,424.67,327.1483" style="stroke:#181818;stroke-width:1.0;"/></g><!--link LangSwitcher to LangURL--><g id="link_LangSwitcher_LangURL"><path d="M359.59,264.7483 C350.86,281.7883 341.08,303.6683 336,324.4383 C315.03,410.1283 315.11,513.9583 317.36,572.1583 " fill="none" id="LangSwitcher-to-LangURL" style="stroke:#181818;stroke-width:1.0;"/><polygon fill="#181818" points="317.55,576.8283,321.186,567.6752,317.3496,571.8323,313.1925,567.9958,317.55,576.8283" style="stroke:#181818;stroke-width:1.0;"/></g><!--link i18n to GraphQLLang--><g id="link_i18n_GraphQLLang"><path d="M742.62,650.3483 C729.15,662.2283 712.43,674.6983 695,682.1283 C669.44,693.0183 660.06,683.7983 633,690.1283 C589.07,700.3883 541.48,716.2383 502.36,730.5883 " fill="none" id="i18n-to-GraphQLLang" style="stroke:#181818;stroke-width:1.0;"/><polygon fill="#181818" points="498.07,732.1683,507.8982,732.8061,502.761,730.4378,505.1294,725.3006,498.07,732.1683" style="stroke:#181818;stroke-width:1.0;"/></g><!--link GraphQLLang to API--><g id="link_GraphQLLang_API"><path d="M410.84,796.5383 C406.25,813.9583 400.48,835.8283 395.66,854.1083 " fill="none" id="GraphQLLang-to-API" style="stroke:#181818;stroke-width:1.0;"/><polygon fill="#181818" points="394.45,858.6883,400.6043,850.999,395.7197,853.8522,392.8665,848.9676,394.45,858.6883" style="stroke:#181818;stroke-width:1.0;"/></g><!--link LangMiddleware to LangContext--><g id="link_LangMiddleware_LangContext"><path d="M349.56,500.6983 C298.24,512.3983 238.06,535.0083 201,578.6583 C165.83,620.0783 161.14,685.6183 162.19,726.5383 " fill="none" id="LangMiddleware-to-LangContext" style="stroke:#181818;stroke-width:1.0;"/><polygon fill="#181818" points="162.35,731.3783,166.0384,722.2461,162.1782,726.3812,158.0431,722.5211,162.35,731.3783" style="stroke:#181818;stroke-width:1.0;"/></g><!--link LangContext to API--><g id="link_LangContext_API"><path d="M219.63,796.5383 C252.02,814.8783 293.11,838.1383 326.35,856.9583 " fill="none" id="LangContext-to-API" style="stroke:#181818;stroke-width:1.0;"/><polygon fill="#181818" points="330.3,859.1883,324.4366,851.275,325.9483,856.7261,320.4971,858.2378,330.3,859.1883" style="stroke:#181818;stroke-width:1.0;"/></g><!--link API to TranslationMgmt--><g id="link_API_TranslationMgmt"><path d="M322.81,922.0283 C301.69,932.1683 278.15,943.8483 257,955.2083 C234.14,967.4983 209.45,981.8883 188.16,994.6583 " fill="none" id="API-to-TranslationMgmt" style="stroke:#181818;stroke-width:1.0;"/><polygon fill="#181818" points="184.13,997.0883,193.9054,995.8878,188.4175,994.5158,189.7895,989.0278,184.13,997.0883" style="stroke:#181818;stroke-width:1.0;"/></g><!--link API to ProductModule--><g id="link_API_ProductModule"><path d="M421.63,923.5783 C445.63,944.3683 477.35,971.8383 502.34,993.4783 " fill="none" id="API-to-ProductModule" style="stroke:#181818;stroke-width:1.0;"/><polygon fill="#181818" points="506.1,996.7383,501.9416,987.8104,502.33,993.4539,496.6865,993.8423,506.1,996.7383" style="stroke:#181818;stroke-width:1.0;"/></g><!--link API to ContentModule--><g id="link_API_ContentModule"><path d="M449.21,914.2583 C484.4,925.5383 529.23,938.7283 570,947.2083 C598.5,953.1383 608.17,943.9283 635,955.2083 C656.36,964.1983 676.84,979.6283 693.03,994.0383 " fill="none" id="API-to-ContentModule" style="stroke:#181818;stroke-width:1.0;"/><polygon fill="#181818" points="696.36,997.0583,692.3826,988.0483,692.6571,993.6985,687.0069,993.973,696.36,997.0583" style="stroke:#181818;stroke-width:1.0;"/></g><!--link API to SEOModule--><g id="link_API_SEOModule"><path d="M378.74,923.5783 C373.97,943.8283 367.71,970.4283 362.68,991.7983 " fill="none" id="API-to-SEOModule" style="stroke:#181818;stroke-width:1.0;"/><polygon fill="#181818" points="361.58,996.4883,367.5299,988.6398,362.722,991.6204,359.7414,986.8126,361.58,996.4883" style="stroke:#181818;stroke-width:1.0;"/></g><!--link TranslationMgmt to BaseContent--><g id="link_TranslationMgmt_BaseContent"><path d="M191.37,1061.6683 C211.6,1070.9383 234.78,1080.0183 257,1085.1883 C277.04,1089.8483 423.52,1084.1383 442,1093.1883 C490.55,1116.9683 526.81,1170.9083 545.58,1204.2383 " fill="none" id="TranslationMgmt-to-BaseContent" style="stroke:#181818;stroke-width:1.0;"/><polygon fill="#181818" points="547.93,1208.4783,547.0558,1198.6683,545.5018,1204.1075,540.0626,1202.5534,547.93,1208.4783" style="stroke:#181818;stroke-width:1.0;"/></g><!--link TranslationMgmt to Translations--><g id="link_TranslationMgmt_Translations"><path d="M194.47,1061.6783 C209.54,1070.7383 225.05,1081.4183 238,1093.1883 C274.43,1126.2983 306.11,1174.2483 324.13,1204.3683 " fill="none" id="TranslationMgmt-to-Translations" style="stroke:#181818;stroke-width:1.0;"/><polygon fill="#181818" points="326.56,1208.4683,325.4219,1198.6854,324.0149,1204.1645,318.5358,1202.7576,326.56,1208.4683" style="stroke:#181818;stroke-width:1.0;"/></g><!--link TranslationMgmt to LangMeta--><g id="link_TranslationMgmt_LangMeta"><path d="M133,1061.3383 C133,1099.9983 133,1165.9683 133,1203.6983 " fill="none" id="TranslationMgmt-to-LangMeta" style="stroke:#181818;stroke-width:1.0;"/><polygon fill="#181818" points="133,1208.4383,137,1199.4383,133,1203.4383,129,1199.4383,133,1208.4383" style="stroke:#181818;stroke-width:1.0;"/></g><!--link ProductModule to BaseContent--><g id="link_ProductModule_BaseContent"><path d="M545.58,1061.3383 C548.84,1099.9983 554.4,1165.9683 557.58,1203.6983 " fill="none" id="ProductModule-to-BaseContent" style="stroke:#181818;stroke-width:1.0;"/><polygon fill="#181818" points="557.98,1208.4483,561.2188,1199.1472,557.5648,1203.4656,553.2464,1199.8116,557.98,1208.4483" style="stroke:#181818;stroke-width:1.0;"/></g><!--link ProductModule to Translations--><g id="link_ProductModule_Translations"><path d="M484.44,1061.6583 C469.78,1070.7883 454.64,1081.4983 442,1093.1883 C405.86,1126.6083 374.1,1174.4783 355.98,1204.4883 " fill="none" id="ProductModule-to-Translations" style="stroke:#181818;stroke-width:1.0;"/><polygon fill="#181818" points="353.53,1208.5783,361.5765,1202.8991,356.0919,1204.2845,354.7065,1198.7999,353.53,1208.5783" style="stroke:#181818;stroke-width:1.0;"/></g><!--link ContentModule to BaseContent--><g id="link_ContentModule_BaseContent"><path d="M701.64,1061.3383 C669.24,1100.4783 613.66,1167.6083 582.63,1205.0883 " fill="none" id="ContentModule-to-BaseContent" style="stroke:#181818;stroke-width:1.0;"/><polygon fill="#181818" points="579.57,1208.7883,588.395,1204.4157,582.7625,1204.9402,582.238,1199.3077,579.57,1208.7883" style="stroke:#181818;stroke-width:1.0;"/></g><!--link ContentModule to Translations--><g id="link_ContentModule_Translations"><path d="M685.06,1061.4383 C670.01,1070.8183 652.44,1080.0183 635,1085.1883 C614.42,1091.2883 460.94,1083.0883 442,1093.1883 C396.89,1117.2483 366.6,1171.0983 351.41,1204.3283 " fill="none" id="ContentModule-to-Translations" style="stroke:#181818;stroke-width:1.0;"/><polygon fill="#181818" points="349.55,1208.4983,356.8739,1201.9134,351.59,1203.9334,349.57,1198.6494,349.55,1208.4983" style="stroke:#181818;stroke-width:1.0;"/></g><!--link SEOModule to BaseContent--><g id="link_SEOModule_BaseContent"><path d="M401.8,1061.3883 C415.34,1070.9183 429.71,1081.9083 442,1093.1883 C480.18,1128.2283 517.73,1175.3283 539.88,1204.7783 " fill="none" id="SEOModule-to-BaseContent" style="stroke:#181818;stroke-width:1.0;"/><polygon fill="#181818" points="542.66,1208.4883,540.4764,1198.8845,539.6668,1204.4832,534.0682,1203.6736,542.66,1208.4883" style="stroke:#181818;stroke-width:1.0;"/></g><!--link SEOModule to Translations--><g id="link_SEOModule_Translations"><path d="M351.87,1061.3383 C349.19,1099.9983 344.61,1165.9683 341.99,1203.6983 " fill="none" id="SEOModule-to-Translations" style="stroke:#181818;stroke-width:1.0;"/><polygon fill="#181818" points="341.66,1208.4483,346.268,1199.7439,342.003,1203.4601,338.2869,1199.1951,341.66,1208.4483" style="stroke:#181818;stroke-width:1.0;"/></g><!--link LangContext to GMN65--><g id="link_LangContext_GMN65"><path d="M248.23,795.1283 C254.21,796.9483 260.18,798.6683 266,800.2383 C399.43,836.0483 435.92,831.2383 571,860.2383 C586.52,863.5683 603.05,867.2783 618.94,870.9383 " fill="none" id="LangContext-GMN65" style="stroke:#181818;stroke-width:1.0;stroke-dasharray:7.0,7.0;"/></g><!--SRC=[ZLPjRzis4FwkNt78FgG5QkTjYPEY213BqH30tj9wsPTk7sZfRAkHI8sabWP5_lkEb4H9b6qK26BptlZSyRax7yCCrob7KFerGnMevvGNJB8SOf4NWYFNy2C0cBBuUID5oPDGP49- -XHcAUbkR-6Nw3gwYUwCZP09oe7-AfnSJcQxOimPtvHiWyRg_YeCeyYFqhMOt5oUJozsnRbxVAX2H1V34BNoT7Pr7-r4iTH2rX0eaOdlxzJdf-7DpMHNX1dJRCKKrjKu7OBeMbn5lvw7PpjhAhXkYdeQJMQ3C1s3IJYzFBiEte90fpf3MB8CXOH5cUbqr9GD7l8YmvnSc4u5XpiPRrEDiIub1i4nL8y4S_QACYW8Zl4vwagFxEktNFZwf532L8eN-lm7c6g-G_laVGU7vL7Y6YNo624KuZb5wsxKrR4RuSsWYwHDD_7n_OxVzVYRylG3fExY6PgKANztePD0bs9xt1TfacJumcGBk1KT2D30JC-kgvlDbv-vSFcIwdXB9NrwS3SwsNx_FoNZAcCQ4tAa4jSAPMEqIjBz18QdBtDOQbbQglpDtvtmxEG3d2H8_r77u_SEcR7q0j8V5nf1ffkj1h7krvoqKB-9WfAeSwoWiDoG13rh4Aobo3zQsxEnXLCmlGM56qDdApyVrqIofuknew92hLE-KIGtz31Ozg6YmDPxUV_7Q2s9VKdsQczJJV90bTzQ6mUDCcS-77UHfIuD7P-rJZGWwc-I5TlFS-DagseiwxcrvtNi7FYkEmrapmSUjhd390CkpbzCfcn5Szz6gcsCrjrlix4ZqC-d7ZYXKmtoQZXd-cp1E7cPMlNeIAh59Zy4_56AX1u25lIHLHrOYoe9k0dTzwj7PTUl5Xts8oBuO4aqyB5rQQQwNvg-lAfBqiYE7eNI6udBp_CZ4tqsXTv- -66vzdLQ-NSVl8PZDFMvCktM-PvhOh7oYwmgotQceMO6KJlHI40sRrLY59vNpQg2fgb6erklZtrDtOoTYJxq2VhZjp5e1shWpLTZOGRdBddJmCqOCh8EYOEWD_LwaTmy7KBSgJRN17Q0-vTqkyReg6_sOQtRDEYsRECIcAut1wyrdBp7UYVjSTf97MFR4ZITPjHT1ktIzuYpoy0n9kZteXzygEs5xZUaxppKzfpRhlGT-vgUKs0tm4feBNAp0hmMwNOILfr4Yu0wtYoY4Np1QhsArJVY2ZpCh3HACQFPptAqHzTZiKWgIMSnnpL4joryG9QWO1xxlpH1zR4NmC1QbpnkuDBTGkPCmvRHtgAD1- -egL5z05xcAvJgVGNRBBoH5gCCrnfKMHH27e3GPIeqL0U9_vQeQ6Epx8MzqeyP7cUbJL1lATUIbZUDpwnDlWhWRlaV]--></g></svg>