<?xml version="1.0" encoding="us-ascii" standalone="no"?><svg xmlns="http://www.w3.org/2000/svg" xmlns:xlink="http://www.w3.org/1999/xlink" contentStyleType="text/css" height="1108px" preserveAspectRatio="none" style="width:1286px;height:1108px;background:#FFFFFF;" version="1.1" viewBox="0 0 1286 1108" width="1286px" zoomAndPan="magnify"><defs/><g><text fill="#000000" font-family="sans-serif" font-size="14" font-weight="bold" lengthAdjust="spacing" textLength="395" x="438.75" y="23.5352">Saleor Multi-Region Architecture with Channel System</text><!--cluster Domain Routing--><g id="cluster_Domain Routing"><path d="M225.5,43.4883 L344.5,43.4883 A3.75,3.75 0 0 1 347,45.9883 L354,65.9766 L768.5,65.9766 A2.5,2.5 0 0 1 771,68.4766 L771,138.4683 A2.5,2.5 0 0 1 768.5,140.9683 L225.5,140.9683 A2.5,2.5 0 0 1 223,138.4683 L223,45.9883 A2.5,2.5 0 0 1 225.5,43.4883 " fill="#E6F3FF" style="stroke:#0D6EFD;stroke-width:1.5;"/><line style="stroke:#0D6EFD;stroke-width:1.5;" x1="223" x2="354" y1="65.9766" y2="65.9766"/><text fill="#000000" font-family="sans-serif" font-size="14" font-weight="bold" lengthAdjust="spacing" textLength="118" x="227" y="59.0234">Domain Routing</text></g><!--cluster CDN / Edge Caching--><g id="cluster_CDN / Edge Caching"><path d="M403.5,164.9683 L550.5,164.9683 A3.75,3.75 0 0 1 553,167.4683 L560,187.4566 L586.5,187.4566 A2.5,2.5 0 0 1 589,189.9566 L589,259.9583 A2.5,2.5 0 0 1 586.5,262.4583 L403.5,262.4583 A2.5,2.5 0 0 1 401,259.9583 L401,167.4683 A2.5,2.5 0 0 1 403.5,164.9683 " fill="#E6F3FF" style="stroke:#0D6EFD;stroke-width:1.5;"/><line style="stroke:#0D6EFD;stroke-width:1.5;" x1="401" x2="560" y1="187.4566" y2="187.4566"/><text fill="#000000" font-family="sans-serif" font-size="14" font-weight="bold" lengthAdjust="spacing" textLength="146" x="405" y="180.5034">CDN / Edge Caching</text></g><!--cluster Next.js Storefront--><g id="cluster_Next.js Storefront"><path d="M206.5,286.4583 L334.5,286.4583 A3.75,3.75 0 0 1 337,288.9583 L344,308.9466 L743.5,308.9466 A2.5,2.5 0 0 1 746,311.4466 L746,594.4283 A2.5,2.5 0 0 1 743.5,596.9283 L206.5,596.9283 A2.5,2.5 0 0 1 204,594.4283 L204,288.9583 A2.5,2.5 0 0 1 206.5,286.4583 " fill="#E6F3FF" style="stroke:#0D6EFD;stroke-width:1.5;"/><line style="stroke:#0D6EFD;stroke-width:1.5;" x1="204" x2="344" y1="308.9466" y2="308.9466"/><text fill="#000000" font-family="sans-serif" font-size="14" font-weight="bold" lengthAdjust="spacing" textLength="127" x="208" y="301.9934">Next.js Storefront</text></g><!--cluster Storefronts--><g id="cluster_Storefronts"><path d="M230.5,392.9483 L312.5,392.9483 A3.75,3.75 0 0 1 315,395.4483 L322,415.4366 L719.5,415.4366 A2.5,2.5 0 0 1 722,417.9366 L722,487.9383 A2.5,2.5 0 0 1 719.5,490.4383 L230.5,490.4383 A2.5,2.5 0 0 1 228,487.9383 L228,395.4483 A2.5,2.5 0 0 1 230.5,392.9483 " fill="#E6F3FF" style="stroke:#0D6EFD;stroke-width:1.5;"/><line style="stroke:#0D6EFD;stroke-width:1.5;" x1="228" x2="322" y1="415.4366" y2="415.4366"/><text fill="#000000" font-family="sans-serif" font-size="14" font-weight="bold" lengthAdjust="spacing" textLength="81" x="232" y="408.4834">Storefronts</text></g><!--cluster Saleor Core--><g id="cluster_Saleor Core"><path d="M8.5,620.9283 L91.5,620.9283 A3.75,3.75 0 0 1 94,623.4283 L101,643.4166 L655.5,643.4166 A2.5,2.5 0 0 1 658,645.9166 L658,952.8883 A2.5,2.5 0 0 1 655.5,955.3883 L8.5,955.3883 A2.5,2.5 0 0 1 6,952.8883 L6,623.4283 A2.5,2.5 0 0 1 8.5,620.9283 " fill="#E6F3FF" style="stroke:#0D6EFD;stroke-width:1.5;"/><line style="stroke:#0D6EFD;stroke-width:1.5;" x1="6" x2="101" y1="643.4166" y2="643.4166"/><text fill="#000000" font-family="sans-serif" font-size="14" font-weight="bold" lengthAdjust="spacing" textLength="82" x="10" y="636.4634">Saleor Core</text></g><!--cluster Channels--><g id="cluster_Channels"><path d="M32.5,833.8983 L99.5,833.8983 A3.75,3.75 0 0 1 102,836.3983 L109,856.3866 L631.5,856.3866 A2.5,2.5 0 0 1 634,858.8866 L634,928.8883 A2.5,2.5 0 0 1 631.5,931.3883 L32.5,931.3883 A2.5,2.5 0 0 1 30,928.8883 L30,836.3983 A2.5,2.5 0 0 1 32.5,833.8983 " fill="#E6F3FF" style="stroke:#0D6EFD;stroke-width:1.5;"/><line style="stroke:#0D6EFD;stroke-width:1.5;" x1="30" x2="109" y1="856.3866" y2="856.3866"/><text fill="#000000" font-family="sans-serif" font-size="14" font-weight="bold" lengthAdjust="spacing" textLength="66" x="34" y="849.4334">Channels</text></g><!--cluster DB--><g id="cluster_DB"><path d="M140,989.3883 C140,979.3883 465.5,979.3883 465.5,979.3883 C465.5,979.3883 791,979.3883 791,989.3883 L791,1081.8783 C791,1091.8783 465.5,1091.8783 465.5,1091.8783 C465.5,1091.8783 140,1091.8783 140,1081.8783 L140,989.3883 " fill="#F8F0FF" style="stroke:#6F42C1;stroke-width:1.0;"/><path d="M140,989.3883 C140,999.3883 465.5,999.3883 465.5,999.3883 C465.5,999.3883 791,999.3883 791,989.3883 " fill="none" style="stroke:#6F42C1;stroke-width:1.0;"/><text fill="#000000" font-family="sans-serif" font-size="14" font-weight="bold" lengthAdjust="spacing" textLength="83" x="424" y="1014.9234">PostgreSQL</text></g><!--entity DomainNL--><g id="elem_DomainNL"><rect fill="#F8F9FA" height="46.4883" rx="2.5" ry="2.5" style="stroke:#6C757D;stroke-width:0.5;" width="146" x="239" y="78.4883"/><rect fill="#F8F9FA" height="10" style="stroke:#6C757D;stroke-width:0.5;" width="15" x="365" y="83.4883"/><rect fill="#F8F9FA" height="2" style="stroke:#6C757D;stroke-width:0.5;" width="4" x="363" y="85.4883"/><rect fill="#F8F9FA" height="2" style="stroke:#6C757D;stroke-width:0.5;" width="4" x="363" y="89.4883"/><text fill="#000000" font-family="sans-serif" font-size="14" lengthAdjust="spacing" textLength="106" x="254" y="112.0234">domain-nl.com</text></g><!--entity DomainBE--><g id="elem_DomainBE"><rect fill="#F8F9FA" height="46.4883" rx="2.5" ry="2.5" style="stroke:#6C757D;stroke-width:0.5;" width="150" x="420" y="78.4883"/><rect fill="#F8F9FA" height="10" style="stroke:#6C757D;stroke-width:0.5;" width="15" x="550" y="83.4883"/><rect fill="#F8F9FA" height="2" style="stroke:#6C757D;stroke-width:0.5;" width="4" x="548" y="85.4883"/><rect fill="#F8F9FA" height="2" style="stroke:#6C757D;stroke-width:0.5;" width="4" x="548" y="89.4883"/><text fill="#000000" font-family="sans-serif" font-size="14" lengthAdjust="spacing" textLength="110" x="435" y="112.0234">domain-be.com</text></g><!--entity DomainDE--><g id="elem_DomainDE"><rect fill="#F8F9FA" height="46.4883" rx="2.5" ry="2.5" style="stroke:#6C757D;stroke-width:0.5;" width="150" x="605" y="78.4883"/><rect fill="#F8F9FA" height="10" style="stroke:#6C757D;stroke-width:0.5;" width="15" x="735" y="83.4883"/><rect fill="#F8F9FA" height="2" style="stroke:#6C757D;stroke-width:0.5;" width="4" x="733" y="85.4883"/><rect fill="#F8F9FA" height="2" style="stroke:#6C757D;stroke-width:0.5;" width="4" x="733" y="89.4883"/><text fill="#000000" font-family="sans-serif" font-size="14" lengthAdjust="spacing" textLength="110" x="620" y="112.0234">domain-de.com</text></g><!--entity CDN--><g id="elem_CDN"><rect fill="#F8F9FA" height="46.4883" rx="2.5" ry="2.5" style="stroke:#6C757D;stroke-width:0.5;" width="155" x="417.5" y="199.9683"/><rect fill="#F8F9FA" height="10" style="stroke:#6C757D;stroke-width:0.5;" width="15" x="552.5" y="204.9683"/><rect fill="#F8F9FA" height="2" style="stroke:#6C757D;stroke-width:0.5;" width="4" x="550.5" y="206.9683"/><rect fill="#F8F9FA" height="2" style="stroke:#6C757D;stroke-width:0.5;" width="4" x="550.5" y="210.9683"/><text fill="#000000" font-family="sans-serif" font-size="14" lengthAdjust="spacing" textLength="115" x="432.5" y="233.5034">CDN Distribution</text></g><!--entity RegionDetection--><g id="elem_RegionDetection"><rect fill="#F8F9FA" height="46.4883" rx="2.5" ry="2.5" style="stroke:#6C757D;stroke-width:0.5;" width="231" x="379.5" y="321.4583"/><rect fill="#F8F9FA" height="10" style="stroke:#6C757D;stroke-width:0.5;" width="15" x="590.5" y="326.4583"/><rect fill="#F8F9FA" height="2" style="stroke:#6C757D;stroke-width:0.5;" width="4" x="588.5" y="328.4583"/><rect fill="#F8F9FA" height="2" style="stroke:#6C757D;stroke-width:0.5;" width="4" x="588.5" y="332.4583"/><text fill="#000000" font-family="sans-serif" font-size="14" lengthAdjust="spacing" textLength="191" x="394.5" y="354.9934">Region/Language Detection</text></g><!--entity ApolloClient--><g id="elem_ApolloClient"><rect fill="#F8F9FA" height="46.4883" rx="2.5" ry="2.5" style="stroke:#6C757D;stroke-width:0.5;" width="193" x="283.5" y="534.4383"/><rect fill="#F8F9FA" height="10" style="stroke:#6C757D;stroke-width:0.5;" width="15" x="456.5" y="539.4383"/><rect fill="#F8F9FA" height="2" style="stroke:#6C757D;stroke-width:0.5;" width="4" x="454.5" y="541.4383"/><rect fill="#F8F9FA" height="2" style="stroke:#6C757D;stroke-width:0.5;" width="4" x="454.5" y="545.4383"/><text fill="#000000" font-family="sans-serif" font-size="14" lengthAdjust="spacing" textLength="153" x="298.5" y="567.9734">Apollo GraphQL Client</text></g><!--entity i18n--><g id="elem_i18n"><rect fill="#F8F9FA" height="46.4883" rx="2.5" ry="2.5" style="stroke:#6C757D;stroke-width:0.5;" width="130" x="512" y="534.4383"/><rect fill="#F8F9FA" height="10" style="stroke:#6C757D;stroke-width:0.5;" width="15" x="622" y="539.4383"/><rect fill="#F8F9FA" height="2" style="stroke:#6C757D;stroke-width:0.5;" width="4" x="620" y="541.4383"/><rect fill="#F8F9FA" height="2" style="stroke:#6C757D;stroke-width:0.5;" width="4" x="620" y="545.4383"/><text fill="#000000" font-family="sans-serif" font-size="14" lengthAdjust="spacing" textLength="90" x="527" y="567.9734">i18n Support</text></g><!--entity StoreNL--><g id="elem_StoreNL"><rect fill="#F8F9FA" height="46.4883" rx="2.5" ry="2.5" style="stroke:#6C757D;stroke-width:0.5;" width="131" x="575.5" y="427.9483"/><rect fill="#F8F9FA" height="10" style="stroke:#6C757D;stroke-width:0.5;" width="15" x="686.5" y="432.9483"/><rect fill="#F8F9FA" height="2" style="stroke:#6C757D;stroke-width:0.5;" width="4" x="684.5" y="434.9483"/><rect fill="#F8F9FA" height="2" style="stroke:#6C757D;stroke-width:0.5;" width="4" x="684.5" y="438.9483"/><text fill="#000000" font-family="sans-serif" font-size="14" lengthAdjust="spacing" textLength="91" x="590.5" y="461.4834">NL Storefront</text></g><!--entity StoreBE--><g id="elem_StoreBE"><rect fill="#F8F9FA" height="46.4883" rx="2.5" ry="2.5" style="stroke:#6C757D;stroke-width:0.5;" width="130" x="244" y="427.9483"/><rect fill="#F8F9FA" height="10" style="stroke:#6C757D;stroke-width:0.5;" width="15" x="354" y="432.9483"/><rect fill="#F8F9FA" height="2" style="stroke:#6C757D;stroke-width:0.5;" width="4" x="352" y="434.9483"/><rect fill="#F8F9FA" height="2" style="stroke:#6C757D;stroke-width:0.5;" width="4" x="352" y="438.9483"/><text fill="#000000" font-family="sans-serif" font-size="14" lengthAdjust="spacing" textLength="90" x="259" y="461.4834">BE Storefront</text></g><!--entity StoreDE--><g id="elem_StoreDE"><rect fill="#F8F9FA" height="46.4883" rx="2.5" ry="2.5" style="stroke:#6C757D;stroke-width:0.5;" width="132" x="409" y="427.9483"/><rect fill="#F8F9FA" height="10" style="stroke:#6C757D;stroke-width:0.5;" width="15" x="521" y="432.9483"/><rect fill="#F8F9FA" height="2" style="stroke:#6C757D;stroke-width:0.5;" width="4" x="519" y="434.9483"/><rect fill="#F8F9FA" height="2" style="stroke:#6C757D;stroke-width:0.5;" width="4" x="519" y="438.9483"/><text fill="#000000" font-family="sans-serif" font-size="14" lengthAdjust="spacing" textLength="92" x="424" y="461.4834">DE Storefront</text></g><!--entity API--><g id="elem_API"><rect fill="#F8F9FA" height="46.4883" rx="2.5" ry="2.5" style="stroke:#6C757D;stroke-width:0.5;" width="126" x="317" y="655.9283"/><rect fill="#F8F9FA" height="10" style="stroke:#6C757D;stroke-width:0.5;" width="15" x="423" y="660.9283"/><rect fill="#F8F9FA" height="2" style="stroke:#6C757D;stroke-width:0.5;" width="4" x="421" y="662.9283"/><rect fill="#F8F9FA" height="2" style="stroke:#6C757D;stroke-width:0.5;" width="4" x="421" y="666.9283"/><text fill="#000000" font-family="sans-serif" font-size="14" lengthAdjust="spacing" textLength="86" x="332" y="689.4634">GraphQL API</text></g><!--entity ChannelMgmt--><g id="elem_ChannelMgmt"><rect fill="#F8F9FA" height="46.4883" rx="2.5" ry="2.5" style="stroke:#6C757D;stroke-width:0.5;" width="190" x="245" y="762.4183"/><rect fill="#F8F9FA" height="10" style="stroke:#6C757D;stroke-width:0.5;" width="15" x="415" y="767.4183"/><rect fill="#F8F9FA" height="2" style="stroke:#6C757D;stroke-width:0.5;" width="4" x="413" y="769.4183"/><rect fill="#F8F9FA" height="2" style="stroke:#6C757D;stroke-width:0.5;" width="4" x="413" y="773.4183"/><text fill="#000000" font-family="sans-serif" font-size="14" lengthAdjust="spacing" textLength="150" x="260" y="795.9534">Channel Management</text></g><!--entity Translations--><g id="elem_Translations"><rect fill="#F8F9FA" height="46.4883" rx="2.5" ry="2.5" style="stroke:#6C757D;stroke-width:0.5;" width="170" x="470" y="762.4183"/><rect fill="#F8F9FA" height="10" style="stroke:#6C757D;stroke-width:0.5;" width="15" x="620" y="767.4183"/><rect fill="#F8F9FA" height="2" style="stroke:#6C757D;stroke-width:0.5;" width="4" x="618" y="769.4183"/><rect fill="#F8F9FA" height="2" style="stroke:#6C757D;stroke-width:0.5;" width="4" x="618" y="773.4183"/><text fill="#000000" font-family="sans-serif" font-size="14" lengthAdjust="spacing" textLength="130" x="485" y="795.9534">Translation System</text></g><!--entity ChannelNL--><g id="elem_ChannelNL"><rect fill="#F8F9FA" height="46.4883" rx="2.5" ry="2.5" style="stroke:#6C757D;stroke-width:0.5;" width="184" x="243" y="868.8983"/><rect fill="#F8F9FA" height="10" style="stroke:#6C757D;stroke-width:0.5;" width="15" x="407" y="873.8983"/><rect fill="#F8F9FA" height="2" style="stroke:#6C757D;stroke-width:0.5;" width="4" x="405" y="875.8983"/><rect fill="#F8F9FA" height="2" style="stroke:#6C757D;stroke-width:0.5;" width="4" x="405" y="879.8983"/><text fill="#000000" font-family="sans-serif" font-size="14" lengthAdjust="spacing" textLength="144" x="258" y="902.4334">Netherlands Channel</text></g><!--entity ChannelBE--><g id="elem_ChannelBE"><rect fill="#F8F9FA" height="46.4883" rx="2.5" ry="2.5" style="stroke:#6C757D;stroke-width:0.5;" width="156" x="462" y="868.8983"/><rect fill="#F8F9FA" height="10" style="stroke:#6C757D;stroke-width:0.5;" width="15" x="598" y="873.8983"/><rect fill="#F8F9FA" height="2" style="stroke:#6C757D;stroke-width:0.5;" width="4" x="596" y="875.8983"/><rect fill="#F8F9FA" height="2" style="stroke:#6C757D;stroke-width:0.5;" width="4" x="596" y="879.8983"/><text fill="#000000" font-family="sans-serif" font-size="14" lengthAdjust="spacing" textLength="116" x="477" y="902.4334">Belgium Channel</text></g><!--entity ChannelDE--><g id="elem_ChannelDE"><rect fill="#F8F9FA" height="46.4883" rx="2.5" ry="2.5" style="stroke:#6C757D;stroke-width:0.5;" width="162" x="46" y="868.8983"/><rect fill="#F8F9FA" height="10" style="stroke:#6C757D;stroke-width:0.5;" width="15" x="188" y="873.8983"/><rect fill="#F8F9FA" height="2" style="stroke:#6C757D;stroke-width:0.5;" width="4" x="186" y="875.8983"/><rect fill="#F8F9FA" height="2" style="stroke:#6C757D;stroke-width:0.5;" width="4" x="186" y="879.8983"/><text fill="#000000" font-family="sans-serif" font-size="14" lengthAdjust="spacing" textLength="122" x="61" y="902.4334">Germany Channel</text></g><!--entity Products--><g id="elem_Products"><rect fill="#F8F9FA" height="46.4883" rx="2.5" ry="2.5" style="stroke:#6C757D;stroke-width:0.5;" width="158" x="156" y="1029.3883"/><rect fill="#F8F9FA" height="10" style="stroke:#6C757D;stroke-width:0.5;" width="15" x="294" y="1034.3883"/><rect fill="#F8F9FA" height="2" style="stroke:#6C757D;stroke-width:0.5;" width="4" x="292" y="1036.3883"/><rect fill="#F8F9FA" height="2" style="stroke:#6C757D;stroke-width:0.5;" width="4" x="292" y="1040.3883"/><text fill="#000000" font-family="sans-serif" font-size="14" lengthAdjust="spacing" textLength="118" x="171" y="1062.9234">Products &amp; Prices</text></g><!--entity RegionData--><g id="elem_RegionData"><rect fill="#F8F9FA" height="46.4883" rx="2.5" ry="2.5" style="stroke:#6C757D;stroke-width:0.5;" width="183" x="348.5" y="1029.3883"/><rect fill="#F8F9FA" height="10" style="stroke:#6C757D;stroke-width:0.5;" width="15" x="511.5" y="1034.3883"/><rect fill="#F8F9FA" height="2" style="stroke:#6C757D;stroke-width:0.5;" width="4" x="509.5" y="1036.3883"/><rect fill="#F8F9FA" height="2" style="stroke:#6C757D;stroke-width:0.5;" width="4" x="509.5" y="1040.3883"/><text fill="#000000" font-family="sans-serif" font-size="14" lengthAdjust="spacing" textLength="143" x="363.5" y="1062.9234">Region-Specific Data</text></g><!--entity LanguageContent--><g id="elem_LanguageContent"><rect fill="#F8F9FA" height="46.4883" rx="2.5" ry="2.5" style="stroke:#6C757D;stroke-width:0.5;" width="208" x="567" y="1029.3883"/><rect fill="#F8F9FA" height="10" style="stroke:#6C757D;stroke-width:0.5;" width="15" x="755" y="1034.3883"/><rect fill="#F8F9FA" height="2" style="stroke:#6C757D;stroke-width:0.5;" width="4" x="753" y="1036.3883"/><rect fill="#F8F9FA" height="2" style="stroke:#6C757D;stroke-width:0.5;" width="4" x="753" y="1040.3883"/><text fill="#000000" font-family="sans-serif" font-size="14" lengthAdjust="spacing" textLength="168" x="582" y="1062.9234">Multi-Language Content</text></g><g id="elem_GMN54"><path d="M761.5,324.3983 L761.5,340.7083 L610.72,344.7083 L761.5,348.7083 L761.5,365.0194 A0,0 0 0 0 761.5,365.0194 L1018.5,365.0194 A0,0 0 0 0 1018.5,365.0194 L1018.5,334.3983 L1008.5,324.3983 L761.5,324.3983 A0,0 0 0 0 761.5,324.3983 " fill="#FEFFDD" style="stroke:#181818;stroke-width:0.5;"/><path d="M1008.5,324.3983 L1008.5,334.3983 L1018.5,334.3983 L1008.5,324.3983 " fill="#FEFFDD" style="stroke:#181818;stroke-width:0.5;"/><text fill="#000000" font-family="sans-serif" font-size="13" lengthAdjust="spacing" textLength="232" x="767.5" y="341.9666">Domain/URL-based region detection</text><text fill="#000000" font-family="sans-serif" font-size="13" lengthAdjust="spacing" textLength="204" x="767.5" y="357.2772">with language preference cookie</text></g><g id="elem_GMN57"><path d="M674.5,765.3483 L674.5,805.9694 L959.5,805.9694 L959.5,775.3483 L949.5,765.3483 L674.5,765.3483 " fill="#FEFFDD" style="stroke:#181818;stroke-width:0.5;"/><path d="M949.5,765.3483 L949.5,775.3483 L959.5,775.3483 L949.5,765.3483 " fill="#FEFFDD" style="stroke:#181818;stroke-width:1.0;"/><text fill="#000000" font-family="sans-serif" font-size="13" lengthAdjust="spacing" textLength="264" x="680.5" y="782.9166">Each channel represents a separate region</text><text fill="#000000" font-family="sans-serif" font-size="13" lengthAdjust="spacing" textLength="246" x="680.5" y="798.2272">with specific pricing, tax, and shipping</text></g><g id="elem_GMN60"><path d="M994.5,765.3483 L994.5,805.9694 L1279.5,805.9694 L1279.5,775.3483 L1269.5,765.3483 L994.5,765.3483 " fill="#FEFFDD" style="stroke:#181818;stroke-width:0.5;"/><path d="M1269.5,765.3483 L1269.5,775.3483 L1279.5,775.3483 L1269.5,765.3483 " fill="#FEFFDD" style="stroke:#181818;stroke-width:1.0;"/><text fill="#000000" font-family="sans-serif" font-size="13" lengthAdjust="spacing" textLength="264" x="1000.5" y="782.9166">Multi-language content managed through</text><text fill="#000000" font-family="sans-serif" font-size="13" lengthAdjust="spacing" textLength="172" x="1000.5" y="798.2272">Saleor's Translation system</text></g><!--link DomainNL to CDN--><g id="link_DomainNL_CDN"><path d="M346.42,125.1983 C377.38,145.4183 422.85,175.1083 455.33,196.3083 " fill="none" id="DomainNL-to-CDN" style="stroke:#181818;stroke-width:1.0;"/><polygon fill="#181818" points="459.16,198.8083,453.8246,190.5298,454.9779,196.0678,449.4399,197.2211,459.16,198.8083" style="stroke:#181818;stroke-width:1.0;"/></g><!--link DomainBE to CDN--><g id="link_DomainBE_CDN"><path d="M495,125.1983 C495,144.5583 495,172.6183 495,193.5783 " fill="none" id="DomainBE-to-CDN" style="stroke:#181818;stroke-width:1.0;"/><polygon fill="#181818" points="495,198.3283,499,189.3283,495,193.3283,491,189.3283,495,198.3283" style="stroke:#181818;stroke-width:1.0;"/></g><!--link DomainDE to CDN--><g id="link_DomainDE_CDN"><path d="M645.2,125.1983 C613.91,145.4183 567.94,175.1083 535.11,196.3083 " fill="none" id="DomainDE-to-CDN" style="stroke:#181818;stroke-width:1.0;"/><polygon fill="#181818" points="531.23,198.8183,540.96,197.2928,535.4294,196.1044,536.6178,190.5738,531.23,198.8183" style="stroke:#181818;stroke-width:1.0;"/></g><!--link CDN to RegionDetection--><g id="link_CDN_RegionDetection"><path d="M495,246.6883 C495,266.0483 495,294.1083 495,315.0683 " fill="none" id="CDN-to-RegionDetection" style="stroke:#181818;stroke-width:1.0;"/><polygon fill="#181818" points="495,319.8183,499,310.8183,495,314.8183,491,310.8183,495,319.8183" style="stroke:#181818;stroke-width:1.0;"/></g><!--link RegionDetection to StoreNL--><g id="link_RegionDetection_StoreNL"><path d="M532.75,368.2883 C541.17,373.5783 549.98,379.3283 558,384.9483 C575.26,397.0483 593.76,411.4483 608.9,423.6283 " fill="none" id="RegionDetection-to-StoreNL" style="stroke:#181818;stroke-width:1.0;"/><polygon fill="#181818" points="612.73,426.7183,608.2479,417.9484,608.8424,423.5739,603.2169,424.1685,612.73,426.7183" style="stroke:#181818;stroke-width:1.0;"/></g><!--link RegionDetection to StoreBE--><g id="link_RegionDetection_StoreBE"><path d="M426.63,368.4083 C414.79,373.2783 402.82,378.8183 392,384.9483 C372.92,395.7483 353.55,410.6983 338.32,423.5683 " fill="none" id="RegionDetection-to-StoreBE" style="stroke:#181818;stroke-width:1.0;"/><polygon fill="#181818" points="334.89,426.5083,344.3326,423.7087,338.6933,423.2626,339.1394,417.6233,334.89,426.5083" style="stroke:#181818;stroke-width:1.0;"/></g><!--link RegionDetection to StoreDE--><g id="link_RegionDetection_StoreDE"><path d="M490.66,368.3783 C487.67,383.9883 483.68,404.8483 480.47,421.5983 " fill="none" id="RegionDetection-to-StoreDE" style="stroke:#181818;stroke-width:1.0;"/><polygon fill="#181818" points="479.62,426.0783,485.2485,417.9962,480.5648,421.1684,477.3926,416.4846,479.62,426.0783" style="stroke:#181818;stroke-width:1.0;"/></g><!--link StoreNL to ApolloClient--><g id="link_StoreNL_ApolloClient"><path d="M604.18,474.7083 C590.04,482.8083 573.57,491.6283 558,498.4383 C528.67,511.2583 495.58,522.8383 465.96,532.2283 " fill="none" id="StoreNL-to-ApolloClient" style="stroke:#181818;stroke-width:1.0;"/><polygon fill="#181818" points="461.53,533.6183,471.3153,534.7351,466.2999,532.1188,468.9161,527.1033,461.53,533.6183" style="stroke:#181818;stroke-width:1.0;"/></g><!--link StoreBE to ApolloClient--><g id="link_StoreBE_ApolloClient"><path d="M324.41,474.8683 C335.2,490.7483 349.69,512.0683 361.17,528.9583 " fill="none" id="StoreBE-to-ApolloClient" style="stroke:#181818;stroke-width:1.0;"/><polygon fill="#181818" points="363.77,532.7983,362.0059,523.1087,360.9538,528.6668,355.3956,527.6147,363.77,532.7983" style="stroke:#181818;stroke-width:1.0;"/></g><!--link StoreDE to ApolloClient--><g id="link_StoreDE_ApolloClient"><path d="M454.39,474.8683 C439.82,490.8883 420.23,512.4383 404.8,529.3983 " fill="none" id="StoreDE-to-ApolloClient" style="stroke:#181818;stroke-width:1.0;"/><polygon fill="#181818" points="401.59,532.9283,410.6,528.9508,404.9498,529.2253,404.6753,523.5752,401.59,532.9283" style="stroke:#181818;stroke-width:1.0;"/></g><!--link StoreNL to i18n--><g id="link_StoreNL_i18n"><path d="M627.11,474.8683 C617.47,490.6083 604.55,511.6983 594.25,528.5283 " fill="none" id="StoreNL-to-i18n" style="stroke:#181818;stroke-width:1.0;"/><polygon fill="#181818" points="591.65,532.7583,599.7547,527.1623,594.2561,528.4912,592.9273,522.9926,591.65,532.7583" style="stroke:#181818;stroke-width:1.0;"/></g><!--link StoreBE to i18n--><g id="link_StoreBE_i18n"><path d="M345.78,474.7983 C359.91,482.9183 376.4,491.7183 392,498.4383 C412.82,507.4083 462.93,523.0583 505.75,535.8783 " fill="none" id="StoreBE-to-i18n" style="stroke:#181818;stroke-width:1.0;"/><polygon fill="#181818" points="510.29,537.2283,502.8102,530.8211,505.4989,535.7981,500.5219,538.4868,510.29,537.2283" style="stroke:#181818;stroke-width:1.0;"/></g><!--link StoreDE to i18n--><g id="link_StoreDE_i18n"><path d="M497.13,474.8683 C512.77,490.8883 533.81,512.4383 550.37,529.3983 " fill="none" id="StoreDE-to-i18n" style="stroke:#181818;stroke-width:1.0;"/><polygon fill="#181818" points="553.85,532.9683,550.4075,523.7407,550.3504,529.3972,544.6938,529.3401,553.85,532.9683" style="stroke:#181818;stroke-width:1.0;"/></g><!--link ApolloClient to API--><g id="link_ApolloClient_API"><path d="M380,581.1583 C380,600.5183 380,628.5683 380,649.5383 " fill="none" id="ApolloClient-to-API" style="stroke:#181818;stroke-width:1.0;"/><polygon fill="#181818" points="380,654.2783,384,645.2783,380,649.2783,376,645.2783,380,654.2783" style="stroke:#181818;stroke-width:1.0;"/></g><!--link API to ChannelMgmt--><g id="link_API_ChannelMgmt"><path d="M371.32,702.8383 C365.35,718.4483 357.36,739.3083 350.95,756.0583 " fill="none" id="API-to-ChannelMgmt" style="stroke:#181818;stroke-width:1.0;"/><polygon fill="#181818" points="349.2,760.6183,356.1499,753.6398,350.9853,755.9479,348.6773,750.7833,349.2,760.6183" style="stroke:#181818;stroke-width:1.0;"/></g><!--link API to Translations--><g id="link_API_Translations"><path d="M417.97,702.8383 C445.61,719.3383 483.07,741.7083 511.84,758.8883 " fill="none" id="API-to-Translations" style="stroke:#181818;stroke-width:1.0;"/><polygon fill="#181818" points="515.8,761.2583,510.1405,753.1978,511.5125,758.6858,506.0246,760.0578,515.8,761.2583" style="stroke:#181818;stroke-width:1.0;"/></g><!--link ChannelMgmt to ChannelNL--><g id="link_ChannelMgmt_ChannelNL"><path d="M338.92,809.3283 C338.17,824.7983 337.19,845.4383 336.39,862.1083 " fill="none" id="ChannelMgmt-to-ChannelNL" style="stroke:#181818;stroke-width:1.0;"/><polygon fill="#181818" points="336.16,867.0083,340.5931,858.2136,336.4033,862.0142,332.6026,857.8243,336.16,867.0083" style="stroke:#181818;stroke-width:1.0;"/></g><!--link ChannelMgmt to ChannelBE--><g id="link_ChannelMgmt_ChannelBE"><path d="M408,809.2983 C420.54,814.2483 433.35,819.8383 445,825.8983 C466.42,837.0483 488.75,852.1783 506.37,865.0583 " fill="none" id="ChannelMgmt-to-ChannelBE" style="stroke:#181818;stroke-width:1.0;"/><polygon fill="#181818" points="510,867.7383,505.1118,859.1881,505.9693,864.7796,500.3779,865.6372,510,867.7383" style="stroke:#181818;stroke-width:1.0;"/></g><!--link ChannelMgmt to ChannelDE--><g id="link_ChannelMgmt_ChannelDE"><path d="M264.32,809.3583 C250.97,814.2383 237.39,819.7883 225,825.8983 C202.88,836.8083 179.84,851.9283 161.67,864.8683 " fill="none" id="ChannelMgmt-to-ChannelDE" style="stroke:#181818;stroke-width:1.0;"/><polygon fill="#181818" points="157.9,867.5683,167.5433,865.5664,161.9609,864.6513,162.8761,859.0689,157.9,867.5683" style="stroke:#181818;stroke-width:1.0;"/></g><!--link ChannelNL to Products--><g id="link_ChannelNL_Products"><path d="M320.67,915.8583 C302.7,944.3383 271.9,993.1483 252.54,1023.8283 " fill="none" id="ChannelNL-to-Products" style="stroke:#181818;stroke-width:1.0;"/><polygon fill="#181818" points="250.11,1027.6883,258.2986,1022.2159,252.7805,1023.4612,251.5352,1017.9431,250.11,1027.6883" style="stroke:#181818;stroke-width:1.0;"/></g><!--link ChannelBE to Products--><g id="link_ChannelBE_Products"><path d="M517.27,915.8483 C499.31,932.2183 472.71,953.1683 445,963.3883 C397.35,980.9683 378.11,952.3983 331,971.3883 C302.58,982.8483 276.34,1006.0383 258.5,1024.5583 " fill="none" id="ChannelBE-to-Products" style="stroke:#181818;stroke-width:1.0;"/><polygon fill="#181818" points="255.19,1028.0483,264.2785,1024.2538,258.624,1024.414,258.4637,1018.7594,255.19,1028.0483" style="stroke:#181818;stroke-width:1.0;"/></g><!--link ChannelDE to Products--><g id="link_ChannelDE_Products"><path d="M142.47,915.8583 C161.88,944.3383 195.14,993.1483 216.05,1023.8283 " fill="none" id="ChannelDE-to-Products" style="stroke:#181818;stroke-width:1.0;"/><polygon fill="#181818" points="218.7,1027.7183,216.9359,1018.0287,215.8838,1023.5868,210.3256,1022.5347,218.7,1027.7183" style="stroke:#181818;stroke-width:1.0;"/></g><!--link ChannelNL to RegionData--><g id="link_ChannelNL_RegionData"><path d="M350.04,915.8583 C368.91,944.3383 401.25,993.1483 421.58,1023.8283 " fill="none" id="ChannelNL-to-RegionData" style="stroke:#181818;stroke-width:1.0;"/><polygon fill="#181818" points="424.15,1027.7083,422.5013,1017.9984,421.3831,1023.5436,415.8378,1022.4255,424.15,1027.7083" style="stroke:#181818;stroke-width:1.0;"/></g><!--link ChannelBE to RegionData--><g id="link_ChannelBE_RegionData"><path d="M525.67,915.8583 C507.7,944.3383 476.9,993.1483 457.54,1023.8283 " fill="none" id="ChannelBE-to-RegionData" style="stroke:#181818;stroke-width:1.0;"/><polygon fill="#181818" points="455.11,1027.6883,463.2986,1022.2159,457.7805,1023.4612,456.5352,1017.9431,455.11,1027.6883" style="stroke:#181818;stroke-width:1.0;"/></g><!--link ChannelDE to RegionData--><g id="link_ChannelDE_RegionData"><path d="M150.59,915.8083 C169.2,932.1583 196.67,953.0883 225,963.3883 C269.4,979.5283 286.7,954.9683 331,971.3883 C362.21,982.9583 392.25,1006.2883 412.86,1024.8283 " fill="none" id="ChannelDE-to-RegionData" style="stroke:#181818;stroke-width:1.0;"/><polygon fill="#181818" points="416.52,1028.1683,412.5616,1019.1499,412.8242,1024.8007,407.1734,1025.0632,416.52,1028.1683" style="stroke:#181818;stroke-width:1.0;"/></g><!--link Translations to LanguageContent--><g id="link_Translations_LanguageContent"><path d="M616.15,809.2383 C622.97,813.8683 629.18,819.3683 634,825.8983 C677.6,884.9383 677.53,976.3783 674.12,1022.6683 " fill="none" id="Translations-to-LanguageContent" style="stroke:#181818;stroke-width:1.0;"/><polygon fill="#181818" points="673.74,1027.3883,678.4469,1018.737,674.1399,1022.4043,670.4726,1018.0972,673.74,1027.3883" style="stroke:#181818;stroke-width:1.0;"/></g><!--link ChannelMgmt to GMN57--><g id="link_ChannelMgmt_GMN57"><path d="M385.46,762.0283 C409.94,750.6183 441.09,738.1783 470.5,732.4183 C544.64,717.8683 565.75,721.3883 640.5,732.4183 C682.61,738.6283 728.61,752.7583 763.08,764.8983 " fill="none" id="ChannelMgmt-GMN57" style="stroke:#181818;stroke-width:1.0;stroke-dasharray:7.0,7.0;"/></g><!--link Translations to GMN60--><g id="link_Translations_GMN60"><path d="M596.4,762.0383 C618.75,750.6383 647.29,738.1983 674.5,732.4183 C798.4,706.0583 834.18,714.0183 959.5,732.4183 C1001.84,738.6283 1048.09,752.7583 1082.77,764.8983 " fill="none" id="Translations-GMN60" style="stroke:#181818;stroke-width:1.0;stroke-dasharray:7.0,7.0;"/></g><!--SRC=[TLLDJzmm4BtxLuoeL2ui7_q0Uga4oIv2MbOBsvvG3oOP4fV4ZcolMbJntpksuwmtx4e8RTwRUMEFtzY7aEEpa0Z6lZPec7aHikEQjr2ejbCIfOL_3E2Q5o-LLcjPPgfH6ZxCBcVVPbUEKRf4tQFdsSNNYvoziKIeerHUuMwPwVdiysmsbZdDpwUpaKp9BN_Y1lSkv_IzpldiowVipEbOOHk45M-GyBjrOyNa0IkX95pfeXOM2xlM27-4hI6hkPJOmEhLM6mPEuHSjLn8m-9M3W803sfjXQmE_9eUImzEP7DClVi5tFHvYtd2Fk68lPucR3bcywbR_I5a-M9JdJxW1AOb_SuuhNvOWIDoOQmMJxGm9RsGI_KQ2_nhZtyRM5cbyLahQPCTlITxpT2capcNrTf5vkYQ5SK3Es2KG7-3Q58fg97UOfxKy1h-qpU9wElfJjftYUXyDvqx-YrKVxpgLDCekD6yg-_da3K2-zZ01C15YhDB2QjrroaT0XmGcXMiikbFRvsCYlMDYVfNoziWlhmTRRytKh9tj3NgXilIH9U58mg_XnvWKubrkoiazk46TSlbwwwGhLv4BzznIKjgOoDw-AvgVHz-Q2vDmzq9zgxtKGbiGbVoVWZPC8q7IsLifN5rFp_mjhqEtLbgLQuBQ-0ZBBKeq7Z5Y6wCDLbrM8XdKNZjr5FqwSB2i0xso-ZSuouYs6Fzf2ZQMH7M7ESF9fFlVWxYo8s0V0CmDqFkO-niDW9yKBJkNexEQoz71yLw0GzkkRFFtaFaEuWjBM_aL6C3v0d0KeKWIIvcz2yq9B59nBPCmPA8D8DQieUXXknXN3k6T4yCRXboTyBv21wf97RQrdbFvEy8bcxNasFJCQaiWXPLRK4zxxWGWyLEVZxC9svYIj3XuIa7Hr2GVtYQQFAEBZZKA0kaPrYz26GeIt25nkMs1tbAhm4K_SXh91b3IpJ0mQ1xHLscBnuhcZXy7SqelID7OFdV8w0B2amjkewWlQMtZ03zepfieGZjWTPVF2NOcfxhggR0S9CURbqlOC9REzJw3m00]--></g></svg>