<svg xmlns="http://www.w3.org/2000/svg" xmlns:xlink="http://www.w3.org/1999/xlink" contentStyleType="text/css" data-diagram-type="DESCRIPTION" height="695px" preserveAspectRatio="none" style="width:1570px;height:695px;background:#FFFFFF;" version="1.1" viewBox="0 0 1570 695" width="1570px" zoomAndPan="magnify"><title>Medusa Architecture Diagram</title><defs/><g><text fill="#000000" font-family="sans-serif" font-size="14" font-weight="bold" lengthAdjust="spacing" textLength="214.6826" x="671.0686" y="23.5352">Medusa Architecture Diagram</text><!--cluster HTTP Layer--><g class="cluster" data-entity="HTTP Layer" data-source-line="12" data-uid="ent0004" id="cluster_HTTP Layer"><path d="M599.5,182.4683 L683.0439,182.4683 A3.75,3.75 0 0 1 685.5439,184.9683 L692.5439,204.9566 L800.5,204.9566 A2.5,2.5 0 0 1 803,207.4566 L803,267.4583 A2.5,2.5 0 0 1 800.5,269.9583 L599.5,269.9583 A2.5,2.5 0 0 1 597,267.4583 L597,184.9683 A2.5,2.5 0 0 1 599.5,182.4683" fill="none" style="stroke:#000000;stroke-width:1.5;"/><line style="stroke:#000000;stroke-width:1.5;" x1="597" x2="692.5439" y1="204.9566" y2="204.9566"/><text fill="#000000" font-family="sans-serif" font-size="14" font-weight="bold" lengthAdjust="spacing" textLength="82.5439" x="601" y="198.0034">HTTP Layer</text></g><!--cluster Workflow Layer--><g class="cluster" data-entity="Workflow Layer" data-source-line="21" data-uid="ent0009" id="cluster_Workflow Layer"><path d="M619.5,318.9583 L732.4111,318.9583 A3.75,3.75 0 0 1 734.9111,321.4583 L741.9111,341.4466 L1344.5,341.4466 A2.5,2.5 0 0 1 1347,343.9466 L1347,403.9483 A2.5,2.5 0 0 1 1344.5,406.4483 L619.5,406.4483 A2.5,2.5 0 0 1 617,403.9483 L617,321.4583 A2.5,2.5 0 0 1 619.5,318.9583" fill="none" style="stroke:#000000;stroke-width:1.5;"/><line style="stroke:#000000;stroke-width:1.5;" x1="617" x2="741.9111" y1="341.4466" y2="341.4466"/><text fill="#000000" font-family="sans-serif" font-size="14" font-weight="bold" lengthAdjust="spacing" textLength="111.9111" x="621" y="334.4934">Workflow Layer</text></g><!--cluster Module Layer--><g class="cluster" data-entity="Module Layer" data-source-line="33" data-uid="ent0017" id="cluster_Module Layer"><path d="M649.5,455.5183 L747.0918,455.5183 A3.75,3.75 0 0 1 749.5918,458.0183 L756.5918,478.0066 L1466.5,478.0066 A2.5,2.5 0 0 1 1469,480.5066 L1469,540.5083 A2.5,2.5 0 0 1 1466.5,543.0083 L649.5,543.0083 A2.5,2.5 0 0 1 647,540.5083 L647,458.0183 A2.5,2.5 0 0 1 649.5,455.5183" fill="none" style="stroke:#000000;stroke-width:1.5;"/><line style="stroke:#000000;stroke-width:1.5;" x1="647" x2="756.5918" y1="478.0066" y2="478.0066"/><text fill="#000000" font-family="sans-serif" font-size="14" font-weight="bold" lengthAdjust="spacing" textLength="96.5918" x="651" y="471.0534">Module Layer</text></g><!--cluster Data Store Layer--><g class="cluster" data-entity="Data Store Layer" data-source-line="46" data-uid="ent0026" id="cluster_Data Store Layer"><path d="M693.5,592.0683 L813.2471,592.0683 A3.75,3.75 0 0 1 815.7471,594.5683 L822.7471,614.5566 L908.5,614.5566 A2.5,2.5 0 0 1 911,617.0566 L911,686.0583 A2.5,2.5 0 0 1 908.5,688.5583 L693.5,688.5583 A2.5,2.5 0 0 1 691,686.0583 L691,594.5683 A2.5,2.5 0 0 1 693.5,592.0683" fill="none" style="stroke:#000000;stroke-width:1.5;"/><line style="stroke:#000000;stroke-width:1.5;" x1="691" x2="822.7471" y1="614.5566" y2="614.5566"/><text fill="#000000" font-family="sans-serif" font-size="14" font-weight="bold" lengthAdjust="spacing" textLength="118.7471" x="695" y="607.6034">Data Store Layer</text></g><!--cluster Content Platform--><g class="cluster" data-entity="Content Platform" data-source-line="60" data-uid="ent0035" id="cluster_Content Platform"><path d="M92.5,318.9583 L216.6973,318.9583 A3.75,3.75 0 0 1 219.1973,321.4583 L226.1973,341.4466 L226.5,341.4466 A2.5,2.5 0 0 1 229,343.9466 L229,403.9483 A2.5,2.5 0 0 1 226.5,406.4483 L92.5,406.4483 A2.5,2.5 0 0 1 90,403.9483 L90,321.4583 A2.5,2.5 0 0 1 92.5,318.9583" fill="none" style="stroke:#000000;stroke-width:1.5;"/><line style="stroke:#000000;stroke-width:1.5;" x1="90" x2="226.1973" y1="341.4466" y2="341.4466"/><text fill="#000000" font-family="sans-serif" font-size="14" font-weight="bold" lengthAdjust="spacing" textLength="123.1973" x="94" y="334.4934">Content Platform</text></g><!--cluster Data Migration--><g class="cluster" data-entity="Data Migration" data-source-line="69" data-uid="ent0040" id="cluster_Data Migration"><path d="M8.5,182.4683 L116.8037,182.4683 A3.75,3.75 0 0 1 119.3037,184.9683 L126.3037,204.9566 L161.5,204.9566 A2.5,2.5 0 0 1 164,207.4566 L164,267.4583 A2.5,2.5 0 0 1 161.5,269.9583 L8.5,269.9583 A2.5,2.5 0 0 1 6,267.4583 L6,184.9683 A2.5,2.5 0 0 1 8.5,182.4683" fill="none" style="stroke:#000000;stroke-width:1.5;"/><line style="stroke:#000000;stroke-width:1.5;" x1="6" x2="126.3037" y1="204.9566" y2="204.9566"/><text fill="#000000" font-family="sans-serif" font-size="14" font-weight="bold" lengthAdjust="spacing" textLength="107.3037" x="10" y="198.0034">Data Migration</text></g><!--entity api--><g class="entity" data-entity="api" data-source-line="13" data-uid="ent0005" id="entity_api"><rect fill="#F1F1F1" height="36.4883" rx="2.5" ry="2.5" style="stroke:#181818;stroke-width:0.5;" width="174.3213" x="612.84" y="217.4683"/><text fill="#000000" font-family="sans-serif" font-size="14" lengthAdjust="spacing" textLength="154.3213" x="622.84" y="241.0034">API Routes (Express.js)</text></g><!--entity product_wf--><g class="entity" data-entity="product_wf" data-source-line="22" data-uid="ent0010" id="entity_product_wf"><rect fill="#F1F1F1" height="36.4883" rx="2.5" ry="2.5" style="stroke:#181818;stroke-width:0.5;" width="146.6084" x="997.7" y="353.9583"/><text fill="#000000" font-family="sans-serif" font-size="14" lengthAdjust="spacing" textLength="126.6084" x="1007.7" y="377.4934">Product Workflows</text></g><!--entity order_wf--><g class="entity" data-entity="order_wf" data-source-line="23" data-uid="ent0011" id="entity_order_wf"><rect fill="#F1F1F1" height="36.4883" rx="2.5" ry="2.5" style="stroke:#181818;stroke-width:0.5;" width="133.5791" x="633.21" y="353.9583"/><text fill="#000000" font-family="sans-serif" font-size="14" lengthAdjust="spacing" textLength="113.5791" x="643.21" y="377.4934">Order Workflows</text></g><!--entity customer_wf--><g class="entity" data-entity="customer_wf" data-source-line="24" data-uid="ent0012" id="entity_customer_wf"><rect fill="#F1F1F1" height="36.4883" rx="2.5" ry="2.5" style="stroke:#181818;stroke-width:0.5;" width="160.5811" x="801.71" y="353.9583"/><text fill="#000000" font-family="sans-serif" font-size="14" lengthAdjust="spacing" textLength="140.5811" x="811.71" y="377.4934">Customer Workflows</text></g><!--entity payment_wf--><g class="entity" data-entity="payment_wf" data-source-line="25" data-uid="ent0013" id="entity_payment_wf"><rect fill="#F1F1F1" height="36.4883" rx="2.5" ry="2.5" style="stroke:#181818;stroke-width:0.5;" width="152.2139" x="1178.89" y="353.9583"/><text fill="#000000" font-family="sans-serif" font-size="14" lengthAdjust="spacing" textLength="132.2139" x="1188.89" y="377.4934">Payment Workflows</text></g><!--entity product_mod--><g class="entity" data-entity="product_mod" data-source-line="34" data-uid="ent0018" id="entity_product_mod"><rect fill="#F1F1F1" height="36.4883" rx="2.5" ry="2.5" style="stroke:#181818;stroke-width:0.5;" width="126.4082" x="1326.8" y="490.5183"/><text fill="#000000" font-family="sans-serif" font-size="14" lengthAdjust="spacing" textLength="106.4082" x="1336.8" y="514.0534">Product Module</text></g><!--entity order_mod--><g class="entity" data-entity="order_mod" data-source-line="35" data-uid="ent0019" id="entity_order_mod"><rect fill="#F1F1F1" height="36.4883" rx="2.5" ry="2.5" style="stroke:#181818;stroke-width:0.5;" width="113.3789" x="663.31" y="490.5183"/><text fill="#000000" font-family="sans-serif" font-size="14" lengthAdjust="spacing" textLength="93.3789" x="673.31" y="514.0534">Order Module</text></g><!--entity customer_mod--><g class="entity" data-entity="customer_mod" data-source-line="36" data-uid="ent0020" id="entity_customer_mod"><rect fill="#F1F1F1" height="36.4883" rx="2.5" ry="2.5" style="stroke:#181818;stroke-width:0.5;" width="140.3809" x="811.81" y="490.5183"/><text fill="#000000" font-family="sans-serif" font-size="14" lengthAdjust="spacing" textLength="120.3809" x="821.81" y="514.0534">Customer Module</text></g><!--entity payment_mod--><g class="entity" data-entity="payment_mod" data-source-line="37" data-uid="ent0021" id="entity_payment_mod"><rect fill="#F1F1F1" height="36.4883" rx="2.5" ry="2.5" style="stroke:#181818;stroke-width:0.5;" width="132.0137" x="986.99" y="490.5183"/><text fill="#000000" font-family="sans-serif" font-size="14" lengthAdjust="spacing" textLength="112.0137" x="996.99" y="514.0534">Payment Module</text></g><!--entity inventory_mod--><g class="entity" data-entity="inventory_mod" data-source-line="38" data-uid="ent0022" id="entity_inventory_mod"><rect fill="#F1F1F1" height="36.4883" rx="2.5" ry="2.5" style="stroke:#181818;stroke-width:0.5;" width="137.7695" x="1154.12" y="490.5183"/><text fill="#000000" font-family="sans-serif" font-size="14" lengthAdjust="spacing" textLength="117.7695" x="1164.12" y="514.0534">Inventory Module</text></g><!--entity postgres--><g class="entity" data-entity="postgres" data-source-line="47" data-uid="ent0027" id="entity_postgres"><path d="M798.58,637.0683 C798.58,627.0683 847.0048,627.0683 847.0048,627.0683 C847.0048,627.0683 895.4296,627.0683 895.4296,637.0683 L895.4296,662.5566 C895.4296,672.5566 847.0048,672.5566 847.0048,672.5566 C847.0048,672.5566 798.58,672.5566 798.58,662.5566 L798.58,637.0683" fill="#F1F1F1" style="stroke:#181818;stroke-width:0.5;"/><path d="M798.58,637.0683 C798.58,647.0683 847.0048,647.0683 847.0048,647.0683 C847.0048,647.0683 895.4296,647.0683 895.4296,637.0683" fill="none" style="stroke:#181818;stroke-width:0.5;"/><text fill="#000000" font-family="sans-serif" font-size="14" lengthAdjust="spacing" textLength="76.8496" x="808.58" y="664.6034">PostgreSQL</text></g><!--entity redis--><g class="entity" data-entity="redis" data-source-line="48" data-uid="ent0028" id="entity_redis"><path d="M706.68,637.0683 C706.68,627.0683 735.0037,627.0683 735.0037,627.0683 C735.0037,627.0683 763.3275,627.0683 763.3275,637.0683 L763.3275,662.5566 C763.3275,672.5566 735.0037,672.5566 735.0037,672.5566 C735.0037,672.5566 706.68,672.5566 706.68,662.5566 L706.68,637.0683" fill="#F1F1F1" style="stroke:#181818;stroke-width:0.5;"/><path d="M706.68,637.0683 C706.68,647.0683 735.0037,647.0683 735.0037,647.0683 C735.0037,647.0683 763.3275,647.0683 763.3275,637.0683" fill="none" style="stroke:#181818;stroke-width:0.5;"/><text fill="#000000" font-family="sans-serif" font-size="14" lengthAdjust="spacing" textLength="36.6475" x="716.68" y="664.6034">Redis</text></g><!--entity strapi--><g class="entity" data-entity="strapi" data-source-line="61" data-uid="ent0036" id="entity_strapi"><rect fill="#F1F1F1" height="36.4883" rx="2.5" ry="2.5" style="stroke:#181818;stroke-width:0.5;" width="92.8096" x="117.6" y="353.9583"/><text fill="#000000" font-family="sans-serif" font-size="14" lengthAdjust="spacing" textLength="72.8096" x="127.6" y="377.4934">Strapi CMS</text></g><!--entity migration--><g class="entity" data-entity="migration" data-source-line="70" data-uid="ent0041" id="entity_migration"><rect fill="#F1F1F1" height="36.4883" rx="2.5" ry="2.5" style="stroke:#181818;stroke-width:0.5;" width="126.5313" x="21.73" y="217.4683"/><text fill="#000000" font-family="sans-serif" font-size="14" lengthAdjust="spacing" textLength="106.5313" x="31.73" y="241.0034">Migration Tools</text></g><!--entity storefront--><g class="entity" data-entity="storefront" data-source-line="8" data-uid="ent0002" id="entity_storefront"><ellipse cx="632.0023" cy="51.4883" fill="#F1F1F1" rx="8" ry="8" style="stroke:#181818;stroke-width:0.5;"/><path d="M632.0023,59.4883 L632.0023,86.4883 M619.0023,67.4883 L645.0023,67.4883 M632.0023,86.4883 L619.0023,101.4883 M632.0023,86.4883 L645.0023,101.4883" fill="none" style="stroke:#181818;stroke-width:0.5;"/><text fill="#000000" font-family="sans-serif" font-size="14" lengthAdjust="spacing" textLength="68.3047" x="597.85" y="116.5234">Storefront</text></g><!--entity admin--><g class="entity" data-entity="admin" data-source-line="9" data-uid="ent0003" id="entity_admin"><ellipse cx="767.9958" cy="51.4883" fill="#F1F1F1" rx="8" ry="8" style="stroke:#181818;stroke-width:0.5;"/><path d="M767.9958,59.4883 L767.9958,86.4883 M754.9958,67.4883 L780.9958,67.4883 M767.9958,86.4883 L754.9958,101.4883 M767.9958,86.4883 L780.9958,101.4883" fill="none" style="stroke:#181818;stroke-width:0.5;"/><text fill="#000000" font-family="sans-serif" font-size="14" lengthAdjust="spacing" textLength="122.4316" x="706.78" y="116.5234">Admin Dashboard</text></g><g class="entity" data-entity="GMN6" data-source-line="16" data-uid="ent0007" id="entity_GMN6"><path d="M245.2,351.8983 L245.2,392.5194 L526.7903,392.5194 L526.7903,361.8983 L516.7903,351.8983 L245.2,351.8983" fill="#FEFFDD" style="stroke:#181818;stroke-width:0.5;"/><path d="M516.7903,351.8983 L516.7903,361.8983 L526.7903,361.8983 L516.7903,351.8983" fill="#FEFFDD" style="stroke:#181818;stroke-width:1;"/><text fill="#000000" font-family="sans-serif" font-size="13" lengthAdjust="spacing" textLength="191.9595" x="251.2" y="369.4666">Express.js-based API handling</text><text fill="#000000" font-family="sans-serif" font-size="13" lengthAdjust="spacing" textLength="260.5903" x="251.2" y="384.7772">REST endpoints for commerce operations</text></g><g class="entity" data-entity="GMN14" data-source-line="28" data-uid="ent0015" id="entity_GMN14"><path d="M430.07,488.4483 L430.07,529.0694 L627.9284,529.0694 L627.9284,498.4483 L617.9284,488.4483 L430.07,488.4483" fill="#FEFFDD" style="stroke:#181818;stroke-width:0.5;"/><path d="M617.9284,488.4483 L617.9284,498.4483 L627.9284,498.4483 L617.9284,488.4483" fill="#FEFFDD" style="stroke:#181818;stroke-width:1;"/><text fill="#000000" font-family="sans-serif" font-size="13" lengthAdjust="spacing" textLength="175.189" x="436.07" y="506.0166">Encapsulates business logic</text><text fill="#000000" font-family="sans-serif" font-size="13" lengthAdjust="spacing" textLength="176.8584" x="436.07" y="521.3272">and orchestrates operations</text></g><g class="entity" data-entity="GMN23" data-source-line="41" data-uid="ent0024" id="entity_GMN23"><path d="M1310.32,629.5083 L1310.32,670.1294 A0,0 0 0 0 1310.32,670.1294 L1515.6813,670.1294 A0,0 0 0 0 1515.6813,670.1294 L1515.6813,639.5083 L1505.6813,629.5083 L1413.74,629.5083 L1392.91,527.3683 L1405.74,629.5083 L1310.32,629.5083 A0,0 0 0 0 1310.32,629.5083" fill="#FEFFDD" style="stroke:#181818;stroke-width:0.5;"/><path d="M1505.6813,629.5083 L1505.6813,639.5083 L1515.6813,639.5083 L1505.6813,629.5083" fill="#FEFFDD" style="stroke:#181818;stroke-width:0.5;"/><text fill="#000000" font-family="sans-serif" font-size="13" lengthAdjust="spacing" textLength="184.3613" x="1316.32" y="647.0766">Domain-specific modules for</text><text fill="#000000" font-family="sans-serif" font-size="13" lengthAdjust="spacing" textLength="140.7974" x="1316.32" y="662.3872">resource management</text></g><g class="entity" data-entity="GMN29" data-source-line="51" data-uid="ent0030" id="entity_GMN29"><path d="M1112.67,629.5083 L1112.67,670.1294 L1275.337,670.1294 L1275.337,639.5083 L1265.337,629.5083 L1112.67,629.5083" fill="#FEFFDD" style="stroke:#181818;stroke-width:0.5;"/><path d="M1265.337,629.5083 L1265.337,639.5083 L1275.337,639.5083 L1265.337,629.5083" fill="#FEFFDD" style="stroke:#181818;stroke-width:1;"/><text fill="#000000" font-family="sans-serif" font-size="13" lengthAdjust="spacing" textLength="137.5537" x="1118.67" y="647.0766">Primary data store for</text><text fill="#000000" font-family="sans-serif" font-size="13" lengthAdjust="spacing" textLength="96.897" x="1118.67" y="662.3872">commerce data</text></g><g class="entity" data-entity="GMN32" data-source-line="55" data-uid="ent0033" id="entity_GMN32"><path d="M930.36,629.5083 L930.36,670.1294 L1077.6466,670.1294 L1077.6466,639.5083 L1067.6466,629.5083 L930.36,629.5083" fill="#FEFFDD" style="stroke:#181818;stroke-width:0.5;"/><path d="M1067.6466,629.5083 L1067.6466,639.5083 L1077.6466,639.5083 L1067.6466,629.5083" fill="#FEFFDD" style="stroke:#181818;stroke-width:1;"/><text fill="#000000" font-family="sans-serif" font-size="13" lengthAdjust="spacing" textLength="126.2866" x="936.36" y="647.0766">Session storage and</text><text fill="#000000" font-family="sans-serif" font-size="13" lengthAdjust="spacing" textLength="96.186" x="936.36" y="662.3872">caching service</text></g><g class="entity" data-entity="GMN37" data-source-line="64" data-uid="ent0038" id="entity_GMN37"><path d="M1366.19,351.8983 L1366.19,392.5194 L1563.8199,392.5194 L1563.8199,361.8983 L1553.8199,351.8983 L1366.19,351.8983" fill="#FEFFDD" style="stroke:#181818;stroke-width:0.5;"/><path d="M1553.8199,351.8983 L1553.8199,361.8983 L1563.8199,361.8983 L1553.8199,351.8983" fill="#FEFFDD" style="stroke:#181818;stroke-width:1;"/><text fill="#000000" font-family="sans-serif" font-size="13" lengthAdjust="spacing" textLength="176.6299" x="1372.19" y="369.4666">Headless CMS for managing</text><text fill="#000000" font-family="sans-serif" font-size="13" lengthAdjust="spacing" textLength="103.5366" x="1372.19" y="384.7772">content &amp; media</text></g><!--link api to GMN6--><g class="link" data-entity-1="api" data-entity-2="GMN6" data-source-line="16" data-uid="lnk8" id="link_api_GMN6"><path d="M641.38,254.3583 C614.43,263.0083 582.24,274.1083 554,285.9583 C506.8,305.7683 454.53,333.2183 421.02,351.5583" fill="none" id="api-GMN6" style="stroke:#181818;stroke-width:1;stroke-dasharray:7.0,7.0;"/></g><!--link product_wf to GMN14--><g class="link" data-entity-1="product_wf" data-entity-2="GMN14" data-source-line="28" data-uid="lnk16" id="link_product_wf_GMN14"><path d="M1040.08,390.9283 C1022.96,399.7783 1000.96,409.6083 980,414.4483 C919.35,428.4683 760.54,408.0383 700,422.5183 C674.67,428.5783 670.38,436.0383 647,447.5183 C620.06,460.7483 589.92,476.1383 566.84,488.0583" fill="none" id="product_wf-GMN14" style="stroke:#181818;stroke-width:1;stroke-dasharray:7.0,7.0;"/></g><!--link postgres to GMN29--><g class="link" data-entity-1="postgres" data-entity-2="GMN29" data-source-line="51" data-uid="lnk31" id="link_postgres_GMN29"><path d="M862.05,626.9383 C876.76,606.8983 901.19,579.1983 930.5,567.5383 C991.21,543.3983 1015.23,547.7683 1077.5,567.5383 C1115.5,579.5983 1151.78,609.0383 1173.47,629.2183" fill="none" id="postgres-GMN29" style="stroke:#181818;stroke-width:1;stroke-dasharray:7.0,7.0;"/></g><!--link redis to GMN32--><g class="link" data-entity-1="redis" data-entity-2="GMN32" data-source-line="55" data-uid="lnk34" id="link_redis_GMN32"><path d="M744.52,626.7183 C754.49,606.2183 772.34,577.9383 798.5,567.5383 C837.73,551.9383 853.42,554.2583 893.5,567.5383 C930.05,579.6483 964.33,609.0683 984.74,629.2383" fill="none" id="redis-GMN32" style="stroke:#181818;stroke-width:1;stroke-dasharray:7.0,7.0;"/></g><!--link strapi to GMN37--><g class="link" data-entity-1="strapi" data-entity-2="GMN37" data-source-line="64" data-uid="lnk39" id="link_strapi_GMN37"><path d="M176.72,353.5383 C190.94,334.5283 215.88,306.2283 245.5,294.4583 C301.47,272.2383 1271.31,278.9483 1329.5,294.4583 C1370.91,305.4983 1412.82,332.5283 1438.84,351.5983" fill="none" id="strapi-GMN37" style="stroke:#181818;stroke-width:1;stroke-dasharray:7.0,7.0;"/></g><!--link storefront to api--><g class="link" data-entity-1="storefront" data-entity-2="api" data-source-line="74" data-uid="lnk42" id="link_storefront_api"><path d="M623.94,119.5583 C622.37,134.6683 622.81,151.9283 629,166.4683 C637.91,187.3983 651.9393,201.3859 667.9593,213.4659" fill="none" id="storefront-to-api" style="stroke:#181818;stroke-width:1;"/><polygon fill="#181818" points="672.75,217.0783,667.9723,208.4659,668.7578,214.0679,663.1557,214.8534,672.75,217.0783" style="stroke:#181818;stroke-width:1;"/><text fill="#000000" font-family="sans-serif" font-size="13" lengthAdjust="spacing" textLength="94.3643" x="630" y="163.0366">HTTP Requests</text></g><!--link admin to api--><g class="link" data-entity-1="admin" data-entity-2="api" data-source-line="75" data-uid="lnk43" id="link_admin_api"><path d="M751.19,119.9183 C737.35,150.9683 720.782,188.0977 710.262,211.7077" fill="none" id="admin-to-api" style="stroke:#181818;stroke-width:1;"/><polygon fill="#181818" points="707.82,217.1883,715.1367,210.5954,709.855,212.6211,707.8293,207.3394,707.82,217.1883" style="stroke:#181818;stroke-width:1;"/><text fill="#000000" font-family="sans-serif" font-size="13" lengthAdjust="spacing" textLength="94.3643" x="737.04" y="163.0366">HTTP Requests</text></g><!--link api to product_wf--><g class="link" data-entity-1="api" data-entity-2="product_wf" data-source-line="77" data-uid="lnk44" id="link_api_product_wf"><path d="M787.65,252.2883 C844.14,264.1683 918.29,283.2583 980,310.9583 C1005.24,322.2883 1026.5017,336.6727 1044.2217,350.0527" fill="none" id="api-to-product_wf" style="stroke:#181818;stroke-width:1;"/><polygon fill="#181818" points="1049.01,353.6683,1044.2379,345.0528,1045.0197,350.6553,1039.4172,351.4372,1049.01,353.6683" style="stroke:#181818;stroke-width:1;"/><text fill="#000000" font-family="sans-serif" font-size="13" lengthAdjust="spacing" textLength="49.0928" x="959.42" y="299.5266">Execute</text></g><!--link api to order_wf--><g class="link" data-entity-1="api" data-entity-2="order_wf" data-source-line="78" data-uid="lnk45" id="link_api_order_wf"><path d="M700,254.2983 C700,280.0683 700,321.8383 700,347.6183" fill="none" id="api-to-order_wf" style="stroke:#181818;stroke-width:1;"/><polygon fill="#181818" points="700,353.6183,704,344.6183,700,348.6183,696,344.6183,700,353.6183" style="stroke:#181818;stroke-width:1;"/><text fill="#000000" font-family="sans-serif" font-size="13" lengthAdjust="spacing" textLength="49.0928" x="701" y="299.5266">Execute</text></g><!--link api to customer_wf--><g class="link" data-entity-1="api" data-entity-2="customer_wf" data-source-line="79" data-uid="lnk46" id="link_api_customer_wf"><path d="M723.79,254.2983 C758.67,280.0683 818.4949,324.272 853.3749,350.052" fill="none" id="api-to-customer_wf" style="stroke:#181818;stroke-width:1;"/><polygon fill="#181818" points="858.2,353.6183,853.3398,345.0521,854.1791,350.6464,848.5848,351.4856,858.2,353.6183" style="stroke:#181818;stroke-width:1;"/><text fill="#000000" font-family="sans-serif" font-size="13" lengthAdjust="spacing" textLength="49.0928" x="786.54" y="299.5266">Execute</text></g><!--link api to payment_wf--><g class="link" data-entity-1="api" data-entity-2="payment_wf" data-source-line="80" data-uid="lnk47" id="link_api_payment_wf"><path d="M787.61,239.7683 C882.74,245.5683 1037.73,262.3683 1162,310.9583 C1188.52,321.3283 1210.6936,336.204 1228.7036,349.974" fill="none" id="api-to-payment_wf" style="stroke:#181818;stroke-width:1;"/><polygon fill="#181818" points="1233.47,353.6183,1228.7499,344.9742,1229.498,350.5814,1223.8908,351.3295,1233.47,353.6183" style="stroke:#181818;stroke-width:1;"/><text fill="#000000" font-family="sans-serif" font-size="13" lengthAdjust="spacing" textLength="49.0928" x="1139.42" y="299.5266">Execute</text></g><!--link product_wf to product_mod--><g class="link" data-entity-1="product_wf" data-entity-2="product_mod" data-source-line="82" data-uid="lnk48" id="link_product_wf_product_mod"><path d="M1104.41,390.8883 C1121.04,399.0683 1141.67,408.3083 1161,414.4483 C1179.53,420.3383 1184.98,418.4683 1204,422.5183 C1250.92,432.4983 1265.53,427.2283 1309,447.5183 C1332.35,458.4083 1351.0666,472.7163 1366.6266,486.2763" fill="none" id="product_wf-to-product_mod" style="stroke:#181818;stroke-width:1;"/><polygon fill="#181818" points="1371.15,490.2183,1366.9929,481.2898,1367.3805,486.9333,1361.737,487.3209,1371.15,490.2183" style="stroke:#181818;stroke-width:1;"/><text fill="#000000" font-family="sans-serif" font-size="13" lengthAdjust="spacing" textLength="22.877" x="1288.97" y="436.0866">Use</text></g><!--link order_wf to order_mod--><g class="link" data-entity-1="order_wf" data-entity-2="order_mod" data-source-line="83" data-uid="lnk49" id="link_order_wf_order_mod"><path d="M702.61,390.7983 C706.45,416.5783 712.6686,458.4434 716.4986,484.2334" fill="none" id="order_wf-to-order_mod" style="stroke:#181818;stroke-width:1;"/><polygon fill="#181818" points="717.38,490.1683,720.0145,480.6783,716.6455,485.2225,712.1013,481.8535,717.38,490.1683" style="stroke:#181818;stroke-width:1;"/><text fill="#000000" font-family="sans-serif" font-size="13" lengthAdjust="spacing" textLength="22.877" x="710.4" y="436.0866">Use</text></g><!--link customer_wf to customer_mod--><g class="link" data-entity-1="customer_wf" data-entity-2="customer_mod" data-source-line="84" data-uid="lnk50" id="link_customer_wf_customer_mod"><path d="M882,390.7983 C882,416.5783 882,458.3783 882,484.1683" fill="none" id="customer_wf-to-customer_mod" style="stroke:#181818;stroke-width:1;"/><polygon fill="#181818" points="882,490.1683,886,481.1683,882,485.1683,878,481.1683,882,490.1683" style="stroke:#181818;stroke-width:1;"/><text fill="#000000" font-family="sans-serif" font-size="13" lengthAdjust="spacing" textLength="22.877" x="883" y="436.0866">Use</text></g><!--link payment_wf to payment_mod--><g class="link" data-entity-1="payment_wf" data-entity-2="payment_mod" data-source-line="85" data-uid="lnk51" id="link_payment_wf_payment_mod"><path d="M1226.08,390.7483 C1202,405.5083 1166.93,427.3783 1137,447.5183 C1116.3,461.4383 1098.1583,474.45 1081.4683,486.69" fill="none" id="payment_wf-to-payment_mod" style="stroke:#181818;stroke-width:1;"/><polygon fill="#181818" points="1076.63,490.2383,1086.253,488.1414,1080.6619,487.2814,1081.522,481.6903,1076.63,490.2383" style="stroke:#181818;stroke-width:1;"/><text fill="#000000" font-family="sans-serif" font-size="13" lengthAdjust="spacing" textLength="22.877" x="1173.27" y="436.0866">Use</text></g><!--link product_mod to postgres--><g class="link" data-entity-1="product_mod" data-entity-2="postgres" data-source-line="87" data-uid="lnk52" id="link_product_mod_postgres"><path d="M1359.61,527.3783 C1344.73,535.4383 1326.32,544.6083 1309,551.0083 C1264.4,567.4783 1252.13,569.8183 1205,576.0683 C1172.83,580.3383 942.87,571.3783 913,584.0683 C892.17,592.9183 877.9776,606.9487 866.0976,621.9987" fill="none" id="product_mod-to-postgres" style="stroke:#181818;stroke-width:1;"/><polygon fill="#181818" points="862.38,626.7083,871.096,622.1224,865.478,622.7837,864.8167,617.1656,862.38,626.7083" style="stroke:#181818;stroke-width:1;"/><text fill="#000000" font-family="sans-serif" font-size="13" lengthAdjust="spacing" textLength="76.7495" x="1286.58" y="572.6366">Query/Store</text></g><!--link order_mod to postgres--><g class="link" data-entity-1="order_mod" data-entity-2="postgres" data-source-line="88" data-uid="lnk53" id="link_order_mod_postgres"><path d="M735.75,527.2483 C747.83,540.6383 764.93,559.5583 780,576.0683 C795.51,593.0583 809.0693,607.7904 822.3493,622.1704" fill="none" id="order_mod-to-postgres" style="stroke:#181818;stroke-width:1;"/><polygon fill="#181818" points="826.42,626.5783,823.2525,617.2527,823.0278,622.905,817.3754,622.6803,826.42,626.5783" style="stroke:#181818;stroke-width:1;"/><text fill="#000000" font-family="sans-serif" font-size="13" lengthAdjust="spacing" textLength="76.7495" x="781" y="572.6366">Query/Store</text></g><!--link customer_mod to postgres--><g class="link" data-entity-1="customer_mod" data-entity-2="postgres" data-source-line="89" data-uid="lnk54" id="link_customer_mod_postgres"><path d="M877.57,527.3683 C871.2,552.6583 860.9442,593.4097 854.0142,620.9497" fill="none" id="customer_mod-to-postgres" style="stroke:#181818;stroke-width:1;"/><polygon fill="#181818" points="852.55,626.7683,858.6253,619.0165,853.7701,621.9194,850.8672,617.0643,852.55,626.7683" style="stroke:#181818;stroke-width:1;"/><text fill="#000000" font-family="sans-serif" font-size="13" lengthAdjust="spacing" textLength="76.7495" x="869.66" y="572.6366">Query/Store</text></g><!--link payment_mod to postgres--><g class="link" data-entity-1="payment_mod" data-entity-2="postgres" data-source-line="90" data-uid="lnk55" id="link_payment_mod_postgres"><path d="M1032.28,527.4983 C1013.38,542.7283 984.05,564.0783 955,576.0683 C937.44,583.3183 929.84,575.2583 913,584.0683 C893.37,594.3383 879.5868,607.752 867.4868,622.172" fill="none" id="payment_mod-to-postgres" style="stroke:#181818;stroke-width:1;"/><polygon fill="#181818" points="863.63,626.7683,872.4793,622.4451,866.844,622.9381,866.351,617.3028,863.63,626.7683" style="stroke:#181818;stroke-width:1;"/><text fill="#000000" font-family="sans-serif" font-size="13" lengthAdjust="spacing" textLength="76.7495" x="987.66" y="572.6366">Query/Store</text></g><!--link inventory_mod to postgres--><g class="link" data-entity-1="inventory_mod" data-entity-2="postgres" data-source-line="91" data-uid="lnk56" id="link_inventory_mod_postgres"><path d="M1187.71,527.4083 C1172.26,534.9483 1153.86,543.6683 1137,551.0083 C1108.99,563.1883 1102.87,569.6483 1073,576.0683 C1038.19,583.5483 945.61,569.7883 913,584.0683 C892.27,593.1483 878.0825,607.1706 866.1725,622.1606" fill="none" id="inventory_mod-to-postgres" style="stroke:#181818;stroke-width:1;"/><polygon fill="#181818" points="862.44,626.8583,871.1705,622.3,865.5504,622.9435,864.9069,617.3234,862.44,626.8583" style="stroke:#181818;stroke-width:1;"/><text fill="#000000" font-family="sans-serif" font-size="13" lengthAdjust="spacing" textLength="76.7495" x="1119.79" y="572.6366">Query/Store</text></g><!--link api to redis--><g class="link" data-entity-1="api" data-entity-2="redis" data-source-line="93" data-uid="lnk57" id="link_api_redis"><path d="M677.6,254.3883 C660.13,268.6983 635.77,289.8783 617,310.9583 C579.56,352.9883 593.66,387.9583 544,414.4483 C527.13,423.4483 213.36,408.8383 200,422.5183 C194.72,427.9183 196.93,432.6083 200,439.5183 C287.41,636.4183 602.1901,650.0819 700.3001,649.5319" fill="none" id="api-to-redis" style="stroke:#181818;stroke-width:1;"/><polygon fill="#181818" points="706.3,649.4983,697.2777,645.5488,701.3001,649.5263,697.3226,653.5487,706.3,649.4983" style="stroke:#181818;stroke-width:1;"/><text fill="#000000" font-family="sans-serif" font-size="13" lengthAdjust="spacing" textLength="132.7041" x="201" y="436.0866">Session Management</text></g><!--link api to strapi--><g class="link" data-entity-1="api" data-entity-2="strapi" data-source-line="94" data-uid="lnk58" id="link_api_strapi"><path d="M612.72,244.2383 C495.46,255.3983 294.11,278.5683 228,310.9583 C207.58,320.9683 193.1169,335.1406 181.3669,349.0806" fill="none" id="api-to-strapi" style="stroke:#181818;stroke-width:1;"/><polygon fill="#181818" points="177.5,353.6683,186.3589,349.3647,180.7225,349.8452,180.242,344.2088,177.5,353.6683" style="stroke:#181818;stroke-width:1;"/><text fill="#000000" font-family="sans-serif" font-size="13" lengthAdjust="spacing" textLength="108.5259" x="303.99" y="299.5266">Content API Calls</text></g><!--link migration to postgres--><g class="link" data-entity-1="migration" data-entity-2="postgres" data-source-line="96" data-uid="lnk59" id="link_migration_postgres"><path d="M80.14,254.2983 C71.36,290.3383 57.63,372.7183 102,414.4483 C121.11,432.4283 315.47,409.0683 338,422.5183 C394.77,456.4183 357.19,515.5383 413,551.0083 C482.3,595.0383 706.46,549.6383 781,584.0683 C801.4,593.4883 815.4619,607.2991 827.4219,622.1191" fill="none" id="migration-to-postgres" style="stroke:#181818;stroke-width:1;"/><polygon fill="#181818" points="831.19,626.7883,828.6506,617.2724,828.0499,622.8973,822.425,622.2966,831.19,626.7883" style="stroke:#181818;stroke-width:1;"/><text fill="#000000" font-family="sans-serif" font-size="13" lengthAdjust="spacing" textLength="80.7358" x="358.43" y="436.0866">Migrate Data</text></g><!--link migration to strapi--><g class="link" data-entity-1="migration" data-entity-2="strapi" data-source-line="97" data-uid="lnk60" id="link_migration_strapi"><path d="M90.34,254.2183 C94.88,267.9383 102.08,287.2783 111,302.9583 C121.53,321.4783 132.7714,335.9046 144.1814,349.1346" fill="none" id="migration-to-strapi" style="stroke:#181818;stroke-width:1;"/><polygon fill="#181818" points="148.1,353.6783,145.2512,344.2504,144.8345,349.8919,139.193,349.4752,148.1,353.6783" style="stroke:#181818;stroke-width:1;"/><text fill="#000000" font-family="sans-serif" font-size="13" lengthAdjust="spacing" textLength="101.8608" x="112" y="299.5266">Migrate Content</text></g><!--SRC=[VLLDRnen4BtxLumuzED0U- -XKWH8YHHK0bGzLiOxB6vsxQtjJOAg_FUExVtmxWAN16QUtpm_pmnEkW9XZLbjETmPSP8EXQiDmbBotF2IiO-mS-T2gfpPPwagJa4uSF6S6rshRA4BRU3LdqloGfULLgYSFufWY9Ehl43FjYWa9U2Hdz4mBXmTd-teBnwDLcu6t8BjlhQ0kwoK2fRSdWwQcooWk8zvnllzVjFmLIICvmYpFZQ3VmnwHSIrUO2jhXrQ-BHwgmnQ- -MF_HmvAydUcT8EuQ2TqoNeOmW2zD3vWLlCmFESkCg2Dm3RrMuFgB9AI-Ki74as5ItH20HTeU5EQcKP8S3pU-6_j7a-5lfrB7uOdrnWOtHM2zSTjq5w5QE_Nuz3z0-JeHbXjOzDa8kQZ2ydOD649_WDFvV-mqX7Z7hqnCc1nfKIlB9rmVrB76eh5TaBXSwbe2mPIpB52Qqp0N75mpKnKekD74oZL_sBe85vfSukkPSWetKJNETT0ksCcw1Rvr85ZMqJx8DweV_Qd5EqR8C1VzNdIBRK9PTgRYiKyYW5b84dj2XbgQbrxPkqv8gyyo861Y-vun06T6poE1EDpYZg1uHkgQtB3UwU7kCDurSxm6mnax5lZF_KNiN8_EJ2JVf36oDBJZRumt55X26BRiKvywbU_90fyWFigCkeYmA3lmOrcgVWjFjK3XRDYnGuS611YoYyLczGvq6Rsr0RavfoqcmxQjzAmcAzQrQRINPC9wu90zmZpme_1tGWN2-yIjmmegdr0Kgw2v- -qbhcSKH6RzJ59-gw3EorBk93b1tBUtDxHVix35w_c64-_-uN8toBwtUBVsiQLSl2LhwQPJxea_qc8Cpg3GNjuoxPhgSBgMGPNSZskoT9igHMMfh6W50_BRAkNb-yJwOL1mfwI58sLT43M5epG9gsflnJZURyDOmHwslV00q4tC2bCcx01gla5h1pEKmI9Tj9IkQYXSH-9amx7_x7Si6BWbgWwwzniTYC67fvXEhuMap3o_u3]--></g></svg>